{"glyphs":{"0":{"ha":822,"x_min":61,"x_max":750,"o":"m 392 92 l 410 92 q 525 178 482 92 q 568 425 568 263 l 568 466 q 479 778 568 705 q 412 805 447 805 l 395 805 q 277 719 320 805 q 235 482 235 633 l 235 422 q 279 180 235 273 q 333 113 302 134 q 392 92 365 92 m 393 924 l 421 924 q 560 890 496 924 q 729 652 688 822 q 750 474 750 563 l 750 445 q 725 251 750 343 q 659 101 701 159 q 548 7 617 43 q 400 -29 478 -29 l 372 -29 q 254 1 312 -29 q 89 229 138 60 q 61 417 61 325 l 61 475 q 87 662 61 574 q 264 893 136 831 q 393 924 330 924 z "},"1":{"ha":620,"x_min":96,"x_max":506,"o":"m 96 754 q 152 823 96 787 q 367 925 312 925 q 429 873 421 925 q 431 572 431 865 q 433 269 431 280 q 473 178 441 224 q 506 87 506 133 q 366 -3 506 -3 l 323 -3 q 201 35 250 -3 q 174 97 174 54 q 205 176 174 140 q 248 248 237 212 q 258 458 258 283 q 239 669 258 633 q 161 702 227 690 q 96 754 96 714 z "},"2":{"ha":772,"x_min":84,"x_max":692,"o":"m 140 673 q 91 744 91 673 q 178 872 91 814 q 376 931 265 931 l 399 931 q 600 863 522 931 q 677 686 677 795 q 616 495 677 576 q 431 310 555 414 q 307 170 307 207 q 392 144 307 144 q 538 157 477 144 q 629 169 599 169 q 676 151 660 169 q 692 106 692 133 l 692 88 q 635 11 692 31 q 470 -2 598 -2 l 427 -2 l 405 -1 l 383 -1 q 113 9 142 -1 q 84 59 84 20 l 84 78 q 168 239 84 137 q 302 376 197 276 q 436 514 407 476 q 496 654 496 591 q 464 754 496 716 q 371 791 433 791 q 253 743 310 791 q 140 673 171 673 z "},"3":{"ha":768,"x_min":83,"x_max":689,"o":"m 394 930 q 634 728 634 930 q 568 560 634 645 q 532 511 532 514 q 578 472 532 503 q 689 258 689 399 q 592 58 689 138 q 480 -3 544 18 q 354 -25 416 -25 l 332 -25 q 156 19 229 -25 q 83 115 83 62 q 98 159 83 142 q 146 176 113 176 q 245 144 179 176 q 370 111 312 111 q 470 150 429 111 q 511 253 511 189 q 467 362 511 317 q 343 418 424 408 q 287 431 297 425 q 259 483 259 447 q 320 543 259 519 q 416 602 382 566 q 466 718 466 653 q 435 770 466 749 q 368 791 405 791 q 264 765 330 791 q 165 739 197 739 q 109 787 109 739 q 174 878 109 839 q 372 930 262 930 l 394 930 z "},"4":{"ha":789,"x_min":53,"x_max":710,"o":"m 224 338 l 277 338 l 282 338 l 324 338 q 445 349 438 338 q 452 461 452 359 l 452 600 l 452 606 l 452 631 l 453 652 l 453 683 q 450 694 453 694 q 390 611 447 694 q 319 511 332 528 q 255 419 307 494 q 203 343 203 345 l 203 340 q 224 338 203 338 m 710 284 q 673 195 710 233 q 636 135 636 159 l 637 81 q 605 -9 637 22 q 526 -27 586 -27 q 444 -3 466 -27 q 413 137 413 33 q 326 201 413 174 q 194 215 284 215 q 84 226 104 215 q 53 282 53 243 l 53 294 q 104 409 53 334 q 414 836 249 621 q 473 896 448 879 q 545 912 499 912 l 558 912 q 610 868 599 912 q 613 655 613 854 q 622 426 613 456 q 668 342 631 396 q 691 320 671 337 q 710 284 710 302 z "},"5":{"ha":767,"x_min":77,"x_max":690,"o":"m 77 112 q 95 160 77 143 q 134 176 112 176 q 230 143 156 176 q 358 110 303 110 q 481 166 436 110 q 515 288 515 208 q 500 355 515 319 q 299 451 460 451 l 279 450 l 258 448 q 217 446 233 446 q 136 475 157 446 q 115 583 115 505 q 139 842 115 740 q 160 892 147 878 q 360 924 188 924 q 448 925 405 924 l 492 927 q 557 930 549 930 l 578 929 l 599 929 q 651 893 651 929 q 608 795 651 819 q 453 783 585 783 q 299 771 321 783 q 258 649 258 748 q 293 585 258 585 l 334 587 q 400 589 356 589 q 500 567 444 589 q 661 428 615 524 q 690 294 690 366 q 595 60 690 146 q 351 -24 501 -24 l 329 -24 q 151 18 224 -24 q 77 112 77 61 z "},"6":{"ha":783,"x_min":71,"x_max":717,"o":"m 374 469 q 280 427 315 469 q 245 331 245 384 l 245 296 q 288 157 245 214 q 399 99 332 99 l 410 99 q 512 148 472 99 q 552 267 552 197 l 552 298 q 513 419 552 367 q 409 471 474 471 l 391 471 q 374 469 380 469 m 717 298 l 717 281 q 622 53 717 136 q 513 -5 578 14 q 382 -24 449 -24 q 252 7 316 -23 q 89 214 123 68 q 71 372 71 286 l 71 409 q 98 606 72 510 q 315 876 150 800 q 522 923 415 923 q 609 904 578 923 q 641 850 641 886 q 599 798 641 814 q 505 784 590 795 q 297 668 351 764 q 281 615 281 639 q 298 583 281 591 q 364 575 315 575 l 394 576 q 460 578 425 578 q 553 556 495 578 q 717 300 717 494 l 717 298 z "},"7":{"ha":730,"x_min":64,"x_max":665,"o":"m 277 -22 l 261 -22 q 193 22 193 -22 q 322 388 193 75 q 410 585 354 465 q 467 733 467 706 q 440 770 467 761 q 340 780 414 780 q 206 761 266 780 q 119 743 146 743 q 64 812 64 743 q 109 906 64 881 q 243 923 140 923 l 377 923 q 631 910 596 923 q 665 850 665 898 q 568 587 665 802 q 417 201 470 372 q 362 24 365 30 q 277 -22 340 -22 z "},"8":{"ha":780,"x_min":64,"x_max":711,"o":"m 525 695 l 525 709 q 491 797 525 759 q 400 834 458 834 l 376 834 q 296 804 331 834 q 262 725 262 773 l 262 702 q 307 606 262 650 q 408 561 351 561 l 421 561 q 500 614 459 561 q 525 695 525 646 m 547 230 l 547 252 q 487 374 547 320 q 366 428 428 428 l 350 428 q 268 380 307 428 q 229 281 229 332 l 229 253 q 279 136 229 178 q 399 94 330 94 l 404 95 q 505 133 463 95 q 547 230 547 171 m 677 711 q 658 619 677 658 q 604 539 638 580 q 570 496 570 498 q 612 457 571 492 q 711 246 711 371 q 613 44 711 121 q 514 -6 574 13 q 391 -25 454 -25 l 374 -25 q 153 45 243 -25 q 87 126 111 78 q 64 221 64 174 l 64 252 q 96 369 64 315 q 178 461 127 423 q 201 484 201 479 q 170 524 201 490 q 96 714 96 603 q 117 800 96 757 q 178 877 138 844 q 386 944 261 944 l 402 944 q 516 925 461 944 q 606 874 572 905 q 677 711 677 810 z "},"9":{"ha":785,"x_min":67,"x_max":717,"o":"m 233 628 l 233 616 q 276 487 233 534 q 382 439 319 439 l 389 439 l 394 440 q 500 477 460 440 q 541 582 541 514 l 541 600 l 540 606 l 540 617 q 538 635 538 629 q 497 749 538 694 q 398 805 455 805 l 369 805 q 271 754 309 805 q 233 628 233 704 m 429 335 q 397 332 418 335 q 331 330 376 330 q 233 353 286 330 q 67 623 68 425 q 157 847 67 764 q 258 905 199 885 q 379 926 318 926 l 397 926 q 633 827 543 926 q 695 709 674 781 q 717 564 717 636 l 717 507 q 687 298 717 402 q 607 132 657 194 q 466 25 557 69 q 281 -20 374 -20 l 266 -20 q 176 -2 210 -20 q 141 48 141 15 q 182 98 141 81 q 274 113 187 100 q 407 156 360 126 q 476 225 454 186 q 499 295 499 264 q 429 335 499 335 z "},"\u0000":{"ha":781,"x_min":36,"x_max":741,"o":"m 552 44 q 626 51 626 44 q 458 310 626 65 q 421 366 452 318 q 387 414 390 414 l 354 363 l 351 357 l 325 318 q 317 307 322 313 q 150 47 150 63 q 162 47 150 47 l 169 46 l 175 45 l 222 44 l 552 44 m 102 492 l 102 242 q 105 109 102 109 q 180 218 109 109 l 221 279 q 245 315 236 302 q 268 350 254 328 q 315 418 283 372 q 347 467 347 463 l 347 474 q 257 610 347 479 q 163 749 168 741 l 104 835 q 102 492 102 835 m 673 431 l 673 511 q 670 836 673 836 q 633 785 667 836 q 514 611 600 734 q 429 477 429 488 q 480 391 429 465 q 599 214 532 317 q 670 112 666 112 q 673 431 673 112 m 459 903 l 438 903 l 431 902 l 390 902 q 149 896 149 902 q 184 839 149 890 q 238 759 219 788 q 271 709 256 730 q 336 611 286 688 q 390 533 387 533 q 433 594 393 533 q 478 664 472 654 q 494 687 484 673 l 577 813 q 631 897 631 890 q 459 903 631 903 m 36 27 l 36 163 l 37 180 l 37 486 q 38 958 37 955 q 94 970 43 970 l 667 970 q 737 959 734 970 q 740 686 740 948 l 740 399 l 741 331 l 741 9 q 719 -17 741 -15 q 532 -20 698 -20 l 227 -20 q 43 -16 50 -20 q 36 27 36 -12 z "}," ":{"ha":380,"x_min":0,"x_max":0,"o":""},"!":{"ha":431,"x_min":121,"x_max":315,"o":"m 281 311 q 214 266 281 266 l 205 266 q 166 279 176 266 q 157 331 157 292 q 154 372 154 363 l 153 406 l 151 422 l 149 473 l 148 490 l 147 515 l 144 576 l 142 628 l 137 740 l 136 748 l 134 798 l 134 815 l 132 880 l 132 887 q 154 954 132 938 q 229 970 176 970 l 254 970 q 300 956 287 970 q 314 890 314 941 l 313 882 q 313 858 313 870 l 311 817 l 311 809 l 310 792 l 308 750 q 304 691 304 709 l 303 673 q 302 648 302 656 l 300 621 q 298 595 298 604 l 297 578 q 296 552 296 560 l 294 526 q 292 500 292 509 l 290 475 q 289 450 289 458 l 286 399 l 284 383 q 283 358 283 367 l 281 342 q 281 311 281 334 m 251 169 q 297 147 279 169 q 315 87 315 125 l 315 70 q 227 -19 315 -19 l 204 -19 q 178 -17 194 -17 q 143 0 163 -17 q 123 53 123 18 l 121 73 l 121 83 l 123 105 q 146 153 123 136 q 195 170 170 170 l 215 172 l 229 172 l 232 171 l 238 171 q 251 169 248 169 z "},"\"":{"ha":557,"x_min":88,"x_max":479,"o":"m 156 985 l 193 985 q 240 941 240 985 l 240 928 l 239 923 l 236 867 l 235 848 q 231 820 232 829 q 230 802 231 811 q 229 788 229 792 l 227 774 q 225 760 225 764 l 222 741 q 220 722 220 726 q 203 648 220 673 q 161 634 193 634 l 139 634 q 105 675 105 634 l 92 858 l 92 863 l 91 871 q 91 881 91 876 l 89 909 l 89 918 l 88 932 l 88 941 q 103 975 88 965 q 156 985 117 985 m 401 985 l 425 985 q 479 948 479 985 l 479 920 l 478 916 l 474 856 l 473 851 l 473 842 l 471 819 q 467 781 467 790 l 465 767 q 463 748 463 753 l 458 720 q 455 692 455 696 q 441 646 455 658 q 398 634 428 634 l 380 634 q 345 673 345 634 q 343 687 343 682 l 342 691 q 342 701 342 696 l 341 715 q 341 724 341 720 l 335 808 l 332 850 l 328 920 l 328 947 q 401 985 328 985 z "},"#":{"ha":865,"x_min":59,"x_max":804,"o":"m 360 505 q 341 397 341 410 l 340 391 l 340 382 q 350 376 340 376 l 473 376 q 498 402 498 376 l 502 419 q 509 463 509 456 l 514 490 q 522 537 522 530 l 524 543 l 524 552 q 497 559 524 559 l 463 559 l 459 559 l 446 559 q 376 556 382 559 q 360 505 360 549 m 804 627 l 804 608 q 729 559 804 566 q 671 545 682 555 q 634 403 634 516 q 673 376 634 382 q 754 359 745 367 q 763 319 763 351 q 748 274 763 288 q 683 254 732 259 q 616 229 633 248 q 581 133 599 210 q 558 47 563 55 q 492 19 543 19 q 441 63 441 19 q 452 147 441 87 q 463 225 463 206 q 453 251 463 245 q 394 257 444 257 q 329 246 343 257 q 299 158 315 235 q 266 50 284 82 q 215 18 248 18 q 166 27 181 18 q 151 74 151 36 l 157 119 q 163 196 163 174 q 155 233 163 218 q 102 264 146 247 q 59 314 59 282 q 86 362 59 347 q 141 375 97 368 q 199 397 186 382 q 228 523 228 433 q 217 550 228 543 q 166 560 206 557 q 111 571 126 563 q 96 613 96 578 q 123 665 96 647 q 183 678 133 671 q 249 705 234 684 q 278 803 263 726 q 307 895 293 880 q 370 911 321 911 q 419 871 419 911 q 408 782 419 850 q 397 711 397 714 q 458 676 397 676 q 532 687 518 676 q 562 775 547 699 q 594 883 578 852 q 660 915 611 915 q 709 875 709 915 l 693 741 q 703 697 693 708 q 759 673 713 686 q 804 627 804 659 z "},"$":{"ha":783,"x_min":85,"x_max":711,"o":"m 249 663 q 282 602 249 635 q 342 568 315 568 l 347 568 q 357 688 357 568 l 357 707 l 357 713 l 357 732 l 358 742 l 358 770 q 340 809 358 809 l 338 808 q 275 777 301 808 q 249 717 249 745 l 247 701 l 247 682 l 248 678 l 248 672 q 249 663 249 665 m 449 117 q 525 142 490 117 q 559 225 559 168 l 560 233 l 560 237 q 559 248 559 243 q 529 344 559 302 q 452 386 498 386 q 442 366 442 386 q 439 346 442 363 l 439 311 l 439 308 l 441 279 q 444 260 444 267 l 446 235 l 446 197 l 445 185 l 444 170 q 441 157 441 160 l 440 150 q 440 139 440 144 l 441 134 q 449 117 441 117 m 85 155 q 133 230 85 230 q 217 186 164 230 q 306 142 269 142 q 342 278 342 142 q 317 386 342 350 q 230 452 305 401 q 122 560 155 502 q 95 667 95 608 q 96 696 95 681 q 237 882 109 821 q 329 928 322 922 q 355 973 335 934 q 392 1012 374 1012 l 407 1012 q 450 977 426 1012 q 498 926 475 941 q 565 897 521 911 q 667 782 667 863 q 653 733 667 753 q 618 713 639 713 q 552 741 597 713 q 494 768 507 768 q 448 625 448 768 q 448 621 448 623 q 460 551 448 566 q 556 490 471 536 q 676 391 641 444 q 711 252 711 338 q 658 99 711 165 q 589 40 624 58 q 515 7 553 22 q 469 -12 477 -7 q 439 -71 448 -24 q 399 -118 429 -118 q 338 -71 361 -118 q 296 -13 315 -24 q 220 14 277 -3 q 85 155 85 54 z "},"%":{"ha":1118,"x_min":58,"x_max":1047,"o":"m 252 552 l 271 552 q 320 586 301 552 q 339 653 339 621 l 340 661 l 340 670 l 342 696 l 342 701 l 341 705 l 339 739 q 338 747 338 743 q 314 817 338 789 q 262 844 290 844 l 258 844 q 204 815 227 844 q 182 743 182 786 l 180 734 l 180 726 l 179 699 l 179 695 l 180 690 l 182 656 q 182 637 182 652 q 202 587 182 622 q 252 552 221 552 m 815 96 l 834 96 q 887 133 867 96 q 907 206 907 169 l 909 223 l 909 232 l 910 246 l 910 255 l 909 260 l 909 269 l 909 281 l 906 305 q 884 366 906 338 q 836 394 862 394 l 828 394 l 825 393 q 768 355 789 393 q 747 262 747 317 l 747 222 q 768 131 747 165 q 815 96 789 96 m 478 661 q 416 509 478 572 q 265 447 353 447 l 250 447 q 115 503 171 447 q 58 665 58 559 l 58 696 q 60 720 60 713 q 122 872 60 810 q 272 935 184 935 l 288 935 q 426 873 373 935 q 479 716 479 812 l 479 684 q 478 661 478 669 m 818 936 l 829 936 q 878 909 878 936 q 857 857 878 898 q 376 78 747 644 q 274 -2 324 -2 l 262 -2 q 213 24 213 -2 q 245 98 213 35 q 451 433 248 102 q 722 865 653 764 q 818 936 770 936 m 1047 256 l 1047 224 q 987 58 1047 122 q 835 -5 928 -5 l 827 -5 q 677 60 730 -5 q 624 229 624 125 l 624 244 q 683 418 624 355 q 835 481 742 481 l 842 481 q 988 422 929 481 q 1047 256 1047 363 z "},"&":{"ha":949,"x_min":92,"x_max":872,"o":"m 347 727 q 349 710 347 727 q 387 614 349 683 q 414 587 401 587 q 494 654 444 587 q 525 737 525 696 l 525 755 q 498 821 525 794 q 449 847 472 847 l 432 847 q 373 816 399 847 q 347 745 347 785 l 347 730 l 347 727 m 239 250 q 289 138 239 188 q 393 88 339 88 l 413 88 q 528 126 468 88 q 551 152 551 141 l 551 155 q 511 205 551 162 q 402 349 455 272 q 342 426 349 426 q 269 355 320 426 q 241 277 241 317 l 239 266 l 239 250 m 378 -18 l 359 -18 q 169 54 247 -18 q 92 231 92 125 l 92 252 q 200 452 92 353 q 254 516 254 500 q 225 599 254 532 q 197 717 197 666 q 266 871 197 812 q 423 930 334 930 q 573 878 513 930 q 634 741 634 827 q 589 565 634 680 q 545 436 545 451 q 583 391 545 422 q 661 360 621 360 q 690 396 665 361 q 806 476 747 476 l 806 476 q 865 433 865 476 q 822 333 865 430 q 779 200 779 235 q 826 108 779 165 q 872 38 872 51 l 872 31 q 840 13 872 13 l 724 28 q 677 21 713 28 q 608 13 642 15 q 501 -4 574 10 q 378 -18 429 -18 z "},"'":{"ha":339,"x_min":97,"x_max":251,"o":"m 196 991 q 251 951 251 991 l 251 932 l 250 927 l 249 899 l 243 829 l 240 806 l 237 787 q 235 768 235 772 l 232 745 q 229 721 229 726 q 215 656 229 674 q 164 639 201 639 l 155 639 q 117 661 122 639 q 103 829 103 715 l 97 930 l 97 949 q 145 989 97 989 q 159 990 155 990 l 177 991 l 196 991 z "},"(":{"ha":496,"x_min":97,"x_max":431,"o":"m 97 392 l 97 452 q 121 651 97 540 q 294 994 167 867 q 376 1038 337 1038 q 431 1002 431 1038 l 431 991 q 374 883 431 979 q 289 684 317 788 q 260 404 260 579 q 307 89 260 229 q 378 -50 326 30 q 429 -150 429 -130 q 412 -185 429 -171 q 363 -199 395 -199 q 277 -142 331 -199 q 182 3 222 -86 q 97 392 98 186 z "},")":{"ha":497,"x_min":68,"x_max":404,"o":"m 404 447 l 404 402 q 384 215 404 317 q 325 25 363 113 q 214 -144 287 -63 q 124 -199 164 -199 q 68 -163 68 -199 q 126 -44 68 -141 q 202 117 184 54 q 243 431 243 265 q 141 862 243 697 q 75 990 75 970 q 91 1024 75 1010 q 139 1038 108 1038 q 228 975 171 1038 q 381 649 343 846 q 404 447 404 532 z "},"*":{"ha":667,"x_min":129,"x_max":585,"o":"m 403 800 q 406 787 403 787 q 456 808 410 787 q 523 830 503 830 q 564 806 543 830 q 585 760 585 782 q 521 699 585 724 q 456 663 456 675 q 480 638 456 659 q 507 613 504 617 q 531 537 531 587 q 467 503 531 503 q 412 524 442 503 q 369 545 382 545 q 330 510 366 545 q 273 475 294 475 q 178 576 250 475 q 144 682 144 625 l 152 711 q 145 727 148 722 q 140 750 143 732 q 133 781 137 768 q 129 800 129 793 q 150 822 129 807 q 184 838 170 838 l 244 825 q 280 862 280 825 q 300 920 280 893 q 351 947 319 947 l 363 947 q 396 931 387 947 q 406 837 406 916 l 403 800 z "},"+":{"ha":744,"x_min":66,"x_max":677,"o":"m 677 433 l 677 409 q 658 355 677 364 q 541 347 639 347 q 439 338 443 347 q 437 231 437 335 q 428 114 437 127 q 368 100 419 100 l 355 100 q 307 127 313 100 q 304 237 304 138 q 300 341 304 336 q 198 347 296 347 q 92 349 100 347 q 66 386 66 355 l 66 410 q 82 466 66 458 q 199 474 99 474 q 302 483 298 474 q 304 585 304 486 q 308 696 304 685 q 362 720 316 720 l 387 720 q 430 703 422 720 q 437 585 437 686 q 441 479 437 484 q 545 474 446 474 q 653 472 644 474 q 677 433 677 467 z "},",":{"ha":386,"x_min":87,"x_max":292,"o":"m 100 87 q 182 173 100 173 l 210 173 q 226 172 220 172 q 279 155 265 172 q 292 100 292 138 l 292 68 q 237 -106 292 -16 q 134 -197 181 -197 l 125 -197 q 87 -166 87 -197 l 87 -159 q 112 -114 87 -159 q 136 -38 136 -69 q 118 7 136 -29 q 100 87 100 43 z "},"-":{"ha":579,"x_min":77,"x_max":503,"o":"m 77 396 l 79 422 q 98 453 79 449 q 302 458 118 458 l 440 459 l 467 459 q 503 420 503 459 l 503 394 q 486 333 503 339 q 282 326 469 326 l 244 326 l 227 326 l 183 326 l 161 325 l 107 325 q 77 363 77 325 l 77 391 l 77 396 z "},".":{"ha":385,"x_min":93,"x_max":292,"o":"m 93 71 l 93 94 q 116 162 93 142 q 184 182 140 182 l 208 182 q 224 180 218 180 q 273 160 256 180 q 290 106 290 140 l 291 104 l 292 100 l 292 86 l 292 76 q 215 -14 292 -14 l 198 -16 l 180 -16 q 144 -12 163 -12 q 109 11 125 -12 q 93 71 93 33 z "},"/":{"ha":595,"x_min":30,"x_max":570,"o":"m 500 1005 l 513 1005 q 570 983 570 1005 l 570 972 q 486 749 570 960 q 321 332 401 539 q 177 -23 240 124 q 98 -100 144 -100 l 87 -100 q 30 -77 30 -100 l 30 -67 q 53 3 30 -56 q 422 928 316 680 q 500 1005 455 1005 z "},":":{"ha":407,"x_min":109,"x_max":309,"o":"m 110 562 l 110 569 l 111 583 l 113 599 q 208 667 113 667 l 216 667 l 242 664 q 309 574 309 664 l 309 563 l 307 540 q 214 469 307 469 l 203 469 l 177 472 q 110 562 110 472 m 109 106 l 111 123 q 136 179 111 161 q 201 197 161 197 l 218 197 q 237 195 228 195 q 308 104 308 195 l 308 94 l 305 70 q 283 19 305 39 q 216 0 260 0 l 195 0 q 111 73 111 0 l 109 93 l 109 103 l 109 106 z "},";":{"ha":410,"x_min":104,"x_max":313,"o":"m 115 570 l 116 587 q 138 641 116 623 q 191 660 159 660 l 208 662 l 228 662 q 244 660 238 660 q 313 568 313 660 l 313 564 q 293 489 313 513 q 216 465 272 465 l 205 465 q 133 488 153 465 q 114 560 114 511 l 114 567 l 115 570 m 104 -153 l 104 -146 q 127 -101 104 -141 q 151 -31 151 -60 q 132 15 151 -25 q 114 94 114 56 q 205 182 114 182 l 221 182 q 290 166 272 182 q 307 108 307 150 l 307 87 q 252 -97 307 -7 q 151 -186 197 -186 l 146 -186 q 104 -153 104 -186 z "},"<":{"ha":736,"x_min":69,"x_max":644,"o":"m 612 771 q 641 709 641 771 q 570 610 641 663 q 399 503 549 593 q 249 408 249 412 q 295 378 249 404 q 454 284 342 353 q 567 216 566 216 q 644 119 644 163 l 644 107 q 608 50 644 50 q 552 72 594 50 q 118 332 325 192 q 69 408 69 366 q 112 479 69 450 q 555 749 332 628 q 612 771 595 771 z "},"=":{"ha":774,"x_min":80,"x_max":684,"o":"m 117 472 q 81 517 81 472 l 81 524 l 81 532 q 96 588 81 581 q 216 595 111 595 l 280 595 l 287 595 l 352 595 l 648 595 q 684 558 684 595 l 684 537 q 663 477 684 482 q 376 473 642 473 l 224 473 l 195 472 l 117 472 m 123 220 q 80 258 80 220 l 80 286 q 109 340 80 336 q 394 343 126 343 l 589 344 l 640 344 q 682 306 682 344 l 682 285 q 652 224 682 229 q 367 221 635 221 l 345 221 l 323 220 l 187 220 l 165 220 l 123 220 z "},">":{"ha":732,"x_min":92,"x_max":661,"o":"m 126 50 q 92 104 92 50 q 159 207 92 158 q 331 314 178 220 q 485 408 485 407 q 419 452 485 413 q 320 512 353 491 q 233 564 288 533 q 154 616 178 595 q 94 720 94 667 q 121 772 94 772 q 607 489 176 772 q 661 411 661 454 q 612 334 661 368 q 182 73 406 195 q 126 50 140 50 z "},"?":{"ha":688,"x_min":73,"x_max":610,"o":"m 315 958 l 342 958 q 534 892 458 958 q 610 724 610 827 l 610 711 q 564 565 610 633 q 472 468 541 530 q 391 391 403 407 q 368 324 379 375 q 355 271 357 273 q 302 256 342 256 q 247 277 262 256 q 232 346 232 298 q 323 528 232 443 q 414 628 391 591 q 438 714 438 665 q 408 791 438 762 q 327 819 378 819 q 213 781 276 819 q 124 742 150 742 q 86 762 99 742 q 73 812 73 783 q 147 914 73 871 q 315 958 222 958 m 399 96 l 399 76 q 378 9 399 35 q 317 -16 356 -16 l 310 -17 l 292 -17 l 270 -14 q 230 2 252 -14 q 208 52 208 18 q 206 65 206 62 l 205 86 l 205 90 l 205 93 q 221 158 205 136 q 277 180 237 180 l 284 182 l 298 182 l 309 182 l 333 180 q 381 158 362 180 q 399 96 399 136 z "},"@":{"ha":1179,"x_min":66,"x_max":1081,"o":"m 687 488 q 618 533 687 533 l 605 533 q 501 470 541 533 q 460 334 460 406 l 460 303 q 462 288 462 294 q 486 221 462 251 q 532 191 510 191 l 540 191 q 631 255 593 191 q 686 454 686 349 l 687 463 l 687 488 m 591 -154 l 551 -154 q 361 -120 453 -154 q 201 -18 269 -85 q 66 348 66 117 q 207 739 66 581 q 370 861 272 812 q 587 909 467 909 l 627 909 q 806 875 722 909 q 1038 671 971 808 q 1081 491 1081 585 q 913 157 1081 250 q 798 126 856 126 q 738 138 779 126 q 680 149 698 149 q 615 136 662 149 q 538 123 568 123 q 423 172 469 123 q 377 317 377 220 q 415 456 377 361 q 486 580 454 551 q 672 628 538 628 q 753 585 728 628 q 781 456 770 557 q 796 338 791 356 q 855 283 814 283 q 907 327 882 283 q 932 439 932 372 q 903 572 932 507 q 829 678 875 637 q 730 740 783 719 q 597 762 677 762 q 444 722 517 762 q 251 491 302 644 q 229 348 229 425 q 260 189 229 271 q 349 54 292 107 q 650 -51 462 -51 q 652 -51 651 -51 q 721 -45 679 -51 l 753 -39 q 808 -32 796 -32 q 848 -63 848 -32 q 772 -120 848 -87 q 591 -154 696 -154 z "},"A":{"ha":930,"x_min":61,"x_max":870,"o":"m 333 412 l 333 404 q 426 390 333 390 l 484 390 q 568 403 568 390 l 568 411 q 473 720 568 471 q 455 754 460 754 q 448 740 454 754 q 434 707 442 725 q 333 412 333 488 m 870 112 l 870 98 q 836 15 870 37 q 759 1 813 1 l 743 1 q 668 34 687 1 q 647 129 659 50 q 607 237 635 208 q 500 267 578 267 q 290 239 321 267 q 245 126 258 212 q 224 31 231 41 q 154 4 207 4 q 81 33 101 4 q 61 108 61 61 q 118 243 61 129 q 220 534 123 253 q 344 870 317 815 q 396 941 371 926 q 471 957 421 957 q 543 933 521 957 q 601 834 566 909 q 697 589 635 760 q 787 332 758 419 q 820 233 815 245 q 870 112 870 118 z "},"B":{"ha":869,"x_min":83,"x_max":809,"o":"m 298 760 l 298 631 q 305 569 298 583 q 340 555 312 555 l 407 555 l 412 556 l 433 557 l 460 559 q 548 598 512 559 q 583 686 583 637 l 583 709 q 547 796 583 760 q 453 832 511 832 q 437 833 442 833 l 410 835 l 368 835 q 309 823 319 835 q 298 760 298 811 m 298 203 q 314 130 298 141 q 399 119 330 119 l 448 119 q 582 161 540 119 q 625 272 625 203 l 625 285 q 623 303 623 297 q 579 395 623 355 q 469 435 534 435 q 451 437 457 437 l 421 438 l 380 438 q 308 424 317 438 q 298 339 298 410 l 298 260 l 298 237 l 298 203 m 409 -5 l 392 -5 l 374 -5 l 340 -5 l 291 -4 q 127 1 153 -4 q 85 41 85 10 q 100 110 85 58 q 115 243 115 162 l 117 326 l 117 693 q 108 804 117 762 l 83 895 q 108 944 83 934 q 205 954 133 954 l 355 957 l 406 958 l 423 958 q 745 812 682 958 q 762 715 762 773 q 740 616 762 657 q 706 564 718 575 q 669 532 694 552 q 645 510 645 511 q 692 479 646 509 q 809 277 809 406 q 409 -5 808 -5 z "},"C":{"ha":883,"x_min":68,"x_max":813,"o":"m 260 498 q 322 224 260 307 q 523 125 395 125 q 665 161 576 125 q 767 196 754 196 q 813 153 813 196 l 813 138 q 784 85 813 117 q 700 28 755 53 q 496 -14 607 -14 l 475 -14 q 307 22 393 -14 q 68 468 68 123 l 68 491 q 98 677 68 585 q 179 828 127 770 q 315 923 230 885 q 473 961 399 961 l 515 961 q 739 918 674 961 q 804 810 804 874 q 788 749 804 768 q 747 730 772 730 q 644 768 723 730 q 538 812 565 806 q 481 819 509 819 q 391 799 434 819 q 260 498 260 736 z "},"D":{"ha":951,"x_min":84,"x_max":882,"o":"m 687 448 l 687 503 q 668 643 687 576 q 618 747 650 709 q 416 834 547 834 l 395 834 l 386 833 q 311 822 326 833 q 296 777 296 810 q 295 734 295 744 l 294 715 l 294 644 l 295 624 l 295 412 l 294 382 l 294 321 l 294 281 l 294 222 l 295 203 q 296 184 296 193 q 312 131 296 142 q 384 119 329 119 l 424 119 q 623 213 551 119 q 668 311 648 245 q 687 448 687 376 m 427 958 q 617 926 528 958 q 850 693 791 867 q 882 500 882 600 l 882 465 q 850 269 882 362 q 610 26 787 85 q 418 -4 522 -4 l 319 -4 l 207 -1 q 111 6 136 -1 q 85 40 85 14 q 100 104 85 66 q 116 179 114 142 q 119 510 119 216 l 119 766 q 100 848 115 805 q 84 913 84 891 q 107 944 84 936 q 199 953 131 953 l 342 958 l 427 958 z "},"E":{"ha":817,"x_min":92,"x_max":742,"o":"m 724 871 q 654 794 724 794 q 569 804 645 795 q 425 814 493 814 q 336 781 357 814 q 316 634 316 749 q 340 576 316 597 q 429 556 364 556 q 489 566 446 556 q 562 576 532 576 q 633 510 633 576 q 626 441 633 462 q 582 408 614 408 q 506 417 549 408 q 410 426 463 426 q 332 404 357 426 q 308 284 308 381 q 333 157 308 186 q 417 127 357 127 q 564 143 476 127 q 676 159 651 159 q 721 144 701 159 q 742 79 742 129 q 695 10 742 28 q 477 -3 662 -3 l 296 -3 q 130 12 168 -3 q 92 73 92 26 q 106 136 92 88 q 120 319 119 183 q 124 557 120 456 l 127 633 q 130 739 130 701 q 115 822 130 778 q 100 890 100 865 q 115 925 100 914 q 174 944 130 936 q 480 952 219 952 l 555 953 l 579 953 q 692 934 661 953 q 724 871 724 915 z "},"F":{"ha":777,"x_min":97,"x_max":723,"o":"m 216 3 l 198 3 q 121 26 144 3 q 97 100 97 50 q 112 163 97 111 q 127 273 127 215 l 129 373 l 129 435 l 131 600 l 131 704 q 116 816 131 754 q 102 896 102 878 q 156 936 102 928 q 566 954 277 954 l 608 954 q 700 939 677 954 q 723 882 723 924 l 723 863 q 705 809 723 824 q 663 793 686 793 q 574 808 639 793 q 440 823 510 823 q 343 799 370 823 q 317 687 317 774 q 334 577 317 600 q 411 555 352 555 l 546 566 q 627 469 627 566 q 608 419 627 433 q 541 405 588 405 l 526 406 q 494 408 510 408 q 355 370 389 408 q 321 187 321 333 l 326 97 q 216 3 326 3 z "},"G":{"ha":938,"x_min":68,"x_max":844,"o":"m 256 474 q 276 332 256 396 q 325 230 297 268 q 408 164 352 193 q 526 136 465 136 q 622 170 587 136 q 657 252 657 203 q 611 347 657 301 q 566 419 566 393 q 575 438 566 429 q 686 463 600 463 q 808 445 772 463 q 844 386 844 428 q 798 65 844 119 q 682 7 769 31 q 496 -16 595 -16 q 180 114 292 -16 q 100 268 131 172 q 68 478 68 365 q 337 932 68 826 q 516 964 415 964 l 543 964 q 728 936 673 964 q 801 879 782 909 q 820 832 820 848 q 801 765 820 783 q 769 747 783 747 q 666 781 755 747 q 515 816 578 816 q 316 720 386 816 q 256 474 256 637 z "},"H":{"ha":983,"x_min":87,"x_max":895,"o":"m 655 855 q 787 949 655 949 q 873 931 852 949 q 895 872 895 913 q 882 815 895 861 q 866 722 869 768 q 863 513 863 676 l 863 403 q 861 250 861 318 q 868 159 861 182 q 892 73 892 82 q 871 17 892 31 q 798 3 849 3 l 772 3 q 683 25 713 3 q 654 97 654 47 q 659 141 654 108 l 667 189 q 675 324 675 249 q 637 417 675 399 q 492 426 617 426 q 334 406 366 426 q 301 272 301 387 q 313 159 301 216 q 325 83 325 102 q 293 21 325 39 q 194 3 261 3 q 109 23 127 3 q 92 69 92 43 q 102 129 92 95 q 121 255 121 189 l 121 327 l 123 439 l 123 598 q 121 746 123 730 q 103 803 119 762 q 87 876 87 844 q 113 925 87 907 q 230 942 138 942 q 321 860 321 942 q 315 805 321 856 q 309 674 309 754 q 343 573 309 593 q 547 553 378 553 q 656 579 635 553 q 677 689 677 606 q 666 785 677 720 q 655 855 655 849 z "},"I":{"ha":477,"x_min":89,"x_max":387,"o":"m 123 18 q 107 27 123 18 q 91 68 91 37 q 116 140 91 100 q 146 225 140 180 q 153 489 153 271 q 148 742 153 707 q 116 817 143 776 q 89 894 89 859 q 126 943 89 930 q 246 956 163 956 l 273 956 q 357 937 330 956 q 384 878 384 918 q 361 814 384 861 q 336 735 339 768 q 332 472 332 702 q 338 201 332 241 q 365 123 344 160 q 387 52 387 86 q 280 -1 387 -1 l 253 -1 q 190 0 226 0 q 123 18 155 0 z "},"J":{"ha":616,"x_min":26,"x_max":526,"o":"m 321 578 q 305 738 321 689 q 273 821 289 786 q 256 886 256 856 q 297 936 256 916 q 406 956 338 956 l 422 956 q 495 934 465 956 q 526 873 526 911 l 526 848 q 520 809 526 838 q 501 683 515 781 q 500 473 500 671 q 488 195 500 277 q 355 -40 463 30 q 199 -88 279 -88 l 183 -88 q 67 -61 109 -88 q 26 8 26 -35 l 26 21 q 58 77 26 54 q 143 100 89 100 l 162 99 q 279 210 243 99 q 321 578 321 340 z "},"K":{"ha":916,"x_min":93,"x_max":856,"o":"m 93 881 q 210 949 93 949 q 293 926 264 949 q 321 876 321 903 q 310 813 321 874 q 300 695 300 752 q 331 569 300 569 q 473 706 361 569 q 560 822 540 789 q 596 889 581 855 q 624 932 611 922 q 711 954 654 954 l 736 954 q 791 944 773 954 q 810 906 810 934 q 668 726 810 890 q 527 524 527 563 q 632 363 527 519 q 796 134 736 208 q 856 35 856 60 q 779 -1 856 -1 l 753 -1 q 644 37 685 -1 q 570 150 625 53 q 460 322 515 247 q 374 397 405 397 q 307 243 307 397 l 322 106 q 286 22 322 55 q 201 1 263 1 q 118 16 140 1 q 96 70 96 30 q 110 134 96 81 q 123 277 123 187 l 123 472 q 122 699 123 665 q 107 803 121 733 q 93 881 93 872 z "},"L":{"ha":769,"x_min":85,"x_max":736,"o":"m 212 956 q 332 873 332 956 q 319 793 332 848 q 303 708 305 739 q 302 452 302 677 q 314 184 302 226 q 356 134 327 143 q 432 128 373 128 q 581 151 491 128 q 690 174 671 174 q 723 163 709 174 q 736 115 736 153 l 736 99 q 720 24 736 43 q 607 -5 694 -5 l 555 -5 l 538 -5 l 452 -5 l 400 -4 q 135 8 174 -4 q 96 69 96 20 q 105 116 96 82 q 118 173 114 150 q 123 245 123 195 l 123 298 l 123 522 l 123 539 l 123 572 l 122 589 l 122 623 l 121 656 q 121 708 121 656 q 103 803 121 743 q 85 877 85 863 q 117 945 85 924 q 195 956 134 956 l 212 956 z "},"M":{"ha":1191,"x_min":100,"x_max":1093,"o":"m 1093 101 q 1069 33 1093 54 q 990 12 1045 12 q 906 56 936 12 q 890 158 890 79 l 892 190 l 894 222 q 897 288 897 264 q 871 623 897 623 q 765 399 859 623 q 657 157 671 176 q 585 116 628 116 q 513 167 541 116 q 406 409 500 189 q 296 629 312 629 q 271 184 271 629 q 254 58 271 79 q 165 23 224 23 q 118 39 136 23 q 100 75 100 55 q 111 135 100 95 q 127 222 121 175 q 132 386 132 270 l 133 421 l 138 528 q 143 703 143 669 q 138 772 143 736 l 122 857 q 219 936 122 936 q 364 851 300 936 q 501 590 416 783 q 604 397 586 397 l 618 417 l 699 595 q 814 841 807 830 q 979 935 876 935 q 1058 908 1036 935 q 1070 867 1070 894 l 1067 842 q 1063 779 1064 815 l 1062 746 l 1063 713 q 1063 641 1063 677 l 1066 351 q 1069 217 1066 244 q 1082 150 1072 191 q 1093 101 1093 109 z "},"N":{"ha":994,"x_min":96,"x_max":911,"o":"m 156 10 q 154 10 155 10 q 97 54 97 10 q 119 151 97 77 q 130 283 130 184 l 131 426 l 131 484 l 132 570 q 129 755 132 724 q 111 832 127 785 q 96 897 96 879 q 110 926 96 915 q 175 937 123 937 q 266 913 226 937 q 347 842 306 890 q 532 592 443 731 q 719 313 710 313 q 732 445 732 313 l 733 500 q 734 621 734 529 q 726 778 734 713 q 719 873 719 843 q 743 924 719 904 q 811 943 767 943 q 875 932 855 943 q 911 853 911 911 l 910 829 q 901 779 909 809 l 895 754 q 882 696 886 719 q 878 394 878 674 q 863 47 878 114 q 820 7 853 7 q 686 67 739 7 q 582 221 657 99 q 484 376 506 343 q 287 638 311 638 q 271 506 271 638 q 275 286 271 373 q 284 162 278 198 q 290 115 290 127 q 156 10 290 10 z "},"O":{"ha":988,"x_min":64,"x_max":916,"o":"m 244 505 l 244 450 q 264 307 244 380 q 490 104 319 104 q 656 186 593 104 q 703 290 683 221 q 722 420 722 359 l 724 441 l 724 496 q 705 633 724 561 q 586 815 671 768 q 493 840 540 840 l 472 840 q 304 746 370 840 q 263 648 282 715 q 244 505 244 582 m 916 507 l 916 460 q 885 264 916 359 q 803 110 854 170 q 669 13 751 51 q 492 -25 587 -25 q 313 9 397 -24 q 64 461 64 111 l 64 492 q 97 697 64 606 q 182 846 130 789 q 312 934 235 902 q 481 966 390 966 l 497 966 q 805 840 688 966 q 883 701 850 791 q 916 507 916 611 z "},"P":{"ha":840,"x_min":94,"x_max":798,"o":"m 307 558 q 318 492 307 506 q 374 478 329 478 l 432 478 q 566 524 520 478 q 612 650 612 570 l 612 663 q 563 793 612 748 q 424 838 514 838 l 395 838 q 331 828 351 838 q 312 793 312 818 q 309 759 309 766 l 308 741 q 308 686 308 713 l 307 668 l 307 607 l 307 589 l 307 558 m 170 1 q 94 58 94 1 q 119 191 94 85 q 129 329 129 235 l 130 345 q 130 377 130 361 l 132 441 l 132 570 q 130 791 132 748 q 119 868 128 833 q 109 922 109 903 q 134 948 109 941 q 256 956 159 956 l 302 957 q 334 958 319 958 l 367 959 l 465 959 q 777 793 709 959 q 798 681 798 741 l 798 664 q 700 441 798 524 q 536 372 640 390 q 376 325 433 355 q 319 256 319 294 q 327 206 319 240 q 334 118 334 172 q 302 33 334 65 q 200 1 271 1 l 170 1 z "},"Q":{"ha":1003,"x_min":58,"x_max":923,"o":"m 499 843 l 477 843 q 376 814 422 843 q 300 734 330 785 q 250 490 250 652 l 250 468 q 273 304 250 376 q 321 198 295 232 q 483 124 379 124 q 577 147 539 124 q 673 252 614 170 q 732 473 732 334 l 732 505 q 713 649 732 581 q 665 758 694 718 q 591 820 635 798 q 499 843 547 843 m 814 -27 q 863 -91 863 -90 q 844 -121 863 -108 q 747 -155 795 -155 l 730 -155 q 528 -90 668 -155 q 186 100 244 42 q 93 260 128 158 q 58 480 58 363 l 58 499 q 88 696 58 602 q 323 947 146 882 q 496 974 397 974 q 812 846 692 974 q 892 708 861 794 q 923 512 923 622 l 923 494 q 812 137 922 289 q 766 62 766 73 q 814 -27 766 35 z "},"R":{"ha":899,"x_min":87,"x_max":835,"o":"m 353 505 l 408 505 l 413 505 l 430 506 l 452 507 q 559 553 518 507 q 601 671 601 598 l 601 677 q 556 791 601 750 q 416 832 511 832 l 393 832 q 310 814 319 832 q 300 724 300 796 l 300 647 l 299 629 l 299 572 q 309 518 299 531 q 353 505 319 505 m 170 -5 q 87 82 87 -5 q 104 151 87 87 q 121 266 121 214 l 121 307 l 121 433 l 122 455 q 122 583 122 455 q 119 786 122 751 q 107 857 115 822 q 99 909 99 892 q 161 946 99 939 q 365 954 222 954 q 577 938 507 954 q 696 882 647 922 q 765 792 745 843 q 785 673 785 742 q 759 556 785 604 q 687 462 733 507 q 641 389 641 417 q 738 207 641 361 q 835 51 835 52 q 813 7 835 17 q 734 -2 791 -2 q 644 30 678 -2 q 555 177 610 62 q 484 313 500 291 q 403 366 443 366 q 337 340 363 366 q 311 271 311 313 q 320 173 311 229 q 330 98 330 117 q 298 18 330 41 q 189 -5 267 -5 l 170 -5 z "},"S":{"ha":796,"x_min":74,"x_max":732,"o":"m 392 -14 q 95 84 163 -14 q 74 140 74 115 l 74 161 q 90 208 74 186 q 123 230 106 230 q 232 176 140 230 q 398 121 324 121 q 512 153 471 121 q 553 243 553 184 q 495 345 553 302 q 336 422 465 368 q 153 530 207 477 q 85 718 85 598 q 107 810 85 762 q 273 945 151 905 q 388 965 333 965 l 412 965 q 672 887 614 965 q 692 821 692 859 q 676 765 692 783 q 647 747 661 747 q 524 804 633 747 q 393 836 461 836 q 293 803 325 836 q 260 716 260 770 q 330 619 260 663 q 475 553 346 608 q 651 453 604 498 q 732 261 732 376 q 646 65 732 144 q 416 -14 559 -14 l 392 -14 z "},"T":{"ha":819,"x_min":33,"x_max":797,"o":"m 671 957 q 772 940 747 957 q 797 873 797 924 l 797 855 q 756 785 797 793 q 751 785 754 785 q 675 800 731 785 q 579 817 610 817 q 530 800 547 817 q 507 742 513 783 q 500 557 500 701 l 500 385 l 499 366 l 499 285 q 501 208 499 222 q 519 148 503 194 q 535 64 535 100 q 432 -1 535 -1 l 376 -1 q 284 75 284 -1 q 301 155 284 101 q 322 249 318 209 q 326 511 326 290 q 317 768 326 733 q 248 817 306 817 q 160 799 218 817 q 84 780 101 780 q 33 848 33 780 q 58 934 33 916 q 176 952 83 952 l 308 955 l 480 957 l 671 957 z "},"U":{"ha":959,"x_min":79,"x_max":879,"o":"m 299 448 q 346 186 299 254 q 501 119 393 119 q 659 212 609 119 q 694 455 694 279 l 695 480 q 696 537 696 506 l 696 606 q 686 798 696 709 q 676 905 676 886 q 771 956 676 956 q 848 933 831 956 q 879 852 879 892 q 865 764 879 812 q 850 692 851 716 l 849 668 l 850 618 l 850 519 q 838 248 850 321 q 667 24 813 92 q 480 -12 586 -12 q 178 119 268 -12 q 129 236 139 176 q 119 478 119 296 q 116 695 119 661 q 96 771 112 730 q 79 837 79 812 l 79 857 q 115 933 79 903 q 200 948 133 948 q 288 928 267 948 q 309 861 309 908 l 307 842 l 304 823 q 297 644 297 764 l 298 572 l 299 548 l 299 448 z "},"V":{"ha":922,"x_min":42,"x_max":878,"o":"m 481 232 q 614 595 501 232 q 671 819 664 751 q 687 909 677 886 q 791 953 707 953 q 860 940 842 953 q 878 891 878 926 q 846 791 878 855 q 798 682 813 728 q 564 50 610 138 q 474 -4 536 -4 l 454 -4 q 367 58 397 -4 q 243 391 347 97 q 109 739 139 684 q 42 870 42 863 l 42 886 q 65 933 42 922 q 145 945 88 945 q 231 929 202 945 q 295 821 279 902 q 393 486 311 739 q 481 232 476 232 z "},"W":{"ha":1309,"x_min":81,"x_max":1224,"o":"m 919 353 q 986 573 930 353 q 1048 804 1042 793 q 1106 878 1073 852 q 1193 905 1140 905 q 1224 867 1224 905 l 1224 846 q 1142 522 1224 842 q 1046 164 1060 201 q 991 93 1031 126 q 905 60 951 60 q 863 85 893 60 q 803 175 833 111 q 728 366 772 240 l 673 526 l 662 550 q 589 368 648 549 q 505 139 529 186 q 399 50 457 50 q 333 81 369 50 q 278 151 296 112 q 171 489 260 191 q 81 836 81 787 l 81 858 q 96 907 81 897 q 144 917 111 917 q 216 889 177 917 q 285 793 255 862 q 320 680 297 766 q 380 467 342 593 q 427 340 418 340 q 498 583 436 340 q 577 856 561 825 q 651 886 593 886 q 728 872 708 886 q 765 825 747 858 q 841 572 783 791 q 919 353 899 353 z "},"X":{"ha":912,"x_min":65,"x_max":856,"o":"m 856 43 q 734 -1 856 -1 l 711 -1 q 614 37 648 -1 q 587 94 601 52 q 547 184 573 136 q 445 341 464 341 q 323 175 414 341 q 292 93 307 143 q 266 31 277 43 q 172 2 241 2 q 84 14 103 2 q 65 54 65 26 q 199 250 65 58 q 332 473 332 443 q 207 705 332 516 q 136 802 157 779 q 69 904 69 877 q 97 939 69 930 q 202 947 125 947 q 313 913 279 947 q 343 851 328 897 q 368 789 359 806 q 468 635 448 635 q 576 779 489 635 q 615 866 601 821 q 641 923 629 911 q 738 951 667 951 q 823 940 808 951 q 838 903 838 929 q 790 826 838 878 q 700 713 743 774 q 578 503 578 536 q 717 257 578 469 q 856 43 856 45 z "},"Y":{"ha":876,"x_min":42,"x_max":839,"o":"m 749 951 l 768 951 q 839 912 839 951 q 799 822 839 878 q 720 692 758 766 q 637 540 682 617 q 562 387 593 463 q 531 217 531 311 q 542 140 531 186 q 553 61 553 93 q 519 7 553 29 q 460 -5 501 -5 l 442 -5 q 345 9 366 -5 q 323 68 323 24 q 342 145 323 77 q 360 281 360 214 q 333 403 360 347 q 217 614 307 459 q 116 783 127 769 q 42 901 42 877 q 70 932 42 924 q 178 944 109 944 q 280 901 248 944 q 307 842 288 891 q 390 667 326 793 q 454 542 454 542 q 578 732 487 542 q 610 832 597 772 q 631 903 623 891 q 749 951 661 951 z "},"Z":{"ha":831,"x_min":61,"x_max":776,"o":"m 444 128 q 610 153 515 128 q 728 177 705 177 q 776 114 776 177 q 736 24 776 50 q 595 -2 697 -2 l 260 -2 q 98 4 119 -2 q 61 57 61 15 q 99 163 61 100 q 310 478 108 178 q 512 803 512 779 q 428 827 512 827 q 246 806 343 827 q 125 785 149 785 q 91 806 100 785 q 81 872 81 827 q 114 937 81 918 q 238 956 146 956 l 503 956 q 713 950 683 956 q 758 905 758 942 q 717 785 758 852 q 616 629 675 716 q 315 160 315 193 q 444 128 315 128 z "},"[":{"ha":513,"x_min":119,"x_max":453,"o":"m 453 997 l 453 982 q 436 942 453 955 q 391 923 419 929 l 361 918 q 333 912 340 915 q 293 862 304 901 q 281 419 281 823 q 290 -18 281 16 q 321 -63 300 -51 q 371 -76 328 -67 q 431 -99 414 -85 q 449 -146 449 -113 q 429 -185 449 -179 q 292 -191 409 -191 l 240 -191 q 137 -169 154 -191 q 119 -67 119 -146 l 120 -50 l 120 19 l 121 53 l 121 173 l 121 191 l 121 328 l 122 362 q 122 661 122 362 q 130 968 122 925 q 154 1022 137 1010 q 214 1034 172 1034 l 387 1034 q 453 997 453 1034 z "},"\\":{"ha":599,"x_min":31,"x_max":565,"o":"m 565 -71 q 502 -99 565 -99 l 490 -99 q 444 -79 458 -99 q 392 29 430 -60 q 61 881 243 376 q 31 976 31 964 q 95 1004 31 1004 q 146 991 130 1004 q 182 928 161 977 q 536 24 203 878 q 565 -71 565 -52 z "},"]":{"ha":517,"x_min":68,"x_max":397,"o":"m 397 897 l 397 862 l 396 845 l 396 587 l 395 569 l 395 414 q 381 -158 395 -125 q 354 -184 373 -178 q 205 -191 336 -191 l 154 -191 q 68 -159 68 -191 l 68 -144 q 141 -78 68 -92 q 229 -12 214 -64 q 239 426 239 26 q 230 860 239 827 q 204 904 220 894 q 150 920 189 914 q 90 939 111 926 q 70 986 70 953 q 86 1026 70 1019 q 170 1034 102 1034 l 238 1034 q 377 1011 357 1034 q 397 897 397 989 z "},"^":{"ha":722,"x_min":83,"x_max":631,"o":"m 631 542 q 563 516 631 516 q 504 548 532 516 q 419 680 477 581 q 356 779 361 779 q 331 742 351 779 q 267 636 310 705 q 211 552 223 567 q 138 513 178 513 l 129 513 q 83 536 83 513 q 104 587 83 547 q 280 884 195 761 q 361 931 313 931 l 370 931 q 434 890 406 931 q 610 593 521 765 q 631 542 631 552 z "},"_":{"ha":734,"x_min":22,"x_max":708,"o":"m 627 -50 q 695 -57 682 -50 q 708 -91 708 -64 l 708 -106 l 707 -114 q 699 -155 707 -145 q 659 -165 690 -165 l 644 -167 l 144 -167 l 120 -168 l 104 -168 q 36 -161 49 -168 q 22 -119 22 -154 l 23 -112 q 32 -62 23 -73 q 71 -52 41 -52 l 86 -51 l 595 -50 l 627 -50 z "},"`":{"ha":465,"x_min":77,"x_max":356,"o":"m 77 950 l 77 958 q 96 981 77 968 q 144 994 115 994 l 156 994 q 243 955 208 994 q 356 783 356 828 l 356 772 q 318 750 356 750 l 303 750 q 208 801 273 750 q 77 950 77 903 z "},"a":{"ha":746,"x_min":48,"x_max":679,"o":"m 362 109 q 431 140 400 109 q 461 200 461 170 q 463 212 463 208 l 464 235 q 464 248 464 241 l 465 263 l 465 275 q 428 319 465 319 l 404 319 l 400 318 l 392 318 q 270 291 314 318 q 226 218 226 263 l 226 201 q 250 137 226 164 q 308 109 274 109 l 328 107 l 343 107 q 362 109 355 109 m 679 57 q 586 0 678 0 q 505 19 540 0 q 442 37 469 37 q 375 13 440 37 q 255 -12 310 -12 q 105 40 163 -12 q 48 176 48 92 l 48 193 q 343 411 48 384 q 418 422 397 416 q 458 482 458 436 q 420 553 458 528 q 361 569 398 569 q 253 538 323 569 q 153 507 182 507 q 107 528 123 507 q 91 577 91 548 q 171 660 91 627 q 345 693 250 693 q 590 600 525 693 q 628 506 619 558 q 636 332 636 454 q 641 183 636 210 q 663 125 646 157 q 679 71 679 94 l 679 57 z "},"b":{"ha":789,"x_min":70,"x_max":729,"o":"m 270 236 q 395 102 270 102 l 401 103 q 510 156 469 103 q 551 311 551 208 l 551 347 q 515 515 551 458 q 412 572 478 572 l 399 572 q 290 517 323 572 q 267 368 267 479 l 267 301 l 267 295 l 269 249 q 270 236 270 242 m 319 664 q 382 675 330 664 q 480 686 434 686 q 572 665 526 686 q 708 493 667 618 q 729 347 729 427 l 729 330 q 641 80 729 174 q 549 17 604 40 q 431 -7 494 -7 l 415 -7 q 327 9 382 -7 q 256 24 271 24 q 222 17 242 24 q 184 9 201 9 q 112 29 130 9 q 93 106 93 50 l 94 121 q 95 151 94 136 l 97 198 q 100 301 100 260 l 100 391 l 100 406 l 100 504 l 101 553 l 101 732 q 95 826 101 800 q 80 880 90 852 q 70 940 70 909 q 93 984 70 972 q 185 996 115 996 l 201 996 q 261 964 244 996 q 279 848 279 931 l 281 772 q 319 664 281 664 z "},"c":{"ha":682,"x_min":58,"x_max":622,"o":"m 386 -13 l 355 -13 q 235 14 297 -13 q 58 326 58 89 l 58 358 q 58 362 58 360 q 83 498 58 435 q 266 673 134 629 q 411 692 326 692 q 557 661 496 692 q 617 577 617 629 q 600 522 617 541 q 554 504 582 504 q 465 533 526 504 q 377 562 403 562 q 268 507 302 562 q 233 343 233 452 q 281 177 233 234 q 416 120 329 120 q 501 135 452 120 q 573 149 550 149 q 622 104 622 149 l 622 92 q 543 22 622 58 q 386 -13 465 -13 z "},"d":{"ha":794,"x_min":64,"x_max":714,"o":"m 229 361 l 229 325 q 268 164 229 222 q 371 106 307 106 l 383 106 q 494 170 456 106 q 514 341 514 203 l 514 348 q 491 524 514 486 q 391 579 458 579 l 372 579 q 266 519 302 579 q 229 361 229 458 m 714 64 q 606 6 714 6 q 553 19 577 6 q 509 31 528 31 q 438 11 490 31 q 339 -10 387 -10 l 323 -10 q 132 78 201 -10 q 64 308 64 166 l 64 325 l 64 342 q 87 472 64 400 q 153 593 110 545 q 380 686 238 686 l 382 686 l 435 683 q 480 706 468 683 q 492 793 492 730 l 478 918 q 510 972 478 951 q 605 993 543 993 q 680 955 668 993 q 692 658 692 917 l 692 276 q 703 130 692 185 q 714 64 714 75 z "},"e":{"ha":726,"x_min":50,"x_max":664,"o":"m 500 447 l 500 451 l 499 455 l 499 463 q 498 474 498 471 q 463 544 498 513 q 386 575 427 575 l 366 575 q 270 531 309 575 q 231 433 231 487 l 231 422 q 258 401 231 401 l 275 399 l 317 399 l 321 400 l 445 407 l 459 408 q 500 447 500 408 m 619 323 q 400 301 563 301 q 237 252 237 301 q 286 151 237 188 q 427 115 336 115 q 517 132 463 115 q 602 150 571 150 q 639 90 639 150 q 557 18 639 52 q 399 -17 475 -17 l 383 -17 q 236 8 300 -17 q 136 73 173 34 q 74 176 98 111 q 50 319 50 240 l 50 335 q 131 587 50 495 q 237 662 174 636 q 372 688 301 688 l 404 688 q 504 669 452 688 q 644 526 605 633 q 664 425 664 472 l 664 410 q 619 323 664 341 z "},"f":{"ha":538,"x_min":66,"x_max":549,"o":"m 342 838 q 332 824 342 838 q 321 770 321 810 q 333 714 321 730 q 389 681 346 698 q 441 659 433 664 q 471 603 471 637 q 421 555 471 569 q 351 507 371 541 q 313 284 313 441 q 331 158 313 229 q 349 78 349 87 q 318 7 349 29 q 222 -15 288 -15 l 192 -15 q 119 24 149 -15 q 107 65 107 39 q 117 122 107 92 q 140 329 140 198 q 131 493 140 459 q 94 559 121 526 q 66 623 66 592 q 111 696 66 654 q 155 794 127 711 q 218 919 182 878 q 302 979 254 959 q 396 998 350 998 l 431 998 q 520 979 490 998 q 549 934 549 960 l 549 920 q 527 878 549 895 q 460 861 505 861 l 446 862 l 416 865 q 342 838 364 865 z "},"g":{"ha":777,"x_min":66,"x_max":681,"o":"m 217 283 q 262 147 217 208 q 355 104 294 104 l 380 104 q 479 143 444 104 q 515 256 515 182 q 516 275 516 268 l 517 307 l 517 340 l 517 347 l 516 366 l 515 392 q 483 504 515 466 q 379 541 451 541 l 372 541 q 256 487 296 541 q 215 338 215 434 l 215 317 q 217 283 217 297 m 614 642 q 681 564 681 642 l 681 548 q 673 450 681 512 q 665 301 665 389 l 665 282 q 664 245 664 264 l 663 171 q 664 98 663 134 l 667 6 q 648 -121 667 -68 q 472 -270 608 -231 q 323 -288 408 -288 q 159 -251 239 -288 q 119 -189 119 -232 q 136 -148 119 -168 q 174 -127 153 -127 q 250 -140 196 -127 q 367 -153 304 -153 q 468 -114 429 -153 q 507 -7 507 -75 q 488 26 507 26 q 446 13 484 26 q 347 1 408 1 q 89 180 146 1 q 66 330 66 250 q 87 477 66 410 q 218 643 126 606 q 323 662 265 662 q 444 644 381 662 q 515 627 507 627 q 554 634 522 627 q 614 642 587 642 z "},"h":{"ha":810,"x_min":83,"x_max":733,"o":"m 298 92 q 195 7 298 7 l 176 7 q 83 68 83 7 l 83 87 q 93 133 83 95 q 105 193 102 171 q 109 289 109 216 l 111 426 l 111 746 q 97 893 111 852 q 84 936 84 935 q 103 976 84 964 q 185 987 121 987 q 270 946 250 987 q 286 827 283 920 q 296 693 289 735 q 326 652 304 652 q 386 670 329 652 q 494 688 442 688 q 652 610 602 688 q 703 349 703 531 q 718 164 703 232 q 733 85 733 96 q 708 25 733 42 q 614 9 683 9 q 526 85 526 9 l 536 180 q 541 330 541 230 q 517 486 541 430 q 427 543 494 543 q 302 472 343 543 q 283 336 283 440 q 283 332 283 334 q 286 203 283 225 q 294 147 289 180 q 298 92 298 114 z "},"i":{"ha":414,"x_min":79,"x_max":340,"o":"m 203 971 l 214 971 q 305 898 305 971 l 305 872 q 303 847 303 862 q 282 811 303 832 q 230 791 262 791 l 210 789 l 191 789 q 132 807 153 789 q 111 855 111 825 q 110 865 110 861 l 109 878 l 110 881 q 110 888 110 884 l 111 901 q 134 951 111 932 q 203 971 157 971 m 166 -2 q 85 61 85 -1 q 98 127 85 91 q 117 193 111 164 q 123 359 123 221 q 118 514 123 497 q 96 562 114 532 q 79 609 79 593 l 79 617 q 100 661 79 650 q 174 671 122 671 l 203 673 l 231 673 q 288 633 280 673 q 291 519 291 621 l 291 374 l 292 345 l 292 297 l 293 269 q 294 237 294 260 q 317 154 294 214 q 340 74 340 94 l 340 66 q 222 -2 340 -2 l 166 -2 z "},"j":{"ha":419,"x_min":-9,"x_max":327,"o":"m 128 858 l 128 872 q 154 940 128 922 q 232 968 194 968 l 256 968 q 308 946 290 968 q 327 884 327 924 l 327 873 q 306 798 327 823 q 235 774 285 774 l 228 772 l 214 772 l 212 773 l 205 773 q 193 775 195 775 l 178 778 q 144 800 159 778 q 128 858 128 821 m 175 -247 q 55 -274 120 -274 q -9 -222 -9 -274 l -9 -211 q 3 -171 -9 -184 q 76 -133 15 -158 q 129 -71 111 -119 q 148 204 148 -24 q 144 460 148 433 q 121 541 140 488 q 102 605 102 593 q 127 655 102 642 q 231 667 152 667 l 243 667 q 301 628 286 667 q 317 486 317 589 l 317 123 q 306 -66 317 -7 q 175 -247 280 -195 z "},"k":{"ha":772,"x_min":78,"x_max":720,"o":"m 174 12 q 105 29 125 12 q 85 90 85 47 q 92 135 85 101 q 105 285 105 199 l 105 454 l 106 524 l 106 719 q 102 831 106 811 q 88 888 98 850 q 78 933 78 926 l 78 952 q 102 983 78 968 q 199 998 126 998 q 267 960 252 998 q 281 741 281 922 q 285 524 281 561 q 319 464 292 464 q 413 545 343 464 q 454 601 430 565 q 503 654 479 637 q 580 671 526 671 q 673 637 673 671 q 578 511 673 603 q 484 377 484 418 q 602 204 484 361 q 720 31 720 47 q 669 4 720 4 l 648 4 q 512 43 551 4 q 467 118 496 58 q 397 232 437 178 q 328 286 357 286 q 304 263 319 286 q 289 182 289 240 l 298 87 q 174 12 298 12 z "},"l":{"ha":431,"x_min":85,"x_max":361,"o":"m 250 -2 l 198 -2 q 118 18 142 -2 q 94 79 94 39 q 100 121 94 90 l 105 142 q 123 263 123 219 l 123 320 l 123 346 l 123 438 l 124 477 l 124 543 q 122 820 124 797 q 102 885 120 842 q 85 938 85 928 l 85 949 q 114 989 85 979 q 211 999 142 999 q 292 948 280 999 q 293 783 293 942 l 292 769 q 292 743 292 756 l 292 703 l 292 638 l 291 612 q 297 248 291 292 q 333 136 304 203 q 361 66 361 69 q 250 -2 361 -2 z "},"m":{"ha":1170,"x_min":80,"x_max":1101,"o":"m 257 30 q 245 19 257 30 q 181 9 233 9 q 105 28 130 9 q 80 79 80 47 l 80 104 q 91 158 80 119 q 103 219 102 197 q 104 369 104 241 q 100 543 104 497 l 96 566 q 90 619 90 604 q 103 650 90 635 q 146 665 116 665 q 222 655 176 665 q 297 645 267 645 q 375 659 328 645 q 466 672 423 672 q 541 660 508 672 q 607 632 574 648 q 653 615 641 615 q 733 649 665 615 q 863 684 802 684 q 971 655 924 684 q 1044 568 1017 626 q 1071 288 1071 511 q 1078 177 1071 208 l 1086 154 l 1094 133 q 1101 79 1101 109 q 1079 29 1101 50 q 1013 7 1057 7 l 988 7 q 903 56 920 7 q 897 256 897 76 q 879 479 897 436 q 832 535 862 522 q 788 543 816 543 q 732 526 760 543 q 691 469 705 510 q 677 253 677 427 q 689 163 677 217 q 700 102 700 110 q 672 26 700 43 q 565 9 644 9 q 486 71 486 9 l 486 97 l 490 121 l 498 169 q 501 324 501 189 q 477 506 501 459 q 395 553 453 553 q 343 536 375 553 q 294 484 312 519 q 275 294 275 448 l 282 108 q 257 30 282 51 z "},"n":{"ha":814,"x_min":77,"x_max":749,"o":"m 254 641 q 271 630 254 641 q 305 618 288 618 q 386 646 322 618 q 506 673 450 673 q 667 597 612 673 q 711 362 711 536 l 712 323 l 713 264 q 721 174 713 203 l 739 130 q 749 81 749 102 q 723 22 749 34 q 641 9 697 9 q 559 27 585 9 q 534 101 534 45 q 538 154 534 106 q 542 260 542 201 q 515 497 542 435 q 413 559 488 559 q 302 493 339 559 q 280 330 280 453 q 286 158 280 207 q 292 75 292 109 q 184 7 292 7 l 166 7 q 97 20 118 7 q 77 68 77 33 l 77 86 q 90 141 77 98 q 106 221 104 183 q 108 383 108 260 q 106 525 108 507 q 95 575 104 544 q 86 626 86 606 q 176 663 86 663 q 254 641 220 663 z "},"o":{"ha":774,"x_min":56,"x_max":713,"o":"m 377 98 l 391 98 q 493 152 454 98 q 532 283 532 206 l 534 297 l 534 318 l 534 362 q 494 517 534 456 q 385 578 453 578 l 365 578 q 262 516 300 578 q 225 342 225 454 q 264 164 225 229 q 377 98 304 98 m 393 -22 l 380 -22 q 136 76 231 -22 q 56 334 56 161 l 56 346 l 56 358 q 80 496 57 431 q 252 672 126 626 q 385 695 315 695 l 397 694 q 635 594 543 694 q 713 359 713 508 l 713 347 q 692 203 713 275 q 522 7 650 65 q 393 -22 456 -22 z "},"p":{"ha":790,"x_min":76,"x_max":731,"o":"m 556 317 l 556 353 q 524 505 556 454 q 414 570 481 570 l 401 570 q 297 518 332 570 q 271 363 271 478 l 271 290 l 271 283 l 273 238 q 274 225 274 231 q 305 137 274 170 q 387 104 336 104 l 406 104 q 515 162 473 104 q 556 317 556 220 m 163 -283 q 76 -224 76 -283 l 76 -210 q 88 -149 76 -195 q 103 -28 100 -102 q 106 168 106 45 l 106 389 l 106 438 q 91 566 106 524 q 76 628 76 608 q 181 668 76 668 q 184 668 183 668 q 228 658 199 668 q 285 648 256 648 q 366 667 314 648 q 465 685 417 685 l 481 685 q 661 599 589 685 q 731 368 731 513 l 731 351 q 708 208 731 281 q 638 86 686 135 q 535 18 590 37 q 408 -1 481 -1 q 304 -22 336 -1 q 290 -56 290 -32 q 299 -123 290 -81 q 308 -198 308 -165 q 274 -257 308 -231 q 195 -283 239 -283 l 163 -283 z "},"q":{"ha":784,"x_min":56,"x_max":712,"o":"m 511 401 l 509 434 q 476 542 509 506 q 387 577 444 577 l 373 577 q 265 516 304 577 q 226 340 226 456 l 226 333 q 263 165 226 224 q 359 107 301 107 l 385 107 q 474 146 441 107 q 507 249 507 184 l 509 268 l 511 294 q 511 308 511 301 l 511 321 q 511 334 511 328 l 512 355 l 512 368 l 511 374 l 511 401 m 56 332 l 56 349 q 134 591 56 498 q 224 661 170 635 q 342 688 278 688 l 374 688 q 463 669 406 688 q 533 650 520 650 q 570 661 546 651 q 627 670 594 670 q 693 574 693 670 l 691 544 l 687 498 q 686 395 686 477 l 686 157 l 685 124 l 685 -6 l 686 -22 q 686 -62 686 -38 q 699 -141 686 -85 q 712 -208 712 -197 q 691 -274 712 -252 q 623 -295 671 -295 l 592 -295 q 480 -197 480 -295 q 490 -141 480 -182 q 500 -60 500 -99 q 485 -8 500 -20 q 422 3 469 3 l 323 -4 q 79 186 144 -4 q 56 332 56 254 z "},"r":{"ha":584,"x_min":76,"x_max":554,"o":"m 163 672 l 187 672 q 286 625 259 671 q 303 610 295 610 q 338 627 312 610 q 392 657 363 643 q 465 671 420 671 q 532 651 510 671 q 554 601 554 631 q 535 544 554 572 q 486 517 516 517 l 402 526 q 353 508 381 526 q 308 452 325 490 q 291 333 291 414 q 309 183 291 252 q 328 77 328 115 q 189 1 328 1 l 176 1 q 81 73 81 1 q 95 135 81 94 q 112 204 109 177 q 115 354 115 231 q 111 504 115 477 q 91 560 106 531 q 76 613 76 589 q 99 655 76 637 q 163 672 122 672 z "},"s":{"ha":651,"x_min":66,"x_max":594,"o":"m 126 363 q 69 500 69 417 q 138 639 69 583 q 323 695 208 695 q 566 596 566 695 q 553 543 566 563 q 519 522 540 522 q 433 550 498 522 q 322 579 368 579 q 254 560 277 579 q 231 519 231 541 q 270 455 231 481 q 388 408 284 446 q 536 331 492 370 q 594 194 594 277 q 538 58 594 111 q 353 -13 463 -13 l 334 -13 q 149 9 210 -13 q 66 92 66 38 l 66 107 q 80 156 66 139 q 105 174 94 174 q 204 139 134 174 q 325 104 275 104 q 401 124 374 104 q 429 181 429 144 q 376 247 429 217 q 263 291 361 255 q 126 363 165 327 z "},"t":{"ha":532,"x_min":47,"x_max":475,"o":"m 168 81 q 131 312 131 144 q 119 524 131 480 q 80 570 113 547 q 47 627 47 592 q 68 675 47 661 q 95 691 73 679 q 122 710 117 703 q 143 775 127 717 q 174 856 158 833 q 220 878 190 878 l 231 878 q 288 854 270 878 q 308 790 298 841 q 336 719 318 739 q 409 684 353 699 q 465 637 465 669 q 448 591 465 604 q 382 568 431 578 q 317 534 332 557 q 302 408 302 511 l 302 394 q 301 361 301 380 l 301 321 q 326 159 301 195 q 394 129 342 137 q 449 120 446 121 q 475 76 475 106 l 475 65 q 438 18 475 37 q 347 -1 401 -1 l 319 -1 q 168 81 217 -1 z "},"u":{"ha":802,"x_min":63,"x_max":726,"o":"m 726 71 q 616 10 726 10 q 548 29 583 10 q 505 47 513 47 l 433 20 q 328 -3 375 -3 l 310 -3 q 205 23 252 -3 q 132 94 157 48 q 96 391 96 159 q 92 515 96 495 q 76 570 89 536 q 63 629 63 605 q 82 665 63 654 q 148 677 101 677 l 166 677 q 253 631 234 677 q 264 410 264 603 q 286 173 264 218 q 382 116 312 116 q 451 134 418 116 q 499 183 484 153 q 524 381 524 231 q 515 512 524 450 q 507 599 507 574 q 625 673 507 673 q 693 629 684 673 q 696 437 696 616 q 705 201 696 259 q 721 118 715 144 q 726 85 726 93 l 726 71 z "},"v":{"ha":737,"x_min":38,"x_max":694,"o":"m 694 619 q 659 522 694 595 q 567 295 623 448 q 481 79 511 141 q 431 6 451 17 q 368 -5 411 -5 q 308 6 326 -5 q 264 65 290 18 q 174 293 239 113 q 73 533 109 473 q 38 627 38 594 q 57 670 38 660 q 125 680 77 680 l 140 680 q 247 635 218 680 q 269 557 260 616 q 300 419 277 498 q 383 195 365 195 q 468 418 397 195 q 505 565 490 486 q 522 646 521 644 q 627 680 539 680 q 681 671 667 680 q 694 631 694 663 l 694 619 z "},"w":{"ha":1067,"x_min":58,"x_max":1000,"o":"m 599 229 q 566 308 599 229 q 530 387 533 387 q 478 252 527 387 q 398 67 429 117 q 327 17 368 17 q 268 38 300 17 q 221 92 236 58 q 159 276 205 125 q 85 496 113 427 q 58 602 58 564 q 73 650 58 639 q 127 662 87 662 q 232 608 199 662 q 286 418 240 595 q 352 242 332 242 q 416 412 372 242 q 438 533 427 454 q 459 627 450 612 q 565 659 478 659 q 669 498 646 659 q 687 401 675 452 q 740 244 724 244 q 826 504 775 244 q 853 612 842 587 q 944 668 877 668 l 965 668 q 1000 623 1000 668 l 1000 604 q 972 491 1000 579 q 904 263 944 402 q 850 94 864 124 q 805 42 836 64 q 750 19 774 19 q 669 64 699 19 q 599 229 665 72 z "},"x":{"ha":739,"x_min":52,"x_max":689,"o":"m 237 20 q 156 -4 215 -4 q 74 3 96 -4 q 52 39 52 11 q 154 184 52 49 q 255 341 255 319 q 154 499 255 363 q 54 642 54 634 q 72 670 54 664 q 194 680 102 680 q 272 654 243 680 l 318 559 q 386 471 361 471 q 456 568 402 471 q 479 618 467 586 q 498 658 492 650 q 570 682 519 682 q 672 648 672 682 q 576 506 672 625 q 481 345 481 388 q 585 186 481 327 q 689 39 689 45 q 671 10 689 18 q 566 -4 639 -4 l 549 -4 q 463 31 488 -4 q 441 80 457 39 q 421 129 425 121 q 355 222 373 222 q 287 128 340 222 q 261 68 275 106 q 237 20 248 31 z "},"y":{"ha":745,"x_min":44,"x_max":695,"o":"m 599 684 q 695 642 695 684 q 589 311 695 623 q 465 -37 484 0 q 225 -274 344 -274 q 130 -246 164 -274 q 119 -226 119 -238 q 151 -164 119 -189 q 208 -146 155 -161 q 319 0 319 -115 q 260 129 319 30 q 171 298 201 228 q 44 617 44 589 q 70 658 44 645 q 160 671 96 671 q 252 625 224 671 q 272 545 265 603 q 298 422 279 486 q 382 218 359 218 q 459 348 415 218 q 510 587 503 477 q 522 646 513 629 q 599 684 543 684 z "},"z":{"ha":678,"x_min":56,"x_max":619,"o":"m 254 0 q 94 1 107 0 q 56 33 56 5 l 56 48 q 214 313 56 93 q 373 545 373 533 q 296 566 373 566 q 192 549 257 566 q 109 533 127 533 q 68 608 68 533 q 87 668 68 649 q 155 686 106 686 l 189 686 l 207 686 l 332 686 l 440 686 l 458 686 l 476 686 q 579 682 562 686 q 608 636 608 675 q 587 563 608 597 q 517 463 566 529 q 297 134 297 166 q 361 116 297 116 q 498 136 426 116 q 577 156 570 156 q 619 84 619 156 q 598 20 619 43 q 519 -3 577 -3 l 502 -3 l 485 -2 l 467 -2 l 361 0 l 254 0 z "},"{":{"ha":529,"x_min":61,"x_max":473,"o":"m 61 417 l 61 433 q 104 484 61 460 q 161 534 148 507 q 175 728 175 562 q 216 956 175 895 q 416 1037 272 1037 q 473 991 473 1037 q 418 924 473 951 q 348 859 363 897 q 333 688 333 821 q 318 520 333 555 q 287 469 303 486 q 255 440 271 452 q 239 425 239 427 q 254 410 239 420 q 319 330 305 373 q 332 172 332 288 l 331 88 q 350 -25 331 7 q 394 -70 369 -57 q 456 -111 444 -96 q 468 -155 468 -125 q 420 -193 468 -193 l 404 -193 q 227 -131 281 -193 q 183 -46 195 -95 q 172 102 172 2 l 174 203 q 160 317 174 289 q 103 365 146 345 q 61 417 61 385 z "},"|":{"ha":423,"x_min":142,"x_max":283,"o":"m 205 1033 l 232 1033 q 274 1018 265 1033 q 283 944 283 1003 l 283 -116 q 275 -179 283 -165 q 220 -193 266 -193 l 207 -193 q 152 -178 161 -193 q 142 -104 142 -163 l 142 957 q 151 1019 142 1006 q 205 1033 159 1033 z "},"}":{"ha":530,"x_min":65,"x_max":471,"o":"m 66 993 q 132 1037 66 1037 q 320 953 265 1037 q 359 697 359 894 q 369 541 359 570 q 415 492 379 513 q 471 431 471 461 q 437 370 471 389 q 371 313 384 342 q 359 118 359 284 q 317 -109 359 -48 q 144 -193 260 -193 q 77 -185 88 -193 q 65 -152 65 -178 q 120 -80 65 -111 q 188 -15 174 -49 q 201 153 201 20 q 217 328 201 286 q 264 396 233 371 q 296 427 296 420 q 279 440 296 428 q 219 512 235 473 q 203 687 203 551 q 188 860 203 823 q 120 925 174 897 q 66 993 66 953 z "},"~":{"ha":745,"x_min":77,"x_max":675,"o":"m 238 578 l 253 578 q 380 536 297 578 q 496 494 464 494 q 576 526 529 494 q 635 557 623 557 q 675 515 675 557 l 675 507 q 628 410 675 458 q 522 363 581 363 l 507 363 q 377 405 461 363 q 259 447 293 447 q 180 414 226 447 q 112 382 134 382 q 77 423 77 382 q 129 532 77 487 q 238 578 180 578 z "},"":{"ha":380,"x_min":0,"x_max":0,"o":""},"":{"ha":465,"x_min":130,"x_max":331,"o":"m 208 804 l 239 804 q 271 802 249 802 q 312 781 294 802 q 331 720 331 759 l 331 711 l 330 708 l 330 702 q 329 694 329 696 q 307 650 329 665 q 250 634 286 634 l 222 634 q 130 723 130 634 l 130 729 l 132 751 q 149 787 132 770 q 208 804 166 804 m 305 -104 q 289 -156 305 -143 q 234 -169 272 -169 l 207 -169 q 167 -156 178 -169 q 157 -109 157 -144 l 157 -37 l 157 -29 q 157 -5 157 -17 l 159 28 q 159 45 159 37 l 161 86 l 161 103 l 167 232 l 168 266 q 171 317 171 301 l 173 350 l 174 367 q 176 408 176 393 l 178 424 q 178 440 178 432 l 180 456 l 180 472 q 220 522 180 522 l 247 522 q 281 460 281 522 l 282 427 l 283 412 q 286 370 286 385 l 287 354 q 288 338 288 346 l 290 304 l 291 287 q 293 244 293 260 l 294 227 l 304 -10 q 304 -26 304 -18 l 305 -66 l 305 -104 z "},"":{"ha":755,"x_min":87,"x_max":661,"o":"m 251 425 l 251 395 l 252 389 l 252 378 q 253 361 253 367 q 286 251 253 308 q 350 195 319 195 l 353 195 q 368 340 368 195 q 368 355 368 347 l 370 391 l 370 401 l 375 469 l 376 474 l 378 505 q 381 540 381 530 l 383 560 l 386 580 q 386 589 386 585 l 387 599 q 376 629 387 629 l 372 629 q 288 571 324 629 q 251 425 251 514 m 87 395 l 87 413 q 155 633 87 547 q 285 724 199 687 q 342 754 327 742 q 386 813 358 766 q 434 860 413 860 q 531 770 468 860 q 603 703 555 736 q 652 629 652 670 q 637 586 652 604 q 608 569 623 569 q 563 580 593 569 q 509 591 533 591 q 477 553 484 591 q 461 353 461 465 q 470 217 461 241 q 513 194 479 194 q 555 203 517 194 q 611 212 594 212 q 661 172 661 212 q 582 95 661 140 q 475 10 502 50 q 387 -64 424 -64 q 350 -20 368 -64 q 326 29 331 23 q 251 74 311 43 q 148 172 192 105 q 87 395 87 263 z "},"":{"ha":794,"x_min":75,"x_max":718,"o":"m 93 20 q 84 29 93 20 q 75 66 75 38 q 105 133 75 94 q 135 169 110 139 q 172 224 161 198 q 182 302 182 250 q 169 377 182 354 q 113 413 163 388 q 79 466 79 431 q 107 527 79 502 q 142 569 135 553 q 161 661 149 585 q 176 750 172 738 q 329 918 211 869 q 461 946 395 946 l 484 946 q 637 912 581 946 q 693 823 693 879 q 679 773 693 791 q 621 754 664 754 q 558 775 611 754 q 477 795 505 795 q 377 761 409 795 q 346 628 346 726 q 373 567 346 585 q 466 537 400 548 q 551 516 532 526 q 571 475 571 506 q 509 416 571 426 q 452 406 460 408 q 385 357 414 395 q 336 197 336 292 q 363 162 336 171 q 446 153 391 153 q 552 160 502 153 q 636 168 602 168 q 694 148 671 168 q 718 86 718 129 q 677 21 718 43 q 528 -2 637 -2 l 460 0 l 391 4 q 300 7 333 7 l 144 2 q 93 20 110 2 z "},"":{"ha":804,"x_min":70,"x_max":727,"o":"m 408 663 l 386 663 q 283 616 331 663 q 236 496 236 568 l 236 473 q 283 357 236 408 q 388 306 330 306 l 410 306 q 515 356 469 306 q 561 473 561 406 l 561 496 q 514 612 561 560 q 408 663 467 663 m 123 381 q 115 404 123 381 q 106 475 106 427 q 123 579 106 524 q 139 635 139 635 q 104 699 139 658 q 70 747 70 740 q 93 789 70 766 q 138 812 115 812 q 183 780 144 812 q 241 747 222 747 q 307 760 260 747 q 396 773 353 773 q 494 759 439 773 q 562 744 550 744 q 613 780 574 744 q 666 815 652 815 q 704 791 680 815 q 727 752 727 767 q 692 697 727 737 q 658 628 658 658 q 666 598 658 623 q 680 549 674 573 q 686 482 686 525 q 668 384 686 439 q 651 317 651 330 q 689 261 651 304 q 726 216 726 218 q 704 174 726 196 q 658 151 682 151 q 610 186 648 151 q 536 221 572 221 q 489 208 531 221 q 398 193 447 194 q 305 206 350 193 q 254 219 260 219 q 199 193 227 219 q 131 144 146 144 q 92 170 115 144 q 70 208 70 195 q 104 260 70 220 q 139 329 139 300 q 123 381 139 336 z "},"":{"ha":847,"x_min":58,"x_max":784,"o":"m 58 876 q 155 933 58 933 q 286 892 253 933 q 313 823 302 872 q 342 734 324 774 q 441 557 419 557 q 536 717 456 557 q 576 824 560 766 q 600 896 591 883 q 718 932 623 932 q 767 919 749 932 q 784 894 784 905 l 784 878 q 701 725 784 855 q 618 538 618 594 q 645 488 618 519 q 672 446 672 458 q 620 388 672 418 q 568 349 568 357 q 608 304 568 323 q 669 256 669 275 q 625 200 669 238 l 610 190 q 559 148 564 159 q 551 95 553 137 q 528 26 549 53 q 431 -1 507 -1 l 406 -1 q 320 25 345 -1 q 296 113 296 51 q 259 177 296 155 q 179 252 179 227 q 230 298 179 274 q 281 347 281 321 q 235 381 281 359 q 189 439 189 403 q 208 477 189 452 q 228 530 228 502 q 143 720 228 582 q 58 876 58 858 z "},"":{"ha":406,"x_min":132,"x_max":274,"o":"m 132 559 l 132 962 q 142 1008 132 999 q 203 1017 153 1017 l 216 1017 q 263 1007 252 1017 q 274 960 274 998 l 274 564 q 263 510 274 519 q 208 501 252 501 l 176 501 q 140 514 148 501 q 132 559 132 526 m 132 -134 l 132 268 q 143 312 132 304 q 186 320 155 320 l 232 320 q 273 273 273 320 l 274 261 l 274 -134 q 263 -183 274 -172 q 212 -193 253 -193 l 174 -193 q 139 -181 147 -193 q 132 -134 132 -168 z "},"":{"ha":731,"x_min":100,"x_max":639,"o":"m 244 452 q 320 366 244 419 q 446 313 395 313 l 456 313 q 494 357 494 313 l 495 365 l 495 376 q 446 463 495 420 q 296 549 349 549 l 290 549 q 258 531 274 549 q 243 478 243 513 l 243 463 q 244 452 244 456 m 590 842 q 540 767 590 767 q 475 799 531 767 q 375 831 419 831 q 308 812 330 831 q 286 768 286 793 q 331 691 286 726 q 443 631 343 682 q 590 532 542 581 q 639 420 639 484 q 617 315 639 356 q 592 276 610 302 q 573 237 573 251 q 590 177 573 222 q 606 87 606 132 q 533 -61 606 -4 q 350 -119 459 -119 q 173 -81 240 -119 q 106 3 106 -43 q 129 71 106 49 q 156 79 137 79 q 210 57 174 79 q 252 31 246 34 q 354 5 304 5 q 422 28 403 5 q 442 85 442 52 q 393 154 442 119 q 295 204 389 157 q 163 288 201 252 q 100 424 100 350 q 145 560 100 498 q 169 598 169 593 q 145 655 169 603 q 121 743 121 708 q 188 891 121 832 q 358 950 254 950 q 517 922 463 950 q 590 842 590 885 z "},"":{"ha":617,"x_min":76,"x_max":537,"o":"m 136 777 q 76 857 76 777 l 76 867 q 133 947 76 947 q 153 951 146 951 l 165 951 l 168 951 l 172 951 l 174 951 q 250 887 250 951 l 252 869 l 252 854 l 250 833 q 232 793 250 808 q 190 778 214 778 q 181 777 184 777 l 166 775 l 154 775 l 151 776 l 145 776 q 136 777 138 777 m 361 876 q 363 900 363 884 q 380 932 363 916 q 420 948 396 948 l 433 950 l 450 951 l 454 951 l 456 951 q 534 893 534 951 q 536 884 536 888 l 537 872 l 537 853 l 536 850 l 536 844 q 535 836 535 839 q 515 792 535 808 q 457 775 496 775 l 439 775 q 364 833 364 775 q 362 842 362 842 l 361 854 l 361 876 z "},"":{"ha":1057,"x_min":60,"x_max":999,"o":"m 514 89 l 539 89 q 677 115 611 90 q 872 317 819 171 q 899 459 899 389 l 899 497 q 899 500 899 498 q 868 643 899 572 q 688 831 810 779 q 545 861 617 861 l 519 861 q 376 831 444 861 q 262 755 307 802 q 189 637 217 708 q 161 490 161 566 l 161 452 q 161 449 161 451 q 190 308 161 381 q 382 114 245 168 q 514 89 446 89 m 544 750 q 719 639 719 750 q 676 598 719 598 q 593 631 656 598 q 523 652 553 652 q 494 646 507 652 q 419 494 419 611 q 551 298 419 298 q 625 318 582 298 q 684 339 667 339 q 723 306 723 339 q 668 236 723 273 q 544 200 614 200 l 519 200 q 351 271 416 200 q 286 474 286 343 q 427 730 286 669 q 519 750 473 750 l 544 750 m 519 -3 q 336 33 422 -3 q 95 276 163 104 q 60 453 60 366 l 60 484 q 91 662 60 576 q 332 913 157 841 q 524 952 425 952 l 539 952 q 709 922 623 952 q 958 687 885 859 q 999 496 999 589 l 999 449 q 962 274 998 363 q 726 35 892 104 q 535 -3 633 -3 l 519 -3 z "},"":{"ha":577,"x_min":50,"x_max":496,"o":"m 229 590 l 231 590 l 233 591 l 241 591 q 300 609 281 591 q 319 640 319 628 l 323 661 l 323 694 q 307 718 323 718 l 295 718 l 293 718 l 264 718 l 260 717 l 256 717 l 239 713 q 213 692 229 713 q 196 652 196 671 l 194 640 l 194 628 l 196 621 q 229 590 196 590 m 314 821 q 253 876 314 876 q 194 855 235 876 q 120 834 153 834 q 79 886 79 834 q 139 945 79 922 q 279 969 199 969 q 433 911 387 969 q 466 724 466 869 q 469 632 466 644 q 484 597 472 621 q 496 555 496 574 l 496 546 q 418 504 496 504 q 352 521 378 504 q 320 538 326 538 q 296 527 315 538 q 256 506 277 515 q 196 497 235 497 q 87 534 123 497 q 50 633 50 570 q 244 778 50 762 q 294 788 275 781 q 314 821 314 795 z "},"":{"ha":787,"x_min":58,"x_max":700,"o":"m 410 637 q 316 495 410 606 q 222 381 222 385 q 317 265 222 377 q 412 127 412 153 l 412 120 q 394 93 412 108 q 362 77 377 77 l 355 77 q 272 131 326 77 q 58 379 58 345 q 268 624 58 414 q 358 682 326 682 l 366 682 q 410 637 410 682 m 517 382 q 553 335 517 374 q 616 260 589 295 q 700 133 700 155 l 700 126 q 681 99 700 114 q 650 84 663 84 l 644 84 q 563 136 612 84 q 355 376 355 356 q 553 612 355 404 q 646 674 611 674 l 653 674 q 699 632 699 674 q 608 491 699 599 q 517 382 517 384 z "},"":{"ha":795,"x_min":68,"x_max":718,"o":"m 718 456 l 718 208 q 667 172 718 172 q 603 191 617 172 q 589 272 589 211 q 552 395 589 383 q 331 398 541 398 q 101 402 121 398 q 68 452 68 409 l 68 463 q 79 522 68 516 q 139 528 90 528 l 656 528 q 704 511 691 528 q 718 456 718 495 z "},"":{"ha":602,"x_min":79,"x_max":522,"o":"m 522 418 l 522 383 q 494 326 522 326 l 484 325 l 473 325 l 461 324 l 363 324 l 352 323 l 272 323 l 260 323 l 197 323 l 186 322 l 140 322 l 123 321 q 79 361 79 321 l 79 401 q 102 458 79 453 q 313 461 117 461 l 456 463 l 484 463 q 522 418 522 463 z "},"":{"ha":999,"x_min":56,"x_max":924,"o":"m 450 598 l 477 598 l 480 599 l 503 601 q 512 602 505 602 q 540 619 519 602 q 562 665 562 636 l 562 688 q 543 731 562 712 q 504 749 524 749 l 492 751 l 487 751 l 478 752 l 450 752 q 421 721 421 752 l 421 626 q 450 598 421 598 m 466 214 l 489 214 q 612 237 549 214 q 795 408 739 283 q 823 536 823 472 l 823 583 q 794 723 823 655 q 722 833 764 791 q 619 902 680 876 q 500 928 558 928 l 464 928 q 334 901 396 928 q 171 724 214 846 q 144 568 144 649 l 145 555 q 239 311 145 410 q 346 239 285 264 q 466 214 406 214 m 463 824 q 661 696 661 824 q 632 600 661 635 q 585 536 585 543 q 635 446 585 530 q 684 357 684 362 q 639 332 684 332 q 576 347 593 332 q 533 420 559 363 q 502 486 507 477 q 455 515 481 515 q 422 458 422 515 q 427 424 422 451 q 431 376 431 397 q 371 331 431 331 l 350 331 q 293 375 293 331 l 293 385 q 302 413 293 392 q 311 486 311 435 l 311 613 l 311 646 l 311 701 q 305 768 311 744 q 299 803 299 793 q 431 823 299 823 l 463 824 m 56 575 q 56 579 56 577 q 88 753 56 672 q 322 987 155 923 q 489 1016 399 1016 q 657 985 578 1016 q 892 750 826 918 q 924 585 924 671 l 924 555 q 893 395 924 472 q 675 165 830 234 q 498 126 589 126 l 469 126 q 300 163 380 126 q 172 252 220 200 q 56 575 56 376 z "},"":{"ha":591,"x_min":68,"x_max":522,"o":"m 113 786 q 68 817 68 786 l 68 850 q 78 892 68 884 q 114 900 88 900 l 488 900 q 522 869 522 900 l 522 836 q 502 789 522 795 q 280 787 492 787 l 191 787 l 169 786 l 113 786 z "},"":{"ha":564,"x_min":77,"x_max":477,"o":"m 179 764 l 180 747 q 210 690 180 715 q 271 665 239 665 l 284 665 q 345 690 316 665 q 374 749 374 715 l 376 756 l 376 781 q 374 797 374 791 q 342 853 374 831 q 277 876 311 876 l 274 876 q 206 848 234 876 q 178 774 178 820 l 178 767 l 179 764 m 271 968 l 285 968 q 421 912 366 968 q 477 783 477 857 l 477 757 q 421 629 477 686 q 290 572 364 572 l 264 572 q 133 628 189 572 q 77 757 77 684 l 77 777 q 134 911 77 854 q 271 968 191 968 z "},"":{"ha":777,"x_min":79,"x_max":694,"o":"m 694 537 l 694 502 q 668 454 694 463 q 559 450 652 450 q 460 437 467 450 q 454 338 454 424 q 445 241 454 253 q 397 229 435 229 l 361 229 q 324 253 331 229 q 320 353 320 267 q 306 446 320 439 q 207 450 299 450 q 102 454 115 450 q 79 491 79 460 l 79 515 q 99 569 79 562 q 209 574 111 574 q 313 582 306 574 q 320 683 320 589 q 330 789 320 777 q 377 800 340 800 l 412 800 q 450 776 443 800 q 453 674 453 764 q 463 579 453 585 q 571 574 473 574 q 682 567 669 574 q 694 537 694 561 m 426 37 l 309 37 q 104 42 124 37 q 83 83 83 46 l 83 106 q 109 162 83 157 q 362 168 134 168 l 436 168 q 670 163 650 168 q 690 128 690 159 l 690 92 q 665 43 690 48 q 426 37 640 37 z "},"":{"ha":577,"x_min":82,"x_max":465,"o":"m 332 460 l 257 460 l 244 460 q 109 464 120 460 q 82 500 82 471 l 82 512 q 182 656 82 559 q 302 781 283 753 q 322 840 322 810 q 262 905 322 905 q 197 876 240 905 q 121 847 154 847 q 89 892 89 847 q 140 971 89 937 q 266 1006 191 1006 l 279 1006 q 411 961 368 1006 q 454 855 454 916 q 416 745 454 793 q 313 642 378 696 q 248 571 248 589 q 283 563 248 563 q 371 571 318 563 q 435 578 424 578 q 465 530 465 578 q 429 468 465 482 q 332 460 408 460 z "},"":{"ha":586,"x_min":85,"x_max":466,"o":"m 130 579 q 190 561 147 579 q 263 543 233 543 q 315 562 294 543 q 336 616 336 580 q 313 670 336 653 q 273 691 290 688 q 237 696 256 694 q 214 701 218 699 q 194 733 194 709 q 251 787 194 758 q 309 864 309 817 q 249 899 309 899 q 195 886 234 899 q 131 873 157 873 q 99 910 99 873 q 150 975 99 947 q 267 1003 200 1003 l 279 1003 q 389 977 355 1003 q 436 881 436 943 q 378 766 436 819 q 369 754 369 758 q 395 735 369 750 q 444 692 421 721 q 466 623 466 663 l 466 610 q 409 491 466 538 q 266 444 351 444 q 124 477 180 444 q 85 539 85 500 q 130 579 85 579 z "},"":{"ha":515,"x_min":129,"x_max":418,"o":"m 181 759 l 169 759 q 129 778 129 759 l 129 785 q 241 962 129 836 q 338 1004 278 1004 l 351 1004 q 363 1002 359 1002 q 418 971 418 1002 l 418 964 q 293 820 418 931 q 181 759 224 759 z "},"":{"ha":821,"x_min":87,"x_max":746,"o":"m 746 109 q 663 6 746 6 q 602 16 625 6 l 587 24 l 572 33 q 541 43 554 43 q 490 31 528 43 q 420 10 452 18 q 332 2 389 2 l 315 3 l 283 5 q 256 -71 256 5 l 257 -113 q 258 -188 258 -155 q 240 -246 258 -221 q 180 -271 221 -271 q 126 -259 140 -271 q 107 -210 113 -246 q 101 186 101 -173 l 102 230 l 102 387 q 94 523 102 476 q 87 605 87 570 q 96 652 87 640 q 176 676 113 676 q 256 640 239 676 q 273 430 273 605 q 273 416 273 423 q 273 402 273 409 q 289 190 273 228 q 385 113 321 113 q 515 183 475 113 q 534 338 534 216 q 530 505 534 460 q 526 561 526 549 q 547 644 526 620 q 625 668 568 668 q 700 615 681 668 q 707 495 707 597 q 733 158 707 247 l 738 141 q 746 109 746 113 z "},"":{"ha":842,"x_min":81,"x_max":744,"o":"m 575 795 q 571 802 575 795 q 532 808 567 808 q 490 789 498 808 q 486 700 486 779 l 485 631 q 484 584 484 608 q 455 20 484 274 q 405 -43 448 -43 q 355 -28 370 -43 q 340 33 340 -12 l 341 56 l 343 79 q 345 145 345 101 q 306 398 345 316 q 234 471 286 439 q 129 557 155 519 q 81 713 81 625 q 168 910 81 837 q 261 957 201 938 q 403 976 322 976 l 454 976 q 704 967 665 976 q 744 917 744 958 q 737 880 744 911 l 732 860 l 730 838 l 726 815 q 710 686 711 727 q 708 463 708 644 l 708 184 q 713 83 708 127 q 718 6 718 38 q 700 -39 718 -26 q 662 -53 683 -53 q 602 16 611 -53 q 591 323 591 101 l 583 722 q 575 795 583 783 z "},"":{"ha":426,"x_min":104,"x_max":315,"o":"m 104 430 l 104 448 q 126 517 104 495 q 180 538 148 538 q 197 541 194 541 l 227 541 q 315 448 315 541 l 315 431 q 294 362 315 384 q 239 340 272 340 q 222 338 226 338 l 197 338 q 127 360 149 338 q 104 430 104 382 z "},"":{"ha":513,"x_min":132,"x_max":391,"o":"m 132 -253 l 132 -243 q 175 -214 132 -214 q 190 -212 184 -212 q 241 -197 224 -212 q 258 -163 258 -182 q 227 -124 258 -144 q 195 -84 195 -104 q 212 -18 195 -41 q 251 5 229 5 l 274 5 q 305 -23 305 5 q 348 -71 305 -35 q 391 -146 391 -106 l 391 -163 q 347 -251 391 -214 q 243 -288 303 -288 l 214 -288 q 132 -253 132 -288 z "},"":{"ha":496,"x_min":88,"x_max":364,"o":"m 237 455 q 133 517 133 455 q 155 577 133 545 q 181 623 177 609 q 186 726 186 637 q 176 827 186 814 q 127 851 167 840 q 88 887 88 863 l 88 893 q 121 935 88 916 q 263 997 224 997 l 279 997 q 314 977 307 997 q 316 811 316 972 q 317 641 316 651 q 341 585 319 631 q 364 511 364 540 q 254 455 364 456 l 237 455 z "},"":{"ha":585,"x_min":53,"x_max":517,"o":"m 194 683 q 219 608 194 641 q 281 576 245 576 l 285 576 q 338 603 315 576 q 362 670 362 630 q 364 687 364 682 l 366 709 l 366 746 q 342 844 366 808 q 279 880 318 880 l 275 880 q 215 844 239 880 q 191 743 191 808 l 191 723 l 192 718 l 192 705 q 194 683 194 684 m 53 715 l 53 741 q 113 905 53 841 q 264 970 174 970 l 297 970 q 445 918 389 970 q 515 756 515 851 l 517 740 l 517 723 l 516 715 q 455 550 516 615 q 295 486 395 486 l 261 486 q 114 547 175 486 q 53 715 53 608 z "},"":{"ha":791,"x_min":95,"x_max":726,"o":"m 193 486 q 95 624 95 602 q 111 661 95 646 q 149 675 127 675 q 222 625 172 675 q 431 379 431 416 q 219 130 431 342 q 141 83 172 83 q 96 124 96 83 q 186 264 96 156 q 277 381 277 372 q 231 440 277 382 l 220 453 q 204 473 210 466 l 193 486 m 431 683 q 510 631 458 683 q 726 377 726 415 q 592 217 726 358 q 433 77 459 77 l 426 77 q 381 119 381 77 q 476 260 381 149 q 570 382 570 371 q 476 498 570 387 q 381 637 381 609 l 381 644 q 431 683 381 683 z "},"":{"ha":1091,"x_min":99,"x_max":1025,"o":"m 724 195 l 767 195 l 770 195 l 775 195 q 833 200 831 195 q 836 255 836 205 l 836 328 l 836 332 l 836 362 l 837 370 l 837 378 l 835 381 q 808 341 831 381 q 750 253 785 302 q 715 199 715 203 q 724 195 715 195 m 223 411 q 161 435 192 411 q 146 467 146 446 q 159 510 146 488 q 182 558 172 532 q 192 668 192 585 q 179 774 192 751 q 133 814 167 798 q 99 852 99 831 q 135 895 99 873 q 273 953 232 953 l 281 953 q 317 928 312 953 q 320 748 320 911 q 322 567 320 585 q 342 517 325 550 q 359 466 359 484 l 359 459 q 289 413 359 413 l 272 412 l 248 411 l 223 411 m 735 864 q 833 936 781 936 q 886 913 886 936 q 864 861 886 898 q 357 37 605 414 q 281 -24 318 -24 l 269 -24 q 213 0 213 -24 q 735 864 213 39 m 896 521 l 924 521 q 960 498 954 521 q 962 381 962 492 q 967 251 962 270 q 988 208 972 231 q 1015 175 1004 185 q 1025 161 1025 165 l 1025 157 q 1014 112 1025 136 q 996 83 1002 88 q 986 74 989 78 q 983 53 983 71 q 927 -31 983 -31 l 899 -31 q 836 -18 848 -31 q 814 52 814 5 q 782 92 814 78 q 699 106 749 106 q 631 118 650 106 q 613 153 613 129 l 613 160 q 829 486 613 220 q 896 521 857 521 z "},"":{"ha":1143,"x_min":91,"x_max":1067,"o":"m 250 409 l 233 409 q 139 474 139 409 q 154 522 139 492 q 177 575 168 551 q 186 678 186 599 q 177 774 186 758 q 129 809 168 791 q 91 853 91 827 l 91 859 q 125 900 91 878 q 258 963 224 963 l 273 963 q 307 934 302 963 q 309 799 309 922 l 309 603 q 330 537 309 586 q 350 467 350 489 l 350 460 q 318 416 350 433 q 250 409 304 409 m 806 957 q 871 930 871 957 q 841 866 871 918 q 550 369 630 511 q 402 121 471 227 q 322 3 333 14 q 262 -24 297 -24 l 250 -24 q 197 3 197 -24 q 227 67 197 14 q 711 880 507 564 q 806 957 760 957 m 972 -19 l 857 -19 l 844 -18 q 708 -14 725 -18 q 683 22 683 -7 l 683 34 q 786 184 683 81 q 905 312 888 287 q 922 371 922 338 q 904 418 922 404 q 863 432 887 432 q 795 403 840 432 q 722 374 751 374 q 688 429 688 374 q 743 504 688 470 q 863 538 798 538 l 890 538 q 1011 493 965 538 q 1058 390 1058 448 q 1030 290 1058 332 q 927 179 1003 249 q 851 98 851 109 q 907 88 851 88 l 1029 99 q 1067 60 1067 99 l 1067 48 q 1046 -2 1067 16 q 972 -19 1025 -19 z "},"":{"ha":1153,"x_min":94,"x_max":1093,"o":"m 787 197 l 816 197 l 819 198 l 846 198 q 905 201 903 198 q 907 256 907 205 l 907 340 l 908 351 l 908 376 l 907 377 q 870 325 905 377 q 809 241 835 272 q 784 200 784 211 l 784 199 q 787 197 784 197 m 262 966 l 302 966 q 400 937 359 966 q 441 859 441 907 q 381 729 441 785 q 372 718 372 721 q 388 708 372 715 q 472 585 472 668 l 472 572 q 416 460 472 508 q 269 412 360 412 l 256 412 q 143 438 191 412 q 94 499 94 464 q 135 543 94 543 q 192 525 151 543 q 267 507 233 507 q 322 526 300 507 q 345 582 345 545 q 321 636 345 618 q 258 661 298 654 q 214 670 218 667 q 199 705 199 680 q 264 757 199 725 q 315 821 315 781 q 254 865 315 865 q 197 852 234 865 q 138 838 160 838 q 106 875 106 838 q 156 939 106 912 q 262 966 205 966 m 821 901 q 907 951 854 951 q 960 927 960 951 q 931 864 960 911 q 420 34 457 90 q 345 -22 382 -22 l 333 -22 q 277 3 277 -22 q 821 901 277 56 m 964 528 l 983 528 q 1027 505 1021 528 q 1029 384 1029 496 q 1039 242 1029 271 q 1070 194 1048 214 q 1093 168 1093 173 l 1093 164 q 1071 100 1093 143 q 1050 53 1050 58 q 1034 -6 1050 12 q 985 -24 1019 -24 l 958 -24 q 903 -12 914 -24 q 883 58 883 12 q 843 100 883 83 q 767 111 819 111 q 696 122 715 111 q 677 159 677 134 l 677 165 q 896 494 677 223 q 964 528 923 528 z "},"":{"ha":705,"x_min":83,"x_max":613,"o":"m 492 715 q 491 697 492 715 q 465 638 491 660 q 403 616 439 616 l 386 616 q 310 645 331 616 q 289 728 289 675 l 289 744 q 291 769 291 754 q 311 801 291 783 q 363 818 331 818 l 381 820 l 403 820 q 420 818 415 818 q 473 795 454 818 q 493 730 493 772 l 493 719 l 492 715 m 395 521 q 439 504 425 521 q 453 436 453 487 q 429 341 453 385 q 356 249 406 297 q 286 168 307 201 q 266 83 266 134 q 295 5 266 33 q 375 -23 325 -23 q 478 8 425 -23 q 559 39 532 39 q 600 18 586 39 q 613 -30 613 -2 l 613 -41 q 535 -132 613 -96 q 344 -169 456 -169 q 158 -109 232 -169 q 83 51 83 -48 q 130 217 83 149 q 205 301 159 260 q 294 387 280 368 q 318 455 307 406 q 331 507 329 505 q 384 521 343 521 l 395 521 z "},"":{"ha":923,"x_min":47,"x_max":864,"o":"m 382 386 l 476 386 q 557 401 557 386 q 529 509 557 403 q 470 682 500 615 q 437 749 439 749 q 376 587 434 749 q 319 403 319 426 q 382 386 319 386 m 260 1219 l 260 1225 q 279 1250 260 1235 q 325 1265 298 1265 l 333 1265 l 337 1264 q 442 1223 397 1264 q 541 1107 488 1183 q 558 1063 558 1082 l 558 1060 q 522 1031 558 1031 l 514 1031 l 510 1031 q 393 1080 463 1031 q 260 1219 260 1173 m 864 118 l 864 104 q 843 29 864 55 q 756 3 823 3 l 738 3 q 655 32 679 3 q 631 130 642 47 q 591 238 620 213 q 435 264 562 264 q 288 250 308 264 q 242 133 258 229 q 224 35 225 38 q 144 3 207 3 q 68 24 81 3 q 47 105 47 56 q 99 240 47 131 q 201 533 115 273 q 319 860 288 793 q 375 940 349 927 q 458 952 400 952 q 537 935 516 952 q 589 860 559 918 q 786 302 620 802 q 834 197 804 250 q 864 118 864 144 z "},"":{"ha":922,"x_min":45,"x_max":862,"o":"m 317 413 l 317 405 q 364 392 317 392 l 458 392 q 555 405 555 392 l 555 412 q 455 722 555 463 q 439 756 441 756 l 437 756 q 375 593 433 756 q 317 413 317 430 m 397 1029 l 386 1029 q 351 1055 351 1029 l 351 1066 q 389 1134 351 1080 q 475 1225 427 1188 q 574 1262 523 1262 l 590 1262 q 629 1249 609 1262 q 649 1223 649 1236 l 649 1216 q 513 1080 649 1175 q 397 1029 441 1029 m 862 120 l 862 106 q 829 21 862 45 q 753 5 808 5 l 736 5 q 646 43 667 5 q 629 134 642 52 q 589 240 617 216 q 429 265 561 265 q 275 239 298 265 q 242 130 253 213 q 224 37 231 47 q 143 5 205 5 q 68 25 81 5 q 45 105 45 58 q 113 273 45 108 q 204 545 116 281 q 321 869 292 808 q 373 942 350 930 q 441 954 396 954 l 478 954 q 548 925 523 954 q 606 824 573 897 q 714 518 640 751 q 812 237 789 284 q 862 120 862 132 z "},"":{"ha":922,"x_min":47,"x_max":864,"o":"m 382 385 l 492 385 q 557 400 557 385 q 529 508 557 402 q 470 681 500 614 q 437 748 439 748 q 376 587 434 748 q 319 402 319 425 q 382 385 319 385 m 673 1063 l 673 1058 q 624 1031 673 1031 q 530 1072 574 1031 q 456 1137 460 1137 q 394 1083 452 1137 q 295 1029 336 1029 l 290 1029 l 284 1030 q 237 1051 237 1030 l 237 1056 q 372 1225 237 1101 q 456 1258 408 1258 l 462 1258 q 540 1227 506 1258 q 673 1063 673 1103 m 864 117 l 864 103 q 843 28 864 54 q 756 3 823 3 l 738 3 q 655 31 679 3 q 631 130 642 47 q 591 238 620 212 q 435 263 562 263 q 288 249 308 263 q 242 133 258 228 q 224 35 225 37 q 144 3 207 3 q 68 23 81 3 q 47 104 47 56 q 99 239 47 130 q 201 532 115 272 q 319 859 288 792 q 375 939 349 926 q 458 951 400 951 q 537 934 516 951 q 589 859 559 917 q 786 302 620 801 q 834 196 804 249 q 864 117 864 143 z "},"":{"ha":926,"x_min":47,"x_max":869,"o":"m 321 414 l 321 406 q 427 392 321 392 l 511 392 q 563 407 563 392 l 563 411 q 505 595 563 431 q 444 758 446 758 q 422 715 441 758 q 321 414 321 479 m 340 1223 l 357 1223 q 466 1193 388 1223 q 563 1162 543 1162 q 613 1186 583 1162 q 673 1210 644 1210 q 705 1166 705 1210 q 668 1082 705 1122 q 583 1041 630 1041 l 559 1041 q 455 1072 524 1041 q 360 1102 387 1102 q 304 1078 333 1102 q 243 1053 275 1053 q 212 1086 212 1053 l 212 1099 q 253 1184 212 1145 q 340 1223 295 1223 m 869 117 l 869 103 q 836 19 869 43 q 744 3 814 3 q 652 43 673 3 q 636 131 649 47 q 595 240 624 216 q 428 264 566 264 l 391 264 l 372 264 q 336 263 354 263 q 272 226 292 263 q 244 115 252 189 q 218 22 235 41 q 148 3 201 3 q 78 15 95 3 q 47 104 47 35 q 109 256 47 108 q 210 552 129 303 q 322 865 292 800 q 377 942 353 930 q 460 955 401 955 q 543 935 519 955 q 596 860 566 916 q 787 319 625 804 q 838 200 807 258 q 869 117 869 143 z "},"":{"ha":921,"x_min":45,"x_max":861,"o":"m 368 392 l 498 392 q 553 404 553 392 l 553 408 q 454 716 553 439 q 435 756 439 756 q 414 713 430 756 q 315 409 315 435 l 315 405 q 368 392 315 392 m 281 1046 q 226 1120 226 1046 l 226 1139 q 290 1215 226 1215 l 308 1217 l 326 1217 l 338 1215 l 353 1213 q 398 1164 398 1213 q 400 1155 400 1156 l 401 1140 l 401 1118 l 399 1097 q 344 1046 399 1046 l 341 1046 l 338 1045 l 313 1043 l 307 1043 l 304 1044 l 295 1044 q 281 1046 282 1046 m 581 1212 l 610 1212 q 625 1210 621 1210 q 680 1137 680 1210 l 680 1118 q 659 1055 680 1072 q 589 1038 639 1038 l 586 1038 l 574 1038 q 559 1040 560 1040 q 505 1110 505 1040 l 505 1135 l 508 1156 q 527 1196 508 1181 q 581 1212 545 1212 m 861 120 l 861 106 q 829 21 861 45 q 753 5 807 5 l 735 5 q 646 43 666 5 q 629 134 642 52 q 588 241 616 216 q 428 265 560 265 q 274 239 296 265 q 241 130 252 212 q 224 37 230 48 q 143 5 206 5 q 67 25 81 5 q 45 105 45 59 q 112 273 45 111 q 206 553 124 302 q 319 867 288 804 q 373 942 350 930 q 455 954 396 954 q 538 935 514 954 q 596 845 562 915 q 708 536 630 774 q 798 268 786 298 q 836 193 810 237 q 861 120 861 149 z "},"":{"ha":943,"x_min":47,"x_max":890,"o":"m 398 1158 q 417 1115 398 1133 q 458 1096 435 1096 l 472 1096 q 515 1116 500 1096 q 531 1150 531 1135 l 532 1159 l 532 1171 l 530 1186 q 514 1214 530 1194 q 466 1233 498 1233 l 463 1233 l 441 1230 q 414 1212 429 1230 q 399 1178 399 1194 l 398 1169 l 398 1158 m 391 404 l 515 404 q 572 417 572 404 l 572 421 q 473 723 572 507 q 450 768 452 768 q 425 718 448 768 q 327 420 327 505 l 327 416 q 391 404 327 404 m 460 1309 l 469 1309 q 575 1270 532 1309 q 618 1171 618 1231 l 618 1161 q 574 1060 618 1100 q 476 1021 530 1021 l 452 1021 q 356 1059 398 1021 q 313 1154 313 1097 l 313 1173 q 357 1269 313 1230 q 460 1309 401 1309 m 890 117 q 850 33 890 59 q 771 18 827 18 l 753 18 q 659 56 680 18 q 646 142 656 61 q 603 254 635 223 q 442 284 570 284 q 287 257 313 284 q 252 146 261 231 q 233 45 243 62 q 157 19 216 19 q 83 33 98 19 q 47 113 47 67 q 77 208 47 158 q 121 296 106 258 q 214 575 136 334 q 321 878 292 817 q 379 954 351 939 q 465 969 407 969 l 484 969 q 565 940 534 969 q 629 839 595 911 q 739 531 663 766 q 835 251 814 296 q 890 117 890 131 z "},"":{"ha":1246,"x_min":92,"x_max":1167,"o":"m 566 479 q 572 557 572 533 l 574 583 q 578 625 578 613 q 580 647 579 637 q 582 682 582 674 l 583 687 l 585 697 l 588 716 q 592 744 592 735 l 594 766 l 594 770 q 587 777 594 777 q 529 730 561 777 q 481 620 496 684 q 424 489 467 555 q 380 418 380 422 q 389 414 380 414 l 426 419 q 526 402 486 402 l 549 401 l 553 400 l 557 400 q 571 435 571 400 l 566 479 m 995 567 q 1080 486 1080 567 q 1035 406 1080 406 l 936 414 q 824 388 852 414 q 795 302 795 362 q 831 168 795 205 q 896 151 848 151 l 1075 165 q 1147 150 1127 165 q 1167 105 1167 136 q 1129 35 1167 56 q 910 14 1090 14 q 652 39 730 14 q 594 114 594 58 l 595 138 q 599 186 599 178 q 571 266 599 248 q 495 285 544 285 q 343 248 386 285 q 267 113 315 223 l 259 91 q 244 55 246 58 q 180 22 226 22 q 113 45 135 22 q 92 106 92 67 q 207 364 92 111 q 412 769 322 616 q 442 825 424 790 q 469 872 460 861 q 566 919 502 911 q 834 926 631 926 l 924 927 l 955 928 l 985 928 q 1113 908 1081 928 q 1144 829 1144 889 q 1099 785 1144 785 q 1006 794 1076 785 q 881 804 936 804 q 805 770 827 804 q 784 642 784 736 q 807 575 784 595 q 894 555 829 555 l 995 567 z "},"":{"ha":916,"x_min":54,"x_max":845,"o":"m 359 -268 l 359 -258 q 397 -239 359 -239 l 417 -237 q 490 -189 490 -237 q 458 -140 490 -161 q 426 -97 426 -120 q 475 -26 426 -26 l 479 -26 q 320 8 399 -22 q 171 107 229 43 q 54 446 54 237 q 54 448 54 447 l 54 473 q 301 932 54 820 q 481 973 391 973 l 505 973 q 646 954 566 973 q 760 918 727 935 q 816 867 793 900 q 839 798 839 833 q 825 742 839 762 q 792 723 812 723 q 655 760 739 723 q 517 809 572 796 q 471 815 493 815 q 417 804 442 815 q 315 702 351 777 q 280 512 280 627 q 295 331 280 397 q 498 136 339 136 q 652 183 565 136 q 804 230 740 230 q 845 181 845 230 q 835 127 845 146 q 753 38 806 71 q 505 -27 648 -27 q 499 -27 502 -27 q 596 -115 536 -34 q 615 -176 615 -140 l 615 -188 q 573 -279 615 -240 q 461 -317 531 -317 l 437 -317 q 374 -302 399 -317 q 359 -268 359 -294 z "},"":{"ha":817,"x_min":85,"x_max":744,"o":"m 233 1214 l 233 1221 q 252 1246 233 1231 q 302 1261 271 1261 l 306 1261 l 310 1260 q 414 1220 368 1260 q 514 1103 460 1180 q 531 1059 531 1078 l 531 1055 q 494 1027 531 1027 l 483 1027 q 369 1074 436 1027 q 233 1214 233 1169 m 671 165 q 744 81 744 165 q 712 15 744 33 q 600 -3 681 -3 l 294 -3 q 124 10 162 -3 q 85 66 85 22 q 100 139 85 82 q 115 267 115 196 l 116 317 l 116 699 q 106 793 116 751 l 100 814 l 94 832 q 85 871 85 859 l 85 890 q 137 936 85 928 q 463 943 188 943 l 514 944 l 642 944 q 711 920 694 944 q 728 858 728 897 q 651 783 728 783 q 538 796 628 783 q 395 810 449 810 q 325 776 342 810 q 307 639 307 743 q 342 570 307 588 q 442 551 376 551 q 498 562 456 551 q 577 572 539 572 q 628 553 615 572 q 642 485 642 534 q 630 416 642 435 q 576 397 619 397 l 553 401 l 531 405 l 509 410 q 408 417 468 417 q 323 385 349 417 q 307 287 307 363 q 325 172 307 210 q 409 134 344 134 q 546 150 452 134 q 671 165 640 165 z "},"":{"ha":817,"x_min":90,"x_max":737,"o":"m 364 1003 l 357 1003 q 320 1038 320 1003 l 320 1049 q 351 1112 320 1065 q 435 1204 382 1160 q 530 1249 488 1249 l 548 1249 q 612 1219 612 1249 l 612 1216 q 450 1040 612 1186 q 364 1003 408 1003 m 724 866 q 649 793 724 793 q 540 806 628 793 q 400 820 452 820 q 332 788 349 820 q 315 685 315 755 q 331 597 315 614 q 446 566 359 566 q 498 576 456 566 q 576 587 539 587 q 627 568 614 587 q 640 501 640 549 q 628 434 640 452 q 574 415 617 415 l 553 418 l 531 422 l 509 427 q 409 434 465 434 q 328 401 353 434 q 313 304 313 380 q 330 193 313 229 q 403 156 348 156 q 545 171 458 156 q 665 185 633 185 q 737 105 737 185 q 705 39 737 57 q 595 22 673 22 l 420 22 q 152 29 196 22 q 90 90 90 39 q 105 161 90 100 q 121 286 121 222 l 121 335 l 121 511 l 122 561 l 122 710 q 107 821 122 762 q 92 897 92 881 q 147 941 92 932 q 463 949 202 949 l 513 950 l 638 950 q 724 866 724 950 z "},"":{"ha":817,"x_min":85,"x_max":744,"o":"m 260 1027 l 249 1027 q 202 1053 202 1027 q 340 1225 202 1098 q 419 1255 372 1255 l 425 1255 q 503 1223 469 1255 q 638 1055 638 1099 q 590 1027 638 1027 q 495 1067 543 1027 q 455 1104 486 1075 q 419 1133 423 1133 q 358 1080 416 1133 q 260 1027 300 1027 m 674 163 q 744 81 744 163 q 712 14 744 32 q 600 -4 680 -4 l 421 -4 q 148 3 193 -4 q 85 66 85 14 q 100 141 85 84 q 115 244 115 197 l 115 317 l 116 342 l 116 648 l 115 699 q 106 793 115 754 l 100 812 l 93 831 q 85 870 85 856 l 85 889 q 135 935 85 926 q 463 943 184 943 l 566 943 l 616 943 q 704 925 680 943 q 728 857 728 907 q 651 782 728 782 l 407 809 q 324 775 342 809 q 307 669 307 741 q 323 581 307 597 q 442 551 353 551 q 496 561 456 551 q 576 571 536 571 q 629 552 616 571 q 642 483 642 533 q 631 415 642 433 q 575 397 620 397 l 553 399 l 509 409 q 408 416 467 416 q 323 383 349 416 q 307 286 307 361 q 325 172 307 210 q 399 134 342 134 q 545 149 456 134 q 674 163 635 163 z "},"":{"ha":817,"x_min":86,"x_max":745,"o":"m 288 1213 q 363 1158 363 1213 l 365 1145 l 366 1127 l 366 1124 l 366 1121 l 366 1112 q 363 1097 363 1098 q 347 1057 363 1071 q 305 1042 330 1042 q 296 1041 300 1041 l 281 1040 l 266 1040 l 262 1040 l 257 1040 q 248 1042 250 1042 l 237 1044 q 194 1093 194 1044 q 192 1101 192 1101 l 191 1116 l 191 1138 l 193 1158 q 209 1195 193 1179 q 248 1210 224 1210 q 260 1212 258 1212 l 275 1213 l 288 1213 m 472 1116 l 472 1135 q 533 1211 472 1211 q 542 1212 538 1212 l 557 1213 l 569 1213 q 629 1197 610 1213 q 648 1139 648 1181 l 648 1115 q 628 1056 648 1072 q 569 1040 608 1040 l 547 1040 l 545 1040 l 538 1040 q 530 1042 533 1042 q 472 1116 472 1042 m 671 167 q 745 84 745 167 q 713 18 745 36 q 601 -1 681 -1 l 321 -1 q 125 12 163 -1 q 87 69 87 24 q 100 137 87 82 q 115 243 114 193 q 117 502 117 294 q 115 741 117 711 q 100 817 114 772 q 86 892 86 862 q 120 934 86 922 q 312 946 153 946 l 642 946 q 730 861 730 946 q 652 785 730 785 q 540 798 629 785 q 397 812 450 812 q 326 778 343 812 q 308 673 308 745 q 325 583 308 601 q 444 554 353 554 q 497 564 458 554 q 576 574 537 574 q 629 555 616 574 q 642 487 642 536 q 631 418 642 437 q 576 400 621 400 q 521 410 574 400 q 409 419 469 419 q 325 387 350 419 q 308 289 308 365 q 326 175 308 214 q 400 137 344 137 q 548 152 456 137 q 671 167 640 167 z "},"":{"ha":474,"x_min":58,"x_max":383,"o":"m 311 994 l 301 994 q 186 1055 253 994 q 58 1207 58 1170 l 58 1211 l 58 1215 q 77 1241 58 1227 q 116 1256 96 1256 l 119 1256 q 220 1209 179 1256 q 340 1031 340 1075 l 340 1019 q 311 994 340 994 m 383 110 l 383 87 q 353 49 383 62 q 236 36 323 36 l 223 36 q 127 48 151 36 q 89 103 89 68 q 110 177 89 138 q 135 244 131 216 q 139 489 139 273 q 135 744 139 705 q 107 822 130 783 q 83 895 83 861 q 113 944 83 929 q 218 958 143 958 l 257 958 q 339 946 317 958 q 378 892 378 925 q 356 819 378 859 q 331 748 335 779 q 326 503 326 716 q 330 252 326 290 q 359 172 334 215 q 383 110 383 128 z "},"":{"ha":477,"x_min":89,"x_max":418,"o":"m 173 1008 l 159 1008 q 130 1032 130 1008 l 130 1036 l 131 1039 q 248 1208 131 1092 q 357 1257 296 1257 l 361 1257 q 400 1244 382 1257 q 418 1220 418 1230 l 418 1212 q 290 1068 418 1183 q 173 1008 223 1008 m 210 24 q 208 24 208 24 q 90 95 90 24 q 111 167 90 127 q 137 244 132 207 q 142 499 142 281 q 138 751 142 717 q 111 819 133 785 q 89 892 89 853 q 197 955 89 955 l 277 955 q 369 926 338 955 q 383 883 383 912 q 362 812 383 853 q 335 733 340 771 q 330 479 330 696 q 333 229 330 262 q 361 161 337 197 q 385 89 385 125 q 349 35 385 52 q 250 24 326 24 l 210 24 z "},"":{"ha":479,"x_min":31,"x_max":446,"o":"m 237 1244 l 248 1244 q 319 1208 286 1244 q 446 1035 446 1072 l 446 1030 q 381 1002 446 1002 q 270 1065 346 1002 q 252 1083 262 1072 q 239 1094 242 1094 q 219 1078 235 1094 q 164 1031 203 1062 q 87 1001 124 1001 l 82 1002 q 31 1031 31 1002 q 159 1209 31 1069 q 237 1244 192 1244 m 199 35 q 94 111 94 35 q 114 173 94 132 q 137 239 134 214 q 140 507 140 264 l 140 728 q 113 817 135 777 q 90 891 90 857 q 126 943 90 925 q 211 955 149 955 l 277 955 q 345 942 323 955 q 382 887 382 919 q 361 811 382 855 q 337 742 340 768 q 334 483 334 715 q 339 225 334 250 q 364 165 343 200 q 385 96 385 130 q 278 35 385 35 l 199 35 z "},"":{"ha":480,"x_min":24,"x_max":461,"o":"m 115 1004 l 92 1004 q 79 1006 86 1006 q 49 1021 71 1006 q 27 1069 27 1037 q 25 1079 25 1078 l 24 1095 l 24 1116 q 45 1184 24 1162 q 98 1206 67 1206 l 117 1206 q 166 1184 148 1206 q 185 1131 185 1162 l 187 1111 l 187 1097 l 184 1072 q 160 1022 184 1039 q 115 1004 136 1004 m 286 1139 q 288 1161 288 1147 q 302 1193 288 1175 q 342 1210 317 1210 l 351 1212 l 366 1213 l 390 1213 q 445 1194 429 1213 q 461 1139 461 1175 l 461 1118 q 441 1057 461 1074 q 379 1040 420 1040 l 363 1040 l 340 1043 q 290 1094 290 1043 l 289 1097 l 288 1103 l 286 1118 l 286 1139 m 220 35 q 102 104 102 35 q 122 177 102 137 q 146 249 142 217 q 151 501 151 281 q 146 754 151 721 q 120 822 142 787 q 99 892 99 857 q 134 945 99 927 q 245 957 157 957 l 258 957 q 352 944 329 957 q 390 890 390 923 q 369 816 390 857 q 344 742 349 774 q 339 489 339 709 q 344 237 339 270 q 371 170 349 205 q 393 98 393 134 l 393 87 q 348 42 393 55 q 260 35 325 35 l 220 35 z "},"":{"ha":966,"x_min":45,"x_max":892,"o":"m 697 427 l 697 490 q 532 801 697 743 q 407 818 485 818 l 385 818 q 318 793 328 818 q 311 673 311 777 q 327 552 311 570 q 434 534 342 534 q 484 476 484 534 q 470 428 484 439 q 402 418 457 418 q 328 397 347 418 q 310 298 310 376 l 310 252 q 320 138 310 155 q 412 122 331 122 q 541 141 493 122 q 678 302 644 182 q 697 427 697 370 m 435 945 q 860 685 764 945 q 892 494 892 600 q 892 490 892 492 l 892 472 q 618 24 892 119 q 431 -3 540 -3 l 274 -3 q 132 5 152 -3 q 113 50 113 14 q 125 99 113 60 q 141 169 137 137 q 145 298 145 200 q 137 405 145 396 q 96 420 129 414 q 60 428 62 427 q 45 478 45 437 q 59 528 45 519 q 101 543 73 537 q 137 560 129 549 q 144 669 144 571 q 138 790 144 768 q 121 847 132 813 q 109 902 109 882 q 125 932 109 923 q 197 941 141 941 l 279 943 l 330 945 l 435 945 z "},"":{"ha":985,"x_min":81,"x_max":896,"o":"m 739 1180 l 739 1168 q 696 1078 739 1116 q 612 1041 652 1041 l 593 1041 q 492 1073 564 1041 q 394 1105 420 1105 q 339 1080 368 1105 q 280 1055 310 1055 q 246 1098 246 1055 q 286 1183 246 1140 q 380 1227 326 1227 l 387 1227 l 393 1226 q 497 1195 427 1226 q 592 1164 567 1164 q 648 1187 618 1164 q 706 1211 678 1211 q 739 1180 739 1211 m 692 859 q 801 938 692 938 q 871 917 847 938 q 896 837 896 895 q 884 769 896 814 q 868 697 871 723 q 864 519 864 671 l 863 404 l 862 375 l 861 232 q 855 41 861 56 q 803 9 844 9 q 667 73 724 9 q 467 369 642 101 q 271 637 292 637 q 262 527 262 637 q 267 363 262 418 q 278 223 271 309 q 286 123 286 138 q 157 2 286 2 q 95 17 108 2 q 82 61 82 33 q 97 133 82 89 q 113 197 112 178 q 115 407 115 216 l 115 699 q 98 827 115 769 q 81 899 81 886 l 89 918 q 159 939 104 939 q 257 920 213 939 q 350 840 300 901 l 366 818 q 444 704 395 777 q 598 473 492 630 q 708 315 705 315 q 716 498 716 315 q 704 766 716 680 q 692 859 692 851 z "},"":{"ha":979,"x_min":55,"x_max":904,"o":"m 248 522 l 248 479 q 266 331 248 401 q 309 222 282 262 q 473 135 369 136 q 491 136 482 135 l 501 136 q 646 215 589 136 q 703 448 703 294 l 703 511 q 685 648 703 579 q 641 757 668 718 q 572 820 614 796 q 480 844 530 844 l 450 844 q 294 747 351 844 q 248 522 248 671 m 281 1222 l 281 1230 q 303 1256 281 1241 q 351 1271 325 1271 l 355 1271 l 359 1270 q 456 1237 418 1270 q 557 1112 494 1204 q 577 1060 577 1084 q 543 1030 577 1030 l 528 1030 q 406 1084 480 1030 q 281 1222 281 1175 m 496 -9 l 464 -9 q 282 28 362 -9 q 153 125 202 65 q 79 280 104 186 q 55 477 55 374 l 55 493 q 163 845 56 717 q 298 938 214 906 q 473 970 381 970 l 490 970 q 674 933 592 970 q 806 834 755 895 q 904 488 904 715 l 904 485 l 903 469 q 669 29 903 132 q 496 -9 583 -9 z "},"":{"ha":979,"x_min":55,"x_max":904,"o":"m 248 513 l 248 460 q 265 328 248 395 q 312 219 282 260 q 477 142 368 142 q 644 227 586 142 q 703 476 703 313 l 703 518 q 583 819 703 748 q 484 846 537 846 l 464 846 q 305 761 362 846 q 248 513 248 676 m 427 1017 l 408 1017 q 376 1043 376 1017 l 376 1050 q 494 1221 376 1103 q 588 1258 532 1258 l 596 1259 l 604 1259 l 608 1259 q 648 1245 627 1259 q 668 1219 668 1232 l 668 1216 q 532 1061 668 1167 q 427 1017 475 1017 m 480 -12 l 464 -12 q 285 25 368 -12 q 156 119 201 61 q 82 266 110 178 q 55 458 55 355 l 55 490 q 84 694 55 604 q 162 842 113 785 q 291 933 211 898 q 457 968 371 968 l 490 968 q 669 932 587 968 q 904 482 903 830 l 903 467 q 873 262 903 357 q 789 109 844 168 q 653 20 734 51 q 480 -12 572 -12 z "},"":{"ha":979,"x_min":56,"x_max":903,"o":"m 246 524 l 246 472 q 266 317 246 382 q 311 215 286 251 q 377 157 336 180 q 469 134 418 134 l 500 134 q 586 158 548 134 q 705 454 705 234 l 705 506 q 583 809 705 729 q 483 838 539 838 l 462 838 q 299 747 361 838 q 246 524 246 669 m 475 1255 l 488 1255 q 555 1230 527 1255 q 651 1123 612 1177 q 689 1056 689 1069 l 689 1051 q 629 1026 689 1026 q 534 1077 589 1026 l 500 1106 q 476 1124 479 1124 q 415 1074 474 1124 q 322 1024 357 1024 l 306 1024 q 259 1051 259 1024 q 300 1121 259 1065 q 396 1225 340 1178 q 475 1255 431 1255 m 903 496 l 903 449 q 877 270 903 363 q 797 115 850 176 q 660 20 743 54 q 481 -14 577 -14 l 465 -14 q 293 20 373 -14 q 87 249 138 83 q 56 456 56 352 l 56 488 l 56 503 q 82 685 56 595 q 158 834 108 774 q 290 929 209 894 q 456 965 372 965 l 489 965 q 666 931 587 965 q 795 841 745 897 q 874 693 845 785 q 903 496 903 602 z "},"":{"ha":984,"x_min":58,"x_max":912,"o":"m 248 513 l 248 492 q 266 339 248 409 q 312 230 284 270 q 386 166 339 189 q 484 142 433 142 l 494 143 l 505 143 q 590 167 548 143 q 713 443 713 236 l 713 445 l 714 465 l 714 518 q 573 825 714 755 q 479 846 531 846 l 469 846 q 306 761 364 846 q 248 513 248 677 m 722 1168 l 722 1156 q 684 1073 722 1114 q 597 1032 646 1032 l 580 1032 q 473 1062 551 1032 q 375 1093 395 1093 q 327 1069 355 1093 q 267 1045 299 1045 q 234 1090 234 1045 q 275 1176 234 1135 q 368 1217 315 1217 l 380 1217 l 386 1216 q 492 1187 417 1216 q 584 1158 567 1158 q 631 1180 602 1158 q 691 1203 661 1203 q 722 1168 722 1203 m 486 -13 l 469 -13 q 293 22 372 -12 q 58 475 58 123 l 59 491 q 298 935 59 837 q 463 968 381 968 l 496 968 q 672 935 593 968 q 805 842 752 901 q 885 688 858 784 q 912 481 912 593 l 911 466 q 883 267 911 359 q 675 25 829 90 q 486 -13 586 -13 z "},"":{"ha":983,"x_min":51,"x_max":905,"o":"m 244 508 l 244 476 q 304 220 244 308 q 475 132 364 132 l 486 132 l 496 132 q 584 159 541 132 q 699 467 699 232 l 699 500 q 681 652 699 583 q 570 819 650 774 q 478 843 528 843 l 458 843 q 301 760 357 843 q 244 508 244 677 m 347 1222 q 425 1161 425 1222 l 427 1143 l 427 1124 q 369 1053 427 1053 q 357 1050 359 1050 l 342 1049 l 326 1049 q 268 1065 288 1049 q 249 1122 249 1081 l 249 1147 l 252 1167 q 269 1204 252 1191 q 316 1220 287 1219 l 334 1222 l 347 1222 m 604 1036 q 538 1057 555 1036 q 520 1126 520 1078 l 521 1129 q 538 1196 521 1176 q 593 1217 555 1217 q 603 1218 599 1218 l 616 1219 l 623 1219 q 697 1160 697 1219 q 699 1150 699 1153 l 700 1138 l 700 1116 l 697 1094 q 681 1055 697 1071 q 639 1038 665 1038 l 616 1036 l 604 1036 m 905 498 l 905 450 q 878 274 905 367 q 799 120 851 180 q 663 24 747 60 q 495 -12 580 -12 l 463 -12 q 292 21 372 -12 q 160 111 212 54 q 80 261 109 168 q 51 459 51 355 l 51 491 q 79 690 51 600 q 157 841 107 781 q 292 935 208 901 q 472 970 377 970 q 795 845 679 970 q 876 696 846 789 q 905 498 905 602 z "},"":{"ha":762,"x_min":102,"x_max":659,"o":"m 184 690 q 289 602 201 690 q 382 513 377 513 q 473 603 387 513 q 578 692 559 692 l 589 692 q 628 666 600 692 q 656 620 656 640 q 567 511 656 600 q 478 411 478 422 q 568 314 478 408 q 659 203 659 220 q 630 160 659 186 q 582 134 602 134 q 472 223 561 134 q 380 312 383 312 q 287 222 376 312 q 172 133 197 133 q 132 159 161 133 q 103 204 103 185 q 193 315 103 222 q 282 414 282 408 q 192 510 282 420 q 102 619 102 600 q 131 664 102 638 q 184 690 159 690 z "},"":{"ha":986,"x_min":66,"x_max":895,"o":"m 252 500 l 252 467 q 287 267 252 340 q 301 255 292 255 q 418 415 326 255 q 598 766 598 726 l 598 772 q 578 802 598 787 q 491 833 538 833 l 459 833 q 308 742 363 833 q 252 500 252 650 m 701 570 l 701 606 q 686 697 701 697 q 655 649 680 697 q 496 375 631 601 q 360 148 360 149 l 360 142 q 360 142 360 142 q 423 103 360 103 q 680 388 617 103 q 701 570 701 486 m 203 -35 l 190 -35 q 128 9 128 -35 q 136 54 128 20 q 144 111 144 87 q 125 180 144 134 q 94 262 106 226 q 66 448 66 347 l 66 484 q 100 688 66 594 q 330 932 167 871 q 517 958 402 958 q 602 951 558 958 q 665 943 646 943 q 717 960 684 943 q 770 976 749 976 q 833 921 833 976 q 825 883 833 912 q 817 835 817 853 q 841 752 817 817 q 868 680 866 688 q 895 494 895 597 l 895 457 q 864 269 895 363 q 628 12 803 77 q 459 -15 558 -15 l 315 -3 q 271 -7 280 -3 q 237 -23 262 -10 q 203 -35 213 -35 z "},"":{"ha":956,"x_min":66,"x_max":873,"o":"m 580 1061 l 580 1050 q 540 1025 580 1025 l 536 1026 l 532 1026 q 412 1078 486 1026 q 283 1217 283 1168 l 283 1221 q 304 1245 283 1232 q 352 1259 325 1259 l 356 1259 q 376 1257 368 1257 q 465 1219 421 1257 q 563 1101 508 1180 q 580 1061 580 1077 m 66 821 q 158 945 66 945 l 181 945 q 282 925 254 945 q 310 858 310 905 q 305 810 309 840 q 286 485 286 686 q 286 477 286 481 q 317 212 286 271 q 399 133 348 153 q 490 119 434 119 q 654 229 610 119 q 679 492 679 289 q 668 772 679 696 q 657 863 657 848 q 680 929 657 913 q 764 945 702 945 q 841 928 826 945 q 873 848 873 893 q 859 753 873 802 q 843 689 845 705 q 841 491 841 673 q 829 239 841 308 q 776 110 818 171 q 475 -18 688 -17 q 167 104 262 -18 q 111 238 122 162 q 99 483 99 313 q 97 681 99 652 q 81 755 96 709 q 66 821 66 802 z "},"":{"ha":956,"x_min":66,"x_max":873,"o":"m 426 1030 l 410 1030 q 378 1054 378 1030 l 378 1065 q 493 1218 378 1103 q 600 1262 537 1262 l 612 1262 q 656 1249 636 1262 q 676 1225 676 1236 l 676 1218 q 543 1081 676 1175 q 426 1030 470 1030 m 321 208 q 484 121 366 121 q 646 211 602 121 q 679 488 679 277 q 668 776 679 700 q 657 884 657 852 q 680 931 657 916 q 764 947 702 947 q 841 931 826 947 q 873 849 873 896 q 860 758 873 803 q 843 693 846 713 q 840 493 840 674 q 830 243 840 313 q 777 113 819 173 q 474 -16 688 -16 q 167 106 260 -16 q 114 229 127 159 q 100 478 100 299 q 98 684 100 656 q 81 758 96 711 q 66 825 66 804 q 101 931 66 899 q 186 948 119 948 q 283 927 254 948 q 312 861 312 906 q 307 815 312 848 q 288 478 288 686 q 321 208 288 271 z "},"":{"ha":956,"x_min":66,"x_max":873,"o":"m 695 1055 l 695 1050 q 646 1027 695 1027 q 553 1067 596 1027 q 479 1132 483 1132 l 405 1069 q 313 1026 353 1026 l 308 1027 l 302 1027 q 260 1051 260 1027 q 279 1091 260 1063 q 397 1223 338 1173 q 477 1253 432 1253 l 482 1253 q 556 1227 528 1253 q 695 1055 695 1099 m 307 817 q 287 475 287 682 q 317 210 287 268 q 392 135 348 152 q 490 118 435 118 q 654 229 611 118 q 679 493 679 291 q 668 771 679 694 q 657 862 657 848 q 680 928 657 912 q 764 944 702 944 q 841 928 826 944 q 873 847 873 892 q 859 753 873 802 q 843 688 845 704 q 841 490 841 673 q 829 238 841 307 q 777 110 818 170 q 475 -18 688 -18 q 474 -18 474 -18 q 167 103 262 -18 q 111 237 122 161 q 99 482 99 313 q 97 678 99 651 q 81 752 96 705 q 66 820 66 799 q 158 945 66 945 l 181 945 q 282 924 254 945 q 310 857 310 904 q 307 817 310 840 z "},"":{"ha":958,"x_min":62,"x_max":873,"o":"m 244 1133 q 246 1156 244 1133 q 323 1214 246 1214 l 345 1214 q 420 1156 420 1214 q 421 1147 421 1150 l 422 1132 l 422 1120 q 361 1044 422 1044 q 352 1042 355 1042 l 336 1041 l 321 1041 l 318 1042 l 312 1042 q 293 1043 305 1043 q 263 1057 280 1043 q 247 1096 247 1071 l 245 1108 l 243 1126 l 243 1129 l 244 1133 m 701 1093 q 647 1044 701 1044 l 635 1042 l 620 1041 l 604 1041 l 591 1042 l 577 1044 q 526 1126 526 1044 l 526 1129 l 526 1132 l 526 1141 q 528 1156 528 1155 q 545 1196 528 1182 q 584 1211 562 1211 l 593 1213 l 608 1214 l 630 1214 l 651 1211 q 687 1196 672 1211 q 703 1154 703 1181 l 705 1135 l 705 1117 q 701 1093 701 1100 m 303 821 q 283 483 283 693 q 314 214 283 272 q 388 138 344 155 q 487 120 431 120 q 587 148 543 120 q 654 233 631 175 q 677 496 677 291 q 667 777 677 702 q 656 885 656 852 q 679 932 656 917 q 764 947 702 947 q 840 931 825 947 q 873 852 873 896 q 859 758 873 808 q 842 689 844 707 q 840 490 840 671 q 829 242 840 310 q 777 113 819 174 q 467 -17 687 -17 q 465 -17 465 -17 q 150 124 243 -17 q 105 246 115 176 q 94 486 94 315 q 93 682 94 656 q 76 755 91 709 q 62 824 62 802 l 62 846 q 95 931 62 898 q 154 948 112 948 l 177 948 q 278 928 250 948 q 307 861 307 907 q 303 821 307 844 z "},"":{"ha":870,"x_min":26,"x_max":833,"o":"m 385 1033 l 370 1033 q 339 1058 339 1033 l 339 1069 q 464 1231 339 1120 q 566 1267 505 1267 l 574 1267 q 619 1253 600 1267 q 637 1228 637 1238 l 637 1225 l 637 1221 q 503 1084 637 1177 q 385 1033 431 1033 m 414 -1 q 303 69 303 -1 q 322 160 303 102 q 341 285 341 218 q 308 421 341 352 q 208 599 303 431 q 92 791 113 766 q 26 909 26 873 q 47 939 26 930 q 136 948 69 948 q 283 897 240 948 q 313 821 299 878 q 345 729 328 764 q 448 538 435 538 q 558 719 473 538 q 592 826 581 766 q 620 904 604 885 q 764 946 654 946 q 833 911 833 946 q 777 806 833 876 q 666 619 751 774 q 566 429 581 464 q 535 262 535 355 q 549 166 535 223 q 562 83 562 110 q 522 7 562 29 q 452 -1 505 -1 l 414 -1 z "},"":{"ha":854,"x_min":92,"x_max":781,"o":"m 583 485 l 583 498 q 541 626 583 579 q 422 672 498 672 l 378 672 q 317 649 332 672 q 310 584 310 637 l 310 387 q 319 330 310 339 q 378 310 339 310 l 416 310 q 541 357 498 310 q 583 485 583 404 m 345 99 q 216 -14 345 -14 l 201 -14 q 117 0 138 -14 q 96 46 96 14 q 111 132 96 78 q 126 248 126 186 l 127 264 l 127 706 q 109 828 127 766 q 92 901 92 890 q 112 942 92 932 q 174 951 133 951 l 205 951 q 297 930 269 951 q 338 865 324 909 q 363 815 351 822 q 503 785 397 796 q 683 718 609 773 q 756 624 731 682 q 781 511 781 566 l 781 476 q 754 359 781 415 q 675 260 728 304 q 516 201 622 217 q 365 165 410 186 q 345 99 345 155 z "},"":{"ha":863,"x_min":82,"x_max":799,"o":"m 178 -5 l 156 -5 q 104 14 120 -5 q 87 50 87 33 q 100 124 87 67 q 112 288 112 182 q 97 492 112 393 q 82 602 82 591 q 123 763 82 612 q 184 879 140 829 q 419 982 275 982 q 638 920 564 982 q 713 761 713 858 q 667 639 713 713 q 621 543 621 565 q 667 454 621 500 q 775 329 752 371 q 799 235 799 287 q 734 66 799 130 q 647 13 697 31 q 565 -5 597 -5 l 538 -5 q 439 14 483 -5 q 395 65 395 34 q 415 112 395 96 q 467 127 435 127 l 488 127 q 534 125 517 125 q 605 161 579 125 q 630 235 630 195 q 518 373 630 307 q 406 515 406 439 q 467 639 406 568 q 529 760 529 711 q 507 812 529 789 q 441 836 485 836 q 366 801 397 836 q 319 711 335 766 q 290 273 290 607 l 292 136 q 258 30 292 65 q 178 -5 224 -5 z "},"":{"ha":749,"x_min":50,"x_max":678,"o":"m 377 337 q 345 334 347 334 q 262 306 299 334 q 225 224 225 278 l 225 212 q 252 151 225 174 q 313 127 279 127 l 337 127 q 436 163 395 127 q 464 239 464 188 l 464 294 q 418 338 464 338 l 406 338 l 401 338 l 393 338 l 385 337 l 377 337 m 183 966 l 183 977 q 202 998 183 984 q 250 1013 221 1013 l 266 1013 q 357 975 319 1013 q 449 846 363 968 q 470 794 470 817 l 470 787 q 424 762 470 762 l 420 763 l 416 763 q 331 808 381 763 q 183 966 183 939 m 431 543 q 418 555 431 543 q 366 568 406 568 q 254 538 326 568 q 155 509 183 509 q 111 530 127 509 q 94 578 94 551 q 170 658 94 626 q 354 690 245 690 l 371 690 q 497 667 438 690 q 629 500 608 624 q 636 335 636 456 q 641 189 636 214 q 662 132 646 165 q 678 66 678 100 q 655 19 678 33 q 585 5 631 5 q 504 23 538 5 q 441 41 470 41 q 373 17 436 41 q 256 -7 309 -7 q 103 50 156 -7 q 50 196 50 106 q 275 404 50 364 q 348 412 287 406 q 427 427 408 418 q 456 478 456 438 q 431 543 456 519 z "},"":{"ha":749,"x_min":45,"x_max":679,"o":"m 306 128 l 329 128 q 417 158 378 128 q 456 219 456 189 l 459 237 l 459 245 l 460 248 l 460 256 l 460 263 l 460 282 l 461 294 q 431 334 461 334 l 404 334 l 401 334 l 381 332 l 361 330 q 262 297 300 330 q 224 223 224 264 l 224 207 q 247 151 224 174 q 306 128 270 128 m 322 767 l 307 767 q 265 792 265 767 l 265 803 q 368 970 265 854 q 465 1014 407 1014 l 477 1014 q 534 995 503 1014 q 548 975 548 987 l 548 968 q 461 854 548 941 q 322 767 374 767 m 679 61 q 679 60 679 61 q 582 4 679 4 q 498 23 534 4 q 438 43 463 43 q 370 18 437 43 q 252 -7 304 -7 l 235 -7 q 98 50 151 -7 q 45 181 45 106 l 45 197 q 275 406 45 368 q 349 414 296 409 q 414 425 401 420 q 454 465 454 438 q 433 541 454 511 q 369 570 411 570 q 255 541 327 570 q 153 511 183 511 q 105 531 122 511 q 87 581 87 550 q 147 654 87 626 q 334 694 235 694 q 589 602 521 694 q 625 518 614 568 q 635 347 635 468 q 639 198 635 227 q 661 134 643 170 q 679 75 679 98 l 679 61 z "},"":{"ha":749,"x_min":48,"x_max":681,"o":"m 313 119 l 329 119 q 419 147 378 119 q 461 212 461 175 q 463 222 463 218 l 465 244 l 465 256 l 465 263 l 465 282 q 421 323 465 323 l 401 323 l 397 322 l 390 322 l 347 319 q 336 317 339 317 q 249 277 290 317 q 224 205 224 252 l 224 201 q 250 141 224 163 q 313 119 276 119 m 528 772 l 517 772 q 405 851 472 772 q 369 889 373 889 q 326 849 366 889 q 261 794 286 809 q 195 779 236 779 q 154 805 154 779 q 282 981 154 842 q 365 1017 316 1017 l 371 1017 l 377 1017 q 445 987 417 1017 q 578 802 578 842 q 528 772 578 772 m 681 58 q 586 2 681 2 q 505 21 538 2 q 441 39 471 39 q 374 15 440 39 q 255 -9 309 -9 l 239 -9 q 105 43 163 -9 q 48 179 48 95 l 48 195 q 341 413 48 390 q 417 423 401 418 q 458 478 458 436 q 432 545 458 520 q 367 570 407 570 q 256 541 328 570 q 155 511 185 511 q 109 531 125 511 q 92 581 92 551 q 151 654 92 625 q 336 694 232 694 q 630 507 599 694 q 639 331 639 453 q 643 186 639 209 q 664 130 648 163 q 681 73 681 97 l 681 58 z "},"":{"ha":749,"x_min":47,"x_max":682,"o":"m 347 130 q 426 158 389 130 q 463 221 463 187 l 464 224 l 465 229 l 465 243 l 465 280 q 422 330 465 330 l 410 330 l 406 329 l 390 329 l 378 328 l 367 328 l 355 328 l 340 326 q 247 286 287 326 q 222 222 222 262 l 222 218 q 244 156 222 182 q 308 131 266 131 l 316 130 l 347 130 m 122 833 l 122 845 q 163 928 122 890 q 258 966 205 966 l 264 966 q 374 936 307 966 q 464 906 441 906 q 517 927 488 906 q 568 948 547 948 q 605 901 605 948 q 566 816 605 854 q 484 777 528 777 l 467 777 q 359 810 433 777 q 264 843 286 843 q 214 821 243 843 q 160 798 184 798 q 122 833 122 798 m 682 59 q 583 2 681 2 q 500 21 536 2 q 440 41 465 41 q 373 16 439 41 q 254 -9 307 -9 q 106 42 165 -9 q 47 195 47 94 q 260 400 47 355 q 341 411 282 405 q 416 422 399 417 q 456 476 456 435 q 431 543 456 517 q 367 568 405 568 q 257 538 328 568 q 154 509 186 509 q 106 529 123 509 q 90 579 90 549 q 149 652 90 625 q 334 692 237 692 l 369 692 q 504 666 447 692 q 590 601 561 640 q 629 509 620 561 q 637 334 637 456 q 643 186 637 211 q 665 128 648 161 q 682 73 682 95 l 682 59 z "},"":{"ha":749,"x_min":50,"x_max":683,"o":"m 306 131 l 329 131 l 351 134 q 429 172 385 134 q 454 224 454 195 l 455 229 l 456 232 l 458 269 l 458 303 q 418 338 458 338 l 414 338 l 410 337 l 364 334 q 340 331 348 331 q 249 289 291 331 q 224 222 224 264 l 224 214 q 247 154 224 176 q 306 131 270 131 m 149 916 q 230 974 149 974 l 242 974 q 318 915 318 974 q 319 906 319 908 l 321 890 l 321 881 q 260 802 321 802 q 252 800 254 800 l 237 799 l 221 799 l 218 800 l 212 800 q 203 801 207 801 q 149 858 149 801 l 146 870 l 146 901 q 149 916 149 914 m 592 863 l 590 840 q 517 783 590 783 l 505 783 q 435 803 458 783 q 412 871 412 822 l 412 895 q 430 942 412 924 q 500 960 448 960 l 510 960 q 538 958 520 958 q 573 941 557 958 q 590 897 590 924 q 591 888 591 892 l 593 873 l 593 867 l 592 863 m 683 63 q 683 62 683 63 q 586 6 683 6 q 504 25 540 6 q 431 44 468 44 q 399 31 427 45 q 246 -5 279 -5 q 243 -5 245 -5 q 108 46 166 -5 q 50 183 50 97 l 50 199 q 133 356 50 300 q 344 415 199 400 q 418 427 402 421 q 458 481 458 439 q 432 547 458 522 q 354 572 407 572 q 258 543 330 572 q 156 513 187 513 q 109 533 125 513 q 92 583 92 553 q 151 656 92 628 q 336 696 237 696 l 370 696 q 605 585 538 696 q 640 309 639 528 q 645 189 640 212 q 666 132 650 165 q 683 77 683 99 l 683 63 z "},"":{"ha":751,"x_min":48,"x_max":684,"o":"m 430 931 l 429 948 q 412 972 429 956 q 382 988 396 988 l 372 990 l 353 990 q 339 988 347 988 q 314 971 331 988 q 297 932 297 954 l 297 912 l 300 899 q 316 873 300 889 q 349 857 332 857 l 358 855 l 372 855 l 374 856 l 378 856 l 387 858 q 411 871 394 858 q 428 902 428 885 q 429 908 429 906 l 431 920 l 431 928 l 430 931 m 313 130 l 329 130 q 418 158 376 130 q 460 222 460 186 l 460 226 l 461 230 l 463 267 l 463 300 q 429 332 463 332 l 410 332 l 406 331 l 372 328 q 352 326 359 326 q 260 293 293 326 q 227 222 227 260 l 227 210 q 251 151 227 172 q 313 130 276 130 m 357 1065 l 378 1065 q 479 1022 437 1065 q 522 921 522 980 l 522 911 q 485 813 522 859 q 382 768 448 768 l 361 768 q 259 808 308 768 q 210 918 210 848 l 210 928 l 210 932 q 254 1025 210 986 q 357 1065 298 1065 m 684 67 q 684 66 684 67 q 585 11 684 11 q 502 30 536 11 q 431 50 469 50 q 398 36 428 50 q 336 11 369 22 q 256 -1 303 -1 q 107 50 166 -1 q 48 187 48 100 l 48 203 q 132 360 48 303 q 278 412 186 396 q 350 420 292 414 q 433 438 409 427 q 458 489 458 449 q 431 553 458 529 q 353 576 405 576 q 257 547 330 576 q 154 517 184 517 q 107 536 124 517 q 90 588 90 556 q 151 661 90 631 q 336 701 233 701 l 370 701 q 374 701 372 701 q 499 678 441 701 q 632 509 611 635 q 640 339 640 461 q 645 194 640 216 q 667 137 650 172 q 684 81 684 103 l 684 67 z "},"":{"ha":1109,"x_min":47,"x_max":1038,"o":"m 229 199 q 254 140 229 162 q 317 119 279 119 l 328 119 q 424 149 389 119 q 458 222 458 178 l 458 275 q 415 323 458 323 l 393 323 l 389 323 l 381 323 l 355 320 q 348 319 351 319 q 265 289 300 319 q 230 227 230 258 l 229 219 l 229 199 m 827 399 q 861 433 861 399 l 861 444 q 831 532 861 497 q 766 566 801 566 l 758 568 l 730 568 q 715 566 720 566 q 649 528 681 566 q 616 444 616 490 q 614 425 614 430 l 614 421 q 669 392 614 392 l 699 392 l 703 393 l 810 397 q 827 399 820 399 m 779 -15 l 755 -15 q 560 43 657 -15 q 508 68 519 68 q 460 45 496 68 q 381 4 425 22 q 252 -14 338 -14 q 106 37 165 -14 q 47 174 47 88 l 47 198 q 130 349 47 293 q 236 394 180 382 q 340 411 292 405 q 408 424 389 416 q 441 462 441 436 q 413 539 441 512 q 339 566 386 566 q 234 537 292 566 q 152 509 177 509 q 107 525 126 509 q 87 572 87 541 q 146 650 87 619 q 351 690 225 690 q 477 664 410 690 q 551 638 543 638 q 626 666 559 638 q 745 694 692 694 l 769 694 q 770 694 769 694 q 1017 529 958 694 q 1038 415 1038 472 l 1038 392 q 1005 326 1038 340 q 827 306 972 312 q 668 296 681 299 q 629 239 629 285 q 675 155 629 193 q 802 118 720 118 q 894 135 833 118 q 970 153 956 153 q 1012 105 1012 153 q 958 28 1012 58 q 779 -15 878 -15 z "},"":{"ha":725,"x_min":52,"x_max":661,"o":"m 371 -312 l 342 -312 q 266 -264 266 -312 l 266 -259 q 307 -235 266 -235 q 391 -184 391 -235 q 359 -138 391 -158 q 328 -87 328 -119 q 347 -36 328 -56 q 357 -30 350 -32 q 244 -3 304 -27 q 136 71 178 24 q 73 191 94 117 q 52 347 52 265 l 52 381 q 79 510 52 442 q 146 617 104 578 q 393 706 241 706 l 395 706 l 412 706 q 598 667 530 706 q 647 623 635 646 q 659 565 659 600 q 643 514 659 530 q 585 498 627 498 q 474 533 544 498 q 385 568 404 568 q 287 514 318 568 q 255 342 255 460 q 418 123 255 123 q 495 143 433 123 q 620 164 557 164 q 661 130 661 164 l 661 116 q 574 4 661 48 q 404 -31 507 -30 q 488 -102 431 -45 q 515 -173 515 -130 l 515 -178 l 515 -184 q 474 -275 515 -238 q 371 -312 434 -312 z "},"":{"ha":739,"x_min":53,"x_max":675,"o":"m 236 446 l 236 437 q 311 408 236 408 l 315 408 l 319 409 l 380 410 q 506 439 506 410 l 506 460 q 473 549 506 511 q 387 587 440 587 l 366 587 q 275 548 313 587 q 236 446 236 509 m 193 972 l 193 982 q 214 1004 193 990 q 264 1017 234 1017 l 269 1017 l 273 1017 q 368 977 333 1017 q 477 804 477 854 l 477 798 q 436 774 477 774 l 425 774 q 325 825 382 774 q 193 972 193 944 m 406 -10 l 374 -10 q 248 12 313 -10 q 78 175 123 54 q 53 311 53 243 l 53 359 q 77 502 53 435 q 241 672 121 625 q 380 695 300 695 l 396 695 q 514 674 460 695 q 656 529 618 634 q 675 427 675 474 l 675 412 q 638 323 675 338 q 460 308 601 308 q 294 303 320 308 q 242 264 242 294 q 297 155 242 199 q 433 123 337 123 q 525 139 470 123 q 612 155 579 155 q 650 108 650 155 q 584 30 650 61 q 406 -10 500 -10 z "},"":{"ha":739,"x_min":55,"x_max":672,"o":"m 397 406 l 428 406 q 485 415 468 406 q 502 450 502 423 l 502 473 q 466 557 502 526 q 385 589 430 589 l 368 589 q 270 543 305 589 q 235 452 235 498 l 233 444 l 233 431 q 275 402 233 402 l 295 400 l 320 400 l 324 401 l 370 403 q 397 406 389 406 m 333 774 l 317 774 q 279 800 279 774 l 280 804 l 280 807 q 391 978 280 854 q 487 1017 426 1017 l 495 1017 q 564 981 564 1017 l 564 977 q 436 829 564 944 q 333 774 375 774 m 600 160 q 646 113 646 160 q 567 31 646 65 q 402 -3 487 -3 q 80 180 146 -3 q 55 329 55 248 l 55 345 q 242 670 55 596 q 378 693 301 693 l 395 693 q 508 674 457 693 q 647 545 609 637 q 672 429 672 484 l 672 414 q 634 327 672 343 q 454 311 595 311 q 280 302 313 311 q 247 266 247 292 q 302 159 247 201 q 435 129 342 129 q 525 144 472 129 q 600 160 578 160 z "},"":{"ha":738,"x_min":50,"x_max":678,"o":"m 282 408 l 399 408 l 404 409 l 469 411 q 476 412 472 412 q 508 441 508 412 l 508 449 q 507 461 507 457 q 469 547 507 515 q 386 580 432 580 l 369 580 q 278 542 316 580 q 239 450 239 503 l 238 443 l 238 431 q 282 408 238 408 m 587 808 l 587 804 q 532 779 587 779 l 527 779 q 448 823 492 779 l 377 894 q 345 865 372 894 q 307 826 318 836 q 218 779 256 779 l 212 779 q 165 805 165 779 q 293 982 165 843 q 375 1019 327 1019 l 381 1019 q 454 990 426 1019 q 587 808 587 857 m 408 -16 l 375 -16 q 233 12 300 -15 q 130 81 168 39 q 50 324 50 170 l 50 357 q 73 496 50 433 q 227 667 115 616 q 363 696 292 696 l 396 696 q 513 675 457 696 q 659 529 620 636 q 678 425 678 474 l 678 410 q 641 320 678 336 q 453 304 603 304 q 279 298 304 304 q 239 261 239 287 q 296 151 239 193 q 434 119 338 119 q 527 135 467 119 q 615 151 587 151 q 653 90 653 151 q 574 19 653 54 q 408 -16 496 -16 z "},"":{"ha":738,"x_min":51,"x_max":678,"o":"m 285 414 l 382 414 q 505 444 505 414 l 505 455 q 472 548 505 510 q 376 587 438 587 l 372 586 q 276 547 315 586 q 237 445 237 508 l 237 438 q 285 414 237 414 m 152 871 l 152 890 q 212 966 152 966 q 221 967 218 967 l 235 968 l 248 968 l 260 967 l 274 965 q 326 888 326 965 l 326 873 q 266 797 326 797 q 258 795 260 795 l 243 794 l 231 794 l 218 795 l 204 798 q 152 871 152 798 m 503 961 l 522 961 q 597 908 597 961 l 599 897 l 600 882 l 600 867 q 544 795 600 795 l 541 794 l 535 793 l 519 791 l 498 791 q 468 795 481 795 q 439 809 456 795 q 422 867 422 823 l 422 882 l 425 905 q 503 961 425 961 m 653 91 q 574 20 653 54 q 410 -15 495 -15 q 82 158 158 -15 q 51 309 51 229 l 51 358 q 227 668 51 589 q 363 697 292 697 l 397 697 q 605 619 527 697 q 659 530 639 585 q 678 427 678 475 l 678 412 q 640 321 678 336 q 453 306 602 306 q 279 299 304 306 q 240 262 240 288 q 296 153 240 196 q 402 120 338 120 q 526 136 465 120 q 616 152 587 152 q 653 91 653 152 z "},"":{"ha":429,"x_min":41,"x_max":349,"o":"m 41 957 l 41 972 q 90 1002 41 1002 l 100 1002 q 193 954 156 1002 q 299 755 299 818 l 299 751 q 262 730 299 730 l 258 730 q 162 793 218 730 q 41 957 41 930 m 224 43 l 195 43 q 112 58 135 43 q 89 106 89 72 q 101 172 89 140 q 119 229 113 204 q 124 380 124 254 q 124 406 124 394 q 119 530 124 509 q 95 589 114 555 q 76 642 76 623 l 76 650 q 96 688 76 678 q 178 697 116 697 l 197 699 l 235 699 q 293 672 283 699 q 303 488 303 644 q 308 293 303 332 q 331 195 313 253 q 349 117 349 137 l 349 109 q 312 53 349 73 q 224 43 294 43 z "},"":{"ha":429,"x_min":83,"x_max":390,"o":"m 163 755 l 152 755 q 115 774 115 755 l 115 785 q 228 970 115 842 q 323 1013 267 1013 l 328 1013 q 390 977 390 1013 l 390 973 q 277 829 390 943 q 163 755 203 755 m 168 16 q 87 84 87 16 q 103 148 87 111 q 124 214 118 185 q 130 371 130 243 q 126 519 130 499 q 102 574 122 540 q 83 627 83 608 l 83 635 q 112 679 83 669 q 229 688 140 688 l 248 688 q 302 652 296 688 q 307 449 307 622 q 310 249 307 275 q 330 166 313 223 q 347 94 347 109 l 347 86 q 313 27 347 49 q 234 16 294 16 l 168 16 z "},"":{"ha":440,"x_min":18,"x_max":414,"o":"m 414 780 q 349 748 414 748 q 232 831 307 748 q 214 848 216 848 q 196 829 212 848 q 145 779 180 810 q 77 747 111 747 l 72 747 l 66 747 q 18 774 18 747 l 18 780 q 145 970 18 820 q 217 1002 172 1002 l 222 1002 q 289 972 264 1002 q 414 780 414 823 m 354 113 l 354 98 q 317 43 354 62 q 237 35 302 35 l 227 35 l 218 35 l 180 35 l 170 35 q 92 100 92 35 q 105 160 92 127 q 123 221 118 193 q 127 384 127 250 q 125 531 127 518 q 103 581 122 545 q 84 634 84 617 l 84 643 q 104 682 84 673 q 177 692 123 692 q 225 694 215 694 l 254 694 q 299 675 287 694 q 311 610 311 656 l 312 591 l 312 572 l 313 524 q 313 505 313 514 l 314 486 l 314 466 l 315 437 q 318 284 315 326 q 338 180 321 243 q 354 113 354 117 z "},"":{"ha":437,"x_min":4,"x_max":435,"o":"m 92 762 l 77 762 q 30 778 52 762 q 7 825 7 793 l 5 834 l 4 850 l 4 873 q 6 889 6 884 q 30 941 6 924 q 83 958 54 958 l 92 958 q 167 870 167 958 l 167 853 l 164 827 q 144 782 164 802 q 92 762 125 762 m 358 791 l 331 791 q 317 793 323 793 q 260 869 260 793 l 260 885 l 262 909 q 279 949 262 935 q 319 963 296 963 q 330 965 327 965 l 348 966 l 354 966 q 417 948 399 966 q 435 888 435 930 l 435 872 l 432 848 q 413 807 432 823 q 358 791 395 791 m 233 23 l 195 23 q 120 39 140 23 q 100 89 100 56 q 113 152 100 122 q 132 214 125 182 q 139 326 139 247 l 139 462 l 138 500 q 115 572 138 535 q 92 631 92 610 l 92 640 q 113 679 92 669 q 192 688 133 688 l 211 690 l 239 690 l 258 690 q 301 672 290 690 q 313 616 313 654 l 314 598 l 315 579 q 315 560 315 570 l 315 531 q 315 512 315 522 l 315 493 l 315 445 q 318 259 315 290 q 339 174 322 229 q 357 100 357 119 l 356 92 l 356 83 q 315 31 356 46 q 233 23 295 23 z "},"":{"ha":810,"x_min":66,"x_max":732,"o":"m 245 314 q 285 163 245 226 q 388 101 325 101 l 406 101 q 504 163 467 101 q 541 323 541 226 l 541 357 q 511 485 541 439 q 399 546 472 546 l 387 546 q 290 495 333 546 q 246 362 246 444 l 245 349 l 245 314 m 609 907 q 603 874 609 907 q 598 834 597 841 q 640 744 600 827 q 697 609 680 662 q 732 381 732 499 l 732 361 q 640 82 732 182 q 534 8 596 35 q 406 -18 472 -18 l 386 -18 q 250 8 312 -18 q 85 189 128 59 q 66 325 66 248 q 94 467 66 401 q 291 642 153 608 q 430 652 332 652 q 477 670 477 652 q 433 733 477 708 q 355 748 408 748 l 340 747 l 313 745 q 265 785 265 745 q 279 821 265 798 q 293 854 293 844 q 261 894 293 863 q 230 956 230 924 q 296 994 230 994 q 385 975 323 994 q 479 956 447 956 l 569 966 q 609 907 609 966 z "},"":{"ha":826,"x_min":72,"x_max":755,"o":"m 296 979 l 313 979 q 414 948 345 979 q 510 918 484 918 q 566 941 536 918 q 618 964 595 964 q 653 919 653 964 q 612 834 653 875 q 524 793 572 793 l 512 793 q 408 825 479 793 q 312 857 337 857 q 256 832 286 857 q 201 808 225 808 q 166 854 166 808 q 209 940 166 900 q 296 979 252 979 m 251 656 q 267 648 251 656 q 301 639 284 639 q 378 664 318 639 q 481 688 439 688 l 520 688 q 612 664 565 688 q 691 581 659 639 q 722 298 722 523 q 726 184 722 205 q 743 130 730 163 q 755 64 755 96 q 740 16 755 31 q 656 1 724 1 q 561 22 589 1 q 532 90 532 44 q 539 161 532 92 q 545 343 545 231 q 525 501 545 456 q 424 563 496 563 q 312 511 352 563 q 282 353 282 473 l 283 315 q 284 263 284 295 q 291 179 284 231 q 298 117 298 127 q 277 32 298 53 q 149 1 244 1 q 86 16 100 1 q 72 60 72 31 l 72 78 q 85 130 72 91 q 100 195 98 170 q 102 343 102 220 q 99 499 102 465 q 85 573 96 533 q 73 634 73 612 q 95 665 73 655 q 167 674 117 674 q 251 656 217 674 z "},"":{"ha":783,"x_min":53,"x_max":720,"o":"m 380 113 l 401 113 q 505 169 471 113 q 538 311 538 225 l 538 362 q 505 514 538 458 q 387 584 463 584 l 366 584 q 259 522 298 584 q 228 379 228 473 l 228 349 q 269 173 228 234 q 380 113 309 113 m 198 970 l 198 982 q 217 1004 198 989 q 267 1019 235 1019 l 287 1019 q 299 1017 295 1017 q 372 982 340 1017 q 481 799 481 859 l 481 795 q 434 768 481 768 l 430 768 q 321 825 378 768 q 198 970 198 949 m 720 364 l 720 328 q 720 326 720 328 q 537 15 720 96 q 407 -13 476 -12 l 359 -13 q 355 -13 357 -13 q 227 15 283 -13 q 75 186 112 71 q 53 319 53 253 l 53 355 q 136 602 53 509 q 243 672 179 648 q 375 696 307 696 l 387 696 l 399 696 q 631 608 543 696 q 696 500 673 566 q 720 364 720 435 z "},"":{"ha":783,"x_min":51,"x_max":722,"o":"m 230 331 q 231 296 230 331 q 282 161 231 216 q 383 121 319 121 l 390 122 q 497 177 458 122 q 536 342 536 232 l 536 371 l 536 378 l 534 412 q 493 538 534 489 q 383 587 451 587 l 376 587 q 269 531 308 587 q 229 368 229 476 l 229 338 l 230 331 m 340 762 l 333 762 l 329 763 q 288 787 288 763 l 288 790 l 288 794 q 397 973 288 850 q 490 1014 433 1014 l 503 1014 q 549 1001 529 1014 q 568 980 568 988 l 568 972 q 444 819 568 943 q 340 762 387 762 m 722 365 l 722 328 q 700 190 722 252 q 549 18 655 64 q 407 -14 473 -14 l 359 -14 q 232 12 290 -14 q 77 175 117 64 q 51 319 51 248 l 51 368 q 74 498 51 435 q 134 602 97 562 q 233 670 171 642 q 363 698 295 698 l 399 698 q 640 602 552 698 q 700 498 677 561 q 722 365 722 436 z "},"":{"ha":785,"x_min":51,"x_max":724,"o":"m 380 114 l 393 114 q 500 165 460 114 q 541 317 541 216 l 541 367 q 497 526 541 470 q 382 581 453 581 l 376 581 q 269 528 311 581 q 228 375 228 475 l 228 346 q 266 177 228 239 q 380 114 303 114 m 380 1013 l 392 1013 q 468 979 439 1013 q 593 802 593 831 q 530 772 593 772 q 454 815 494 772 q 385 883 391 883 q 358 860 379 883 q 313 815 336 838 q 229 771 265 771 l 223 771 q 173 795 173 771 l 173 800 q 298 974 173 825 q 380 1013 331 1013 m 51 317 l 51 354 q 136 602 51 509 q 239 672 176 646 q 376 698 302 698 l 388 698 l 400 697 q 649 593 557 697 q 706 480 689 547 q 724 351 724 413 l 724 338 l 723 326 q 700 184 723 250 q 530 7 653 52 q 396 -18 463 -18 l 372 -18 q 231 9 292 -18 q 77 173 117 60 q 51 317 51 243 z "},"":{"ha":785,"x_min":52,"x_max":726,"o":"m 228 367 l 228 352 q 264 192 228 248 q 389 123 309 123 l 395 123 l 402 123 q 508 180 471 123 q 544 336 544 236 l 544 365 q 500 530 544 472 q 384 587 456 587 l 377 587 q 228 367 228 587 m 497 783 l 486 783 q 380 813 446 783 q 290 844 315 844 q 236 820 264 844 q 184 796 208 796 q 145 833 145 796 l 145 840 q 187 928 145 890 q 278 967 229 967 l 284 967 q 393 937 317 967 q 489 907 470 907 q 535 930 508 907 q 584 954 562 954 q 623 916 623 954 l 623 909 q 583 822 623 861 q 497 783 544 783 m 726 364 l 726 328 q 640 80 726 173 q 530 8 596 32 q 397 -16 463 -16 l 373 -16 q 370 -16 371 -16 q 245 7 307 -16 q 78 174 123 52 q 52 319 52 245 l 52 355 q 235 671 53 589 q 366 699 297 699 l 402 699 q 541 673 479 699 q 700 509 660 623 q 726 364 726 437 z "},"":{"ha":783,"x_min":51,"x_max":722,"o":"m 530 363 q 491 528 530 468 q 382 587 453 587 l 369 587 l 362 587 q 263 532 298 587 q 228 368 228 477 l 228 353 q 382 121 228 121 l 389 121 q 490 170 452 121 q 528 298 528 218 l 529 313 l 530 341 l 530 363 m 338 880 l 336 852 q 284 799 336 799 q 270 796 273 796 l 252 795 l 245 795 l 243 795 l 234 795 q 220 798 220 798 q 168 854 168 798 q 166 863 166 859 l 165 878 l 165 887 l 168 911 q 182 949 168 931 q 228 966 197 966 l 245 968 l 267 968 q 290 965 281 965 q 336 913 336 965 q 338 898 338 903 l 338 880 m 532 960 q 600 902 600 960 q 601 892 601 897 l 602 880 l 602 854 q 600 839 600 844 q 581 794 600 810 q 530 778 562 778 l 503 778 q 480 780 493 780 q 450 795 468 780 q 432 842 432 810 l 430 858 l 430 880 l 433 902 q 451 943 433 927 q 496 958 470 958 l 514 960 l 532 960 m 722 364 l 722 315 q 699 186 722 251 q 539 14 654 61 q 408 -15 470 -15 l 359 -15 q 232 12 293 -15 q 77 174 118 61 q 51 318 51 245 l 51 355 q 241 673 51 595 q 363 697 300 697 l 399 697 q 633 609 545 697 q 698 501 675 567 q 722 364 722 435 z "},"":{"ha":780,"x_min":61,"x_max":698,"o":"m 287 655 l 287 662 l 288 665 l 288 671 l 289 684 q 376 751 289 751 l 386 751 q 453 730 436 751 q 471 671 471 709 l 471 646 q 407 570 471 570 q 397 568 400 568 l 385 567 l 366 567 l 344 570 q 287 655 287 570 m 90 346 q 61 387 61 346 l 61 410 q 68 457 61 446 q 104 469 75 469 l 669 469 q 698 434 698 469 l 698 390 q 688 354 698 362 q 640 346 679 346 l 557 346 l 550 347 l 353 347 l 323 346 l 90 346 m 288 142 l 288 167 q 307 227 288 208 q 373 246 326 246 l 389 246 l 402 245 l 417 243 q 453 227 437 243 q 469 177 469 210 q 471 168 471 172 l 471 155 l 471 152 l 471 149 q 407 66 471 66 q 398 64 401 64 l 385 63 l 366 63 l 363 64 l 356 64 q 347 65 351 65 q 304 85 320 65 q 288 142 288 104 z "},"":{"ha":800,"x_min":73,"x_max":711,"o":"m 237 341 q 264 214 237 214 q 334 298 277 214 q 462 530 462 491 l 461 534 l 461 538 q 394 574 461 574 l 374 574 q 282 528 323 574 q 240 408 240 481 q 238 387 238 392 l 237 361 l 237 341 m 536 437 q 534 456 536 437 q 531 461 534 461 q 512 428 527 461 q 447 309 496 394 q 361 179 397 224 q 324 119 324 134 l 324 116 q 363 94 324 94 l 368 94 q 476 165 435 94 q 534 371 534 265 q 536 385 536 380 l 537 407 l 537 420 l 536 437 m 164 -50 q 113 -10 113 -50 q 121 27 113 1 q 129 72 129 53 q 114 125 129 91 q 73 306 73 220 q 73 309 73 307 l 73 336 q 183 608 73 510 q 299 671 239 656 q 480 686 360 686 q 564 703 513 686 q 619 720 614 720 q 669 680 669 720 q 663 647 669 670 q 656 609 656 623 q 683 514 656 594 q 711 360 711 434 l 711 347 l 710 332 q 681 177 710 250 q 595 58 651 104 q 481 -2 540 12 q 348 -16 422 -16 q 241 -26 273 -16 q 164 -50 168 -50 z "},"":{"ha":814,"x_min":58,"x_max":733,"o":"m 500 802 l 500 792 q 456 774 500 774 l 452 774 q 277 881 397 774 q 212 974 212 939 l 212 977 q 224 999 212 991 q 269 1017 252 1017 l 284 1017 l 288 1017 q 382 975 345 1017 q 500 802 500 842 m 288 186 q 386 128 315 128 q 491 175 458 128 q 525 328 525 221 q 515 502 525 435 q 506 607 506 568 q 539 667 506 646 q 633 687 573 687 q 703 642 694 687 q 706 505 706 629 l 706 304 l 707 249 q 720 155 707 216 q 733 87 733 94 q 703 27 733 41 q 627 13 673 13 q 550 32 581 13 q 507 51 520 51 q 435 25 494 51 q 321 0 376 0 l 302 0 q 121 109 178 0 q 90 382 91 167 q 88 512 90 490 q 72 569 85 533 q 58 621 58 605 l 58 637 q 78 676 58 667 q 167 686 98 686 q 254 642 236 686 q 269 418 269 607 q 288 186 269 229 z "},"":{"ha":816,"x_min":56,"x_max":738,"o":"m 351 777 l 338 777 q 297 800 297 777 l 297 810 q 406 979 297 857 q 505 1023 444 1023 l 513 1023 q 562 1009 543 1023 q 582 989 582 996 l 582 979 q 451 831 582 947 q 351 777 391 777 m 526 365 q 516 508 526 435 q 505 612 505 582 q 539 663 505 642 q 633 684 572 684 l 651 684 q 706 641 696 684 q 709 443 709 629 q 710 230 709 256 q 725 142 711 203 q 738 81 738 82 q 707 20 738 35 q 631 6 677 6 q 551 25 585 6 q 507 44 517 44 q 436 18 496 44 q 321 -7 376 -7 l 302 -7 q 118 103 174 -7 q 90 377 90 160 q 87 509 90 486 q 70 567 84 532 q 56 616 56 602 l 56 633 q 76 673 56 663 q 166 682 97 682 q 255 639 235 682 q 269 422 269 607 q 281 197 269 237 q 384 119 305 119 q 494 166 462 119 q 526 365 526 213 z "},"":{"ha":815,"x_min":56,"x_max":736,"o":"m 610 806 q 551 779 610 779 q 467 824 512 779 l 397 895 q 375 874 394 895 q 318 815 356 853 q 242 778 281 778 l 236 778 q 186 802 186 778 l 186 806 q 207 846 186 815 q 324 991 269 941 q 399 1018 353 1018 l 405 1018 q 477 987 446 1018 q 610 806 610 854 m 507 187 q 526 328 526 224 q 516 505 526 432 q 506 610 506 578 q 539 663 506 642 q 635 684 573 684 q 706 639 696 684 q 708 448 708 629 q 710 232 708 267 q 724 139 712 197 q 736 79 736 81 q 707 17 736 31 q 631 3 678 3 q 552 22 583 3 q 509 41 521 41 q 435 15 498 41 q 315 -11 373 -11 q 131 77 186 -11 q 95 184 102 123 q 89 369 89 245 q 87 509 89 492 q 71 564 85 526 q 56 616 56 601 l 56 633 q 76 673 56 664 q 147 682 96 682 q 255 637 237 682 q 269 410 269 602 q 288 175 269 218 q 392 117 314 117 q 507 187 471 117 z "},"":{"ha":814,"x_min":54,"x_max":734,"o":"m 168 871 l 168 895 q 172 928 172 916 q 190 957 172 941 q 252 972 208 972 l 264 972 l 287 969 q 342 897 342 969 l 342 873 l 339 852 q 322 813 339 830 q 267 797 306 797 l 239 797 l 219 800 q 182 817 197 800 q 168 871 168 835 m 500 799 q 445 870 445 799 l 445 895 l 446 898 l 446 904 q 447 913 447 909 q 528 972 447 972 l 541 972 q 617 910 617 972 l 619 892 l 619 873 l 616 852 q 599 813 616 827 q 556 799 582 799 l 545 797 l 514 797 q 500 799 501 799 m 287 178 q 386 119 312 119 q 492 167 459 119 q 525 330 525 215 q 514 509 525 446 q 504 592 504 572 q 537 666 504 644 q 632 687 571 687 l 650 687 q 704 642 694 687 q 706 451 706 633 q 708 235 706 270 q 722 143 710 200 q 734 81 734 86 q 704 19 734 33 q 627 6 674 6 q 550 25 581 6 q 509 44 520 44 q 435 18 498 44 q 319 -7 372 -7 l 299 -7 q 117 103 175 -7 q 87 370 87 158 q 87 379 87 374 q 85 511 87 488 q 68 568 82 534 q 54 634 54 602 q 74 676 54 667 q 164 685 94 685 q 254 640 234 685 q 267 416 267 609 q 287 178 267 223 z "},"":{"ha":753,"x_min":39,"x_max":707,"o":"m 338 768 l 330 768 q 288 791 288 768 l 288 798 l 288 802 q 406 975 288 842 q 499 1019 445 1019 l 507 1019 q 555 1004 536 1019 q 574 979 574 989 l 574 972 q 420 808 574 962 q 338 768 380 768 m 146 682 q 259 626 233 682 q 279 527 271 600 q 326 334 286 453 q 390 214 366 214 q 409 233 395 214 q 507 534 477 327 q 526 643 521 633 q 607 686 545 686 l 627 686 q 707 645 707 686 q 600 319 707 640 q 467 -52 493 -1 q 361 -205 410 -160 q 218 -271 290 -271 q 145 -255 180 -271 q 111 -206 111 -238 q 154 -150 111 -174 q 212 -133 161 -146 q 322 -1 322 -104 q 263 127 322 35 q 169 295 203 220 q 39 631 39 575 q 60 663 39 653 q 146 682 97 682 z "},"":{"ha":816,"x_min":73,"x_max":743,"o":"m 391 103 l 415 103 q 517 165 479 103 q 554 333 554 228 l 554 355 q 517 518 554 460 q 419 576 480 576 l 413 576 q 318 538 351 576 q 286 444 286 500 l 283 411 l 282 372 l 282 286 l 283 279 l 285 228 q 286 215 286 221 q 313 136 286 168 q 391 103 340 103 m 315 -153 q 184 -273 315 -273 q 102 -260 122 -273 q 82 -197 82 -248 l 90 -149 q 108 82 108 -60 l 108 378 q 105 781 108 732 q 88 872 102 829 q 73 923 73 915 q 142 968 73 968 l 197 968 q 275 914 255 968 q 286 797 282 896 q 293 686 290 697 q 332 660 301 660 q 388 674 338 660 q 484 688 437 688 q 582 666 532 688 q 722 508 682 623 q 743 374 743 444 l 743 353 q 718 197 743 271 q 533 12 667 52 q 419 -5 486 -3 q 320 -19 353 -8 q 303 -65 303 -24 l 315 -153 z "},"":{"ha":767,"x_min":61,"x_max":714,"o":"m 155 859 q 218 950 155 950 l 246 950 q 260 948 254 948 l 285 943 q 321 883 321 943 l 321 848 q 317 817 317 831 q 297 787 317 802 q 248 772 276 772 l 214 772 q 157 825 157 772 l 156 831 l 156 837 l 155 853 l 155 859 m 432 906 q 514 956 432 956 l 520 956 q 599 898 599 956 q 600 889 600 892 l 602 873 l 602 861 l 601 859 l 601 852 q 597 825 597 839 q 580 797 597 812 q 524 783 562 783 l 500 783 q 431 840 431 783 q 429 849 429 847 l 428 865 l 428 877 l 429 880 l 432 906 m 61 628 q 167 677 61 677 q 268 633 240 677 q 295 524 280 615 q 345 328 311 433 q 408 223 379 223 q 427 241 413 223 q 522 545 491 330 q 538 642 536 636 q 614 679 556 679 q 693 670 673 679 q 714 635 714 661 l 648 428 q 473 -54 525 45 q 235 -254 366 -254 q 149 -229 182 -254 q 135 -210 135 -218 q 178 -136 135 -162 q 233 -119 183 -133 q 336 10 336 -92 q 278 132 336 39 q 186 299 220 224 q 61 628 61 574 z "},"":{"ha":462,"x_min":96,"x_max":366,"o":"m 193 -3 q 191 -3 192 -3 q 104 58 104 -3 q 119 126 104 88 q 141 201 135 165 q 146 361 146 238 q 142 506 146 485 q 117 566 138 527 q 96 634 96 605 q 124 673 96 664 q 227 683 153 683 l 246 684 l 256 684 q 315 654 304 684 q 322 449 322 635 q 327 232 322 263 q 349 142 332 201 q 366 76 366 83 l 366 68 q 323 5 366 23 q 241 -3 304 -3 l 193 -3 z "},"":{"ha":798,"x_min":49,"x_max":747,"o":"m 471 642 q 501 603 501 642 q 476 536 501 564 q 422 494 469 529 q 351 420 376 459 q 326 282 326 380 q 354 157 326 184 q 450 129 382 129 q 595 152 518 129 q 701 174 672 174 q 747 113 747 174 l 747 96 q 700 14 747 39 q 574 -3 668 -3 l 473 -3 l 452 -3 l 412 -3 q 177 5 209 -3 q 117 66 117 19 q 133 134 117 71 q 150 234 150 197 q 119 315 150 315 q 79 311 97 311 q 49 358 49 311 q 79 439 49 404 q 135 508 130 498 q 152 641 152 545 q 135 784 152 736 q 119 848 119 831 q 144 915 119 897 q 233 932 170 932 q 324 908 296 932 q 352 825 352 884 q 347 793 352 816 l 340 760 q 328 673 328 690 q 375 626 328 626 l 471 642 z "},"":{"ha":517,"x_min":68,"x_max":434,"o":"m 345 660 q 350 653 345 660 q 394 647 354 647 q 434 608 434 647 l 434 597 q 393 514 434 560 q 343 440 353 469 q 333 330 333 412 q 374 134 333 187 q 403 71 403 97 q 367 12 403 26 q 251 -2 332 -2 q 144 72 144 -2 q 156 145 144 75 q 168 258 168 216 q 159 312 168 300 q 110 343 151 325 q 68 399 68 361 q 108 472 68 437 q 159 543 147 506 q 172 691 172 579 q 166 826 172 804 q 149 872 161 848 q 138 923 138 897 q 161 960 138 949 q 231 971 184 971 l 246 971 q 318 942 302 971 q 334 804 334 913 l 335 761 l 336 703 q 345 660 336 672 z "},"":{"ha":973,"x_min":67,"x_max":881,"o":"m 686 1196 q 515 1051 686 1160 q 411 1016 460 1016 l 407 1017 q 370 1050 370 1017 l 370 1053 q 498 1211 370 1097 q 613 1257 551 1257 l 617 1257 q 663 1240 639 1257 q 688 1212 688 1223 l 688 1208 q 686 1196 686 1201 m 260 616 q 254 580 254 616 l 255 552 q 256 465 256 524 q 267 292 256 407 q 279 116 279 176 q 246 27 279 55 q 167 -1 214 -1 l 142 -1 q 77 22 94 -1 l 67 42 l 67 68 q 85 122 67 75 q 105 204 103 170 q 108 478 108 237 q 104 758 108 718 q 85 840 101 798 q 69 898 69 882 q 140 935 69 935 q 255 914 211 935 q 339 840 298 892 q 598 448 380 788 l 675 326 l 688 308 q 699 433 699 308 q 692 660 699 558 q 679 802 684 762 q 673 869 673 842 q 703 916 673 895 q 766 936 734 936 l 791 936 q 859 911 837 936 q 881 828 881 886 q 866 755 881 808 q 848 668 850 702 q 846 420 846 633 l 846 78 l 846 50 q 785 -1 840 -1 q 649 65 705 -1 q 445 363 610 111 q 260 616 280 616 z "},"":{"ha":829,"x_min":68,"x_max":760,"o":"m 368 773 l 359 773 q 318 805 318 773 l 318 817 q 436 984 318 866 q 529 1029 481 1029 l 537 1029 q 588 1012 566 1029 q 610 981 610 995 l 610 973 q 508 857 610 941 q 368 773 406 773 m 309 607 q 309 607 309 607 q 400 635 322 607 q 533 663 480 663 q 690 562 640 663 q 721 302 721 500 l 722 282 q 722 227 722 262 q 741 148 722 193 q 760 92 760 104 l 760 75 q 738 20 760 39 q 647 1 715 1 q 553 26 578 1 q 538 91 538 41 l 540 105 q 543 136 543 124 l 543 172 l 543 210 q 517 472 543 404 q 407 553 488 553 q 296 477 326 553 q 279 319 279 436 q 283 168 279 202 l 285 152 l 290 121 q 294 73 294 94 q 272 12 294 25 q 186 -2 250 -2 q 101 5 123 -2 q 68 68 68 16 l 68 85 q 82 127 68 90 q 98 200 95 165 q 101 305 101 235 l 101 406 l 102 446 l 102 483 q 96 552 102 526 l 87 582 q 79 622 79 608 q 145 660 79 660 q 243 641 212 660 q 309 607 297 607 z "},"":{"ha":1310,"x_min":62,"x_max":1219,"o":"m 642 569 q 615 776 642 724 q 494 828 588 828 l 463 828 q 380 807 422 828 q 308 741 338 786 q 252 523 252 660 l 251 502 l 251 450 q 387 134 251 207 q 488 111 429 111 l 498 112 q 606 147 582 112 q 638 336 638 194 q 640 364 640 355 l 642 422 l 642 442 l 642 471 l 642 569 m 1219 106 q 1157 23 1219 52 q 933 -5 1095 -5 q 850 -2 883 -5 l 800 6 q 744 11 769 11 q 630 1 718 11 q 507 -9 541 -9 l 477 -9 q 166 120 270 -9 q 62 474 62 250 q 296 911 62 809 q 486 948 380 948 q 621 938 537 948 q 726 928 704 928 q 805 935 749 928 q 911 941 861 941 q 1138 918 1074 941 q 1202 843 1202 895 q 1135 800 1202 800 q 1060 806 1116 800 q 949 812 1004 812 q 860 780 894 812 q 826 674 826 749 q 848 578 826 599 q 932 557 870 557 l 1056 571 q 1116 556 1101 571 q 1130 512 1130 541 q 1113 420 1130 438 q 1069 403 1095 403 q 1001 410 1043 403 q 916 417 960 417 q 848 386 873 417 q 823 276 823 355 q 846 162 823 197 q 943 126 869 126 l 1167 139 q 1219 106 1219 139 z "},"":{"ha":1185,"x_min":48,"x_max":1109,"o":"m 356 100 l 376 100 q 476 157 441 100 q 511 328 511 215 l 511 336 l 510 343 l 509 364 l 508 392 q 466 533 508 484 q 371 583 424 583 l 364 583 l 357 582 q 257 524 292 582 q 222 361 222 466 l 222 325 q 258 161 222 222 q 356 100 295 100 m 938 436 l 938 459 q 936 479 936 471 q 909 548 936 511 q 848 584 882 584 l 830 586 l 815 586 q 732 544 769 586 q 695 444 695 501 l 694 435 l 694 420 q 747 401 694 401 l 795 401 l 798 401 l 889 408 l 903 409 q 938 436 938 409 m 1085 99 q 1015 18 1085 55 q 839 -18 944 -18 q 653 36 734 -18 q 601 63 612 63 q 566 47 590 63 l 534 27 q 458 -5 498 6 q 353 -17 419 -17 q 130 76 214 -17 q 69 185 90 120 q 48 319 48 250 l 48 340 q 235 673 49 597 q 366 699 296 699 l 387 699 q 556 646 483 699 q 614 616 597 616 q 654 642 615 616 q 847 699 741 699 q 1088 534 1029 699 q 1109 411 1109 475 q 1066 326 1109 348 q 914 309 1045 316 q 758 298 783 302 q 703 256 703 289 q 747 159 703 200 q 852 119 791 119 q 970 137 913 119 q 1045 156 1027 156 q 1085 99 1085 156 z "},"":{"ha":806,"x_min":62,"x_max":740,"o":"m 401 1021 l 389 1021 q 319 1057 349 1021 q 191 1227 191 1208 l 191 1232 q 235 1256 191 1256 l 251 1256 q 347 1204 287 1256 q 409 1153 407 1153 q 437 1178 412 1153 q 478 1218 462 1203 q 562 1256 519 1256 l 567 1256 q 617 1225 617 1256 q 493 1064 617 1188 q 401 1021 450 1021 m 400 966 q 699 829 699 966 q 684 770 699 795 q 642 745 669 745 q 511 800 641 745 q 368 829 443 829 q 308 812 340 829 q 264 770 276 795 q 254 730 254 750 q 271 676 254 703 q 451 574 301 629 q 646 479 600 519 q 716 396 692 439 q 740 292 740 353 l 740 268 q 715 159 740 213 q 542 19 667 57 q 404 0 479 0 q 141 41 220 0 q 62 157 62 81 q 86 232 62 203 q 113 245 97 245 q 258 181 128 245 q 412 141 339 141 q 516 175 485 141 q 547 260 547 208 q 496 351 547 313 q 331 424 461 377 q 151 515 201 471 q 84 605 102 559 q 67 709 67 651 q 246 943 67 880 q 376 966 310 966 l 400 966 z "},"":{"ha":665,"x_min":60,"x_max":610,"o":"m 128 983 l 128 988 q 177 1013 128 1013 q 267 971 225 1013 q 301 935 268 970 q 337 899 334 899 q 405 970 340 899 q 484 1017 449 1017 l 489 1017 q 540 987 540 1017 q 504 916 540 972 q 422 814 467 859 q 327 770 378 770 l 321 770 q 250 807 282 770 q 128 983 128 951 m 328 701 q 578 600 578 701 q 563 544 578 566 q 533 522 548 522 q 443 551 517 522 q 324 580 368 580 q 257 562 280 580 q 234 522 234 545 q 277 458 234 483 q 389 420 279 456 q 539 354 498 385 q 610 223 610 301 l 610 205 q 538 53 610 111 q 331 -4 466 -4 q 129 25 197 -4 q 60 103 60 55 q 83 176 60 151 q 110 187 92 187 q 208 152 127 187 q 338 117 289 117 q 433 193 433 117 q 382 252 433 228 q 268 292 376 255 q 123 361 160 329 q 62 504 62 414 q 136 648 62 595 q 328 701 209 701 z "},"":{"ha":869,"x_min":36,"x_max":830,"o":"m 393 1119 l 391 1105 q 376 1063 391 1082 q 329 1044 360 1044 q 321 1043 323 1043 l 306 1042 l 294 1042 l 271 1044 q 223 1093 223 1044 l 221 1102 l 220 1117 l 220 1135 l 222 1156 q 238 1194 222 1178 q 280 1210 254 1210 l 286 1211 l 307 1213 l 313 1213 l 315 1212 l 333 1211 q 338 1210 336 1210 q 391 1158 391 1210 q 392 1149 392 1152 l 393 1137 l 393 1122 l 393 1119 m 548 1045 q 502 1102 502 1045 l 500 1120 l 500 1132 l 501 1143 l 503 1158 q 521 1195 503 1181 q 563 1210 538 1210 l 578 1212 l 602 1212 l 622 1209 q 671 1158 671 1209 q 673 1149 673 1149 l 673 1137 l 673 1119 l 671 1099 q 654 1061 671 1078 q 610 1044 637 1044 l 598 1042 l 592 1042 l 583 1042 l 577 1042 l 574 1042 l 554 1044 q 548 1045 551 1045 m 96 786 q 36 899 36 861 q 165 937 36 937 q 269 897 237 937 q 301 829 274 889 q 350 725 328 768 q 403 611 372 682 q 443 539 433 539 q 460 556 448 539 q 594 814 559 688 q 618 888 613 880 q 732 945 652 945 l 749 945 q 823 924 804 945 q 830 900 830 916 q 772 790 830 865 q 706 679 749 760 q 624 530 663 597 q 560 408 584 462 q 518 211 518 311 q 528 141 518 182 q 538 77 538 100 q 462 -7 538 -7 l 445 -7 q 345 3 367 -7 q 311 68 311 18 q 330 154 311 84 q 349 269 349 224 q 310 430 349 351 q 213 598 304 442 q 96 786 121 755 z "},"":{"ha":824,"x_min":58,"x_max":772,"o":"m 587 1261 l 598 1261 q 642 1239 642 1261 l 642 1234 q 505 1062 642 1187 q 427 1031 472 1031 l 421 1032 l 416 1032 q 349 1061 380 1032 q 215 1230 215 1185 l 215 1234 q 273 1260 215 1260 q 391 1185 316 1260 q 427 1153 423 1153 q 464 1184 431 1153 q 503 1219 498 1215 q 587 1261 553 1261 m 316 160 q 409 129 316 129 q 601 152 502 129 q 722 176 700 175 q 772 111 772 176 q 728 20 772 44 q 583 -3 686 -3 l 274 -3 q 92 4 115 -3 q 58 57 58 15 q 86 146 58 98 q 199 321 114 195 l 305 479 q 500 784 500 773 q 485 813 500 806 q 397 821 470 821 q 240 800 323 821 q 120 778 156 778 q 76 846 76 778 q 113 933 76 913 q 332 952 151 952 l 428 952 q 707 946 671 952 q 753 902 753 939 q 710 779 753 852 q 511 477 706 772 q 316 160 316 182 z "},"":{"ha":678,"x_min":52,"x_max":616,"o":"m 494 1023 l 505 1023 q 550 995 550 1023 q 531 956 550 982 q 421 817 458 853 q 341 780 385 780 l 335 780 q 260 814 292 780 q 134 989 134 951 l 134 998 q 189 1021 134 1021 q 272 975 226 1021 q 309 936 280 967 q 342 905 338 905 q 401 964 347 905 q 494 1023 456 1023 m 258 -3 q 82 -1 99 -3 q 52 40 52 4 q 86 130 52 77 q 243 354 120 184 q 366 536 366 524 q 312 563 366 563 q 197 546 258 563 q 100 530 136 530 q 64 594 64 530 q 96 671 64 659 q 267 684 127 684 l 482 684 q 608 650 608 684 q 572 541 608 597 q 521 468 559 521 q 392 283 482 415 q 301 137 301 151 q 366 113 301 113 q 492 132 431 113 q 585 151 553 151 q 616 92 616 151 q 594 14 616 33 q 523 -6 571 -6 l 506 -6 l 488 -5 l 383 -3 l 330 -3 l 258 -3 z "},"":{"ha":625,"x_min":-14,"x_max":612,"o":"m 387 727 q 410 666 387 692 q 441 651 414 661 q 492 620 467 640 q 517 573 517 599 q 452 528 517 548 q 366 451 388 507 q 326 184 345 395 q 273 -93 308 -26 q 70 -224 205 -224 l 51 -224 q -14 -175 -14 -224 q 37 -103 -14 -125 l 51 -99 q 139 -24 120 -75 q 169 171 153 12 q 185 406 185 330 q 161 517 185 482 q 120 591 120 576 q 170 658 120 606 q 235 762 220 710 q 298 892 262 853 q 496 973 370 972 q 597 948 563 973 q 612 909 612 937 q 591 861 612 882 q 519 840 571 840 l 488 844 q 387 727 387 844 z "},"":{"ha":573,"x_min":75,"x_max":498,"o":"m 444 757 l 433 757 q 345 815 404 757 q 286 873 287 873 q 258 846 285 873 q 214 803 232 819 q 120 758 165 758 q 75 782 75 758 l 75 787 q 207 963 75 821 q 285 998 239 998 q 360 973 331 998 q 444 874 389 948 q 498 789 498 800 l 498 785 q 444 757 498 757 z "},"":{"ha":595,"x_min":82,"x_max":513,"o":"m 456 997 l 467 997 q 513 968 513 997 q 494 928 513 954 q 371 783 429 836 q 295 753 338 753 q 223 779 252 753 q 102 923 195 805 q 82 964 82 949 l 82 973 q 127 996 82 996 q 229 943 172 996 l 242 930 l 259 913 q 299 878 297 878 q 332 908 301 878 q 372 947 363 939 q 456 997 425 997 z "},"":{"ha":602,"x_min":81,"x_max":516,"o":"m 516 943 l 516 932 q 495 880 516 918 q 437 812 475 841 q 299 767 378 767 l 293 768 q 146 822 210 768 q 81 936 81 877 l 81 941 q 131 971 81 971 q 202 925 159 971 q 298 879 244 879 q 394 925 352 879 q 465 971 437 971 l 471 971 q 516 943 516 971 z "},"":{"ha":470,"x_min":132,"x_max":332,"o":"m 241 764 l 214 764 q 197 766 203 766 q 149 790 166 766 q 132 852 132 814 l 132 865 q 152 928 132 905 q 205 952 172 952 q 216 954 212 954 l 232 955 l 239 955 l 265 952 q 312 931 294 952 q 330 882 330 910 q 331 873 331 877 l 332 859 l 331 856 q 331 849 331 852 l 330 836 q 306 784 330 804 q 241 764 282 764 z "},"":{"ha":499,"x_min":90,"x_max":397,"o":"m 178 881 l 178 863 q 182 847 182 852 q 196 824 182 841 q 227 806 210 806 l 239 804 l 250 804 q 266 806 256 806 q 292 823 275 806 q 309 865 309 840 l 309 877 l 306 896 q 289 923 306 906 q 243 940 272 940 l 241 939 q 195 919 211 939 q 178 881 178 899 m 90 861 l 90 881 q 138 980 90 941 q 243 1019 185 1019 l 248 1019 q 354 979 310 1019 q 397 878 397 939 l 397 868 q 352 767 397 808 q 249 726 306 726 l 239 726 q 214 728 222 728 q 128 770 166 728 q 90 861 90 812 z "},"":{"ha":500,"x_min":118,"x_max":387,"o":"m 288 26 l 298 26 q 334 6 334 26 q 315 -22 335 -4 q 251 -132 251 -79 q 270 -172 251 -161 q 330 -182 288 -182 q 387 -224 387 -182 q 357 -268 387 -248 q 275 -288 328 -288 l 252 -288 q 156 -254 193 -288 q 118 -166 118 -219 l 119 -161 q 166 -50 119 -101 q 288 26 236 26 z "},"":{"ha":651,"x_min":75,"x_max":573,"o":"m 205 938 l 229 938 q 332 907 258 938 q 426 876 405 876 q 480 900 447 876 q 538 924 513 924 q 573 884 573 924 l 573 878 q 530 792 573 831 q 443 752 488 752 l 431 752 l 425 753 q 319 784 389 753 q 225 814 250 814 q 170 790 201 814 q 116 765 138 765 q 75 804 75 765 l 75 810 q 117 896 75 854 q 205 938 159 938 z "},"":{"ha":682,"x_min":81,"x_max":604,"o":"m 263 984 l 283 984 q 352 951 352 984 l 352 947 l 351 944 q 210 769 351 910 q 136 726 168 726 l 132 727 q 81 752 81 727 l 81 760 q 96 795 81 774 q 148 878 111 817 q 193 949 185 940 q 263 984 224 984 m 383 727 l 363 727 q 323 755 323 727 q 445 951 323 795 q 515 983 470 983 l 531 983 q 604 949 604 983 l 604 945 q 452 766 604 918 q 383 727 413 727 z "},"":{"ha":760,"x_min":77,"x_max":682,"o":"m 612 449 q 672 441 662 449 q 682 408 682 433 l 682 387 q 658 326 682 332 q 378 323 644 323 l 161 323 l 140 322 q 87 330 98 322 q 77 363 77 337 l 77 378 l 77 385 q 100 445 77 439 q 387 448 116 448 l 591 449 l 612 449 z "},"":{"ha":1121,"x_min":59,"x_max":1059,"o":"m 59 371 l 59 393 q 98 447 59 443 q 565 449 119 449 l 982 450 l 993 450 q 1045 441 1032 450 q 1059 401 1059 432 l 1059 390 q 1018 326 1059 330 q 538 323 997 323 l 237 323 l 203 323 l 113 323 q 72 331 85 323 q 59 371 59 340 z "},"":{"ha":371,"x_min":88,"x_max":281,"o":"m 281 728 l 281 713 q 256 662 281 680 q 182 644 231 644 l 178 644 l 172 644 q 107 670 126 644 q 88 751 88 696 l 88 781 q 90 806 90 795 q 138 937 90 873 q 229 1001 186 1001 l 238 1001 q 272 966 272 1001 q 251 919 272 955 q 230 862 230 882 q 256 802 230 842 q 281 728 281 762 z "},"":{"ha":365,"x_min":94,"x_max":288,"o":"m 210 994 q 273 973 258 994 q 288 913 288 952 l 288 888 q 236 720 288 803 q 134 637 185 637 q 94 669 94 637 l 94 676 q 117 722 94 683 q 140 781 140 761 q 120 833 140 800 q 100 892 100 865 l 99 902 q 99 917 99 909 q 178 994 99 994 l 189 995 l 199 995 l 204 994 l 210 994 z "},"":{"ha":362,"x_min":89,"x_max":283,"o":"m 136 -172 l 127 -172 q 89 -137 89 -172 l 89 -134 q 111 -86 89 -127 q 133 -23 133 -45 q 123 14 133 -1 q 93 106 93 60 q 116 171 93 153 q 184 190 138 190 l 199 190 q 265 171 246 190 q 283 109 283 153 l 283 88 l 283 83 l 283 73 q 281 58 281 63 q 231 -89 281 -6 q 136 -172 180 -172 z "},"":{"ha":610,"x_min":81,"x_max":532,"o":"m 269 724 l 269 709 q 244 656 269 675 q 178 637 218 637 l 168 637 q 102 659 124 637 q 81 739 81 681 l 81 770 q 83 795 83 784 q 130 928 83 860 q 227 996 176 996 l 231 996 q 267 958 267 996 q 245 914 267 947 q 224 857 224 882 q 247 795 224 833 q 269 724 269 758 m 532 722 l 532 713 l 532 708 q 511 659 532 680 q 444 637 490 637 l 429 637 q 414 639 418 639 q 366 659 385 639 q 346 715 346 678 q 345 730 345 725 l 343 755 l 344 761 q 384 913 344 839 q 436 974 405 953 q 486 994 467 994 l 495 994 q 529 960 529 994 q 508 913 529 959 q 487 852 487 867 q 510 796 487 838 q 532 722 532 754 z "},"":{"ha":607,"x_min":87,"x_max":540,"o":"m 277 909 l 277 869 q 227 711 277 793 q 125 629 177 629 l 121 629 q 87 665 87 629 l 87 668 q 109 713 87 677 q 132 771 132 750 q 112 827 132 791 q 92 905 92 863 q 112 966 92 946 q 181 986 132 986 l 197 986 q 258 969 239 986 q 277 909 277 951 m 352 907 q 435 985 352 985 l 461 985 q 524 965 507 985 q 540 905 540 945 l 540 875 q 538 850 538 861 q 485 705 538 781 q 393 629 432 629 l 383 629 q 347 659 347 629 l 347 671 q 370 713 347 675 q 392 771 392 752 q 372 826 392 789 q 352 907 352 863 z "},"":{"ha":612,"x_min":82,"x_max":543,"o":"m 87 114 q 174 190 87 190 l 195 190 q 210 189 204 189 q 275 111 275 189 l 275 86 l 274 81 l 274 71 q 273 56 273 61 q 222 -90 273 -7 q 126 -172 171 -172 q 82 -136 82 -172 l 82 -129 q 104 -85 82 -126 q 126 -23 126 -45 q 115 17 126 -1 q 95 56 104 36 q 87 114 87 77 m 391 -173 l 387 -173 q 347 -132 347 -173 q 369 -86 347 -125 q 391 -26 391 -48 q 372 32 391 -4 q 352 111 352 68 q 376 172 352 155 q 447 190 401 190 l 452 190 l 458 189 q 524 171 506 189 q 543 104 543 153 l 543 88 l 541 73 l 540 53 q 477 -109 540 -18 q 391 -173 432 -173 z "},"":{"ha":705,"x_min":73,"x_max":631,"o":"m 261 564 q 252 574 261 564 q 181 584 243 584 q 96 598 119 584 q 73 647 73 613 q 92 695 73 682 q 150 709 111 709 l 213 705 q 274 715 264 705 q 283 754 283 726 l 280 785 q 275 889 275 840 q 291 949 275 939 q 361 959 307 959 q 423 940 414 959 q 428 879 428 930 l 418 749 q 437 708 418 717 q 494 704 446 704 l 542 708 q 588 709 552 709 q 631 661 631 709 q 595 595 631 612 q 511 582 569 582 q 437 559 454 582 q 420 475 420 536 l 422 411 l 422 134 q 412 -61 422 -35 q 347 -87 401 -87 q 285 -45 292 -87 q 280 217 280 -16 l 279 234 q 279 267 279 250 l 279 300 q 279 332 279 316 l 278 366 l 279 463 q 261 564 279 543 z "},"":{"ha":714,"x_min":83,"x_max":628,"o":"m 119 194 q 112 202 119 194 q 104 241 104 210 q 126 283 104 273 q 186 299 137 289 q 247 323 236 309 q 283 530 283 372 q 267 587 283 574 q 188 602 250 599 q 104 617 126 606 q 83 665 83 629 q 140 726 83 726 l 179 725 l 217 725 q 270 743 258 725 q 281 835 281 760 l 281 856 q 280 907 280 877 q 294 948 280 937 q 355 959 309 959 l 376 959 q 423 945 414 959 q 431 904 431 930 l 430 861 q 429 784 429 819 q 439 737 429 749 q 525 725 449 725 q 614 716 601 725 q 628 667 628 707 q 591 611 628 627 q 515 600 570 602 q 449 591 460 597 q 428 519 428 580 q 458 325 428 380 q 539 296 467 310 q 611 252 611 281 q 581 184 611 205 q 512 167 566 174 q 440 144 458 160 q 423 86 423 129 l 425 66 l 429 24 q 431 -42 431 -8 q 416 -90 431 -77 q 350 -104 402 -104 q 287 -85 298 -104 q 281 -6 281 -76 l 286 98 q 264 150 286 140 q 188 169 242 159 q 119 194 134 178 z "},"":{"ha":636,"x_min":134,"x_max":502,"o":"m 320 267 l 302 267 q 183 312 233 267 q 134 427 134 357 l 134 456 q 191 580 134 532 q 322 628 248 628 l 328 628 l 334 627 q 451 584 400 627 q 502 462 502 541 l 502 444 q 448 317 502 367 q 320 267 394 267 z "},"":{"ha":1064,"x_min":68,"x_max":973,"o":"m 270 108 l 269 92 q 244 37 269 58 q 178 16 220 16 l 155 16 q 68 104 68 16 l 68 124 l 71 144 q 94 193 71 172 q 159 213 118 213 l 183 213 q 245 193 222 213 q 269 136 269 174 l 271 115 l 271 112 l 270 108 m 419 124 q 514 213 419 213 l 532 213 q 561 211 542 211 q 601 190 580 211 q 622 125 622 169 l 622 108 q 602 43 622 66 q 547 19 581 19 q 534 17 537 17 l 516 16 l 513 16 q 421 90 421 16 l 419 107 l 419 124 m 886 213 q 948 194 926 213 q 970 142 970 174 q 973 125 973 130 l 973 108 q 882 16 973 16 l 857 16 q 841 18 847 18 q 790 41 810 18 q 770 111 770 64 l 770 117 q 795 191 770 170 q 855 212 819 212 l 862 213 l 886 213 z "},"":{"ha":1492,"x_min":18,"x_max":1392,"o":"m 219 847 l 208 847 q 156 808 177 847 q 134 704 134 770 l 134 690 q 155 589 134 627 q 207 551 176 551 l 221 551 q 266 579 244 551 q 288 648 288 607 q 291 668 291 665 l 292 698 l 292 711 q 271 812 292 777 q 219 847 249 847 m 722 384 l 708 384 q 656 344 676 384 q 637 245 637 304 l 637 218 q 657 123 637 159 q 713 86 677 86 l 716 86 q 767 116 744 86 q 790 188 790 146 q 791 200 791 196 l 793 208 l 793 225 l 793 256 l 792 273 l 790 292 q 766 357 790 330 q 722 384 743 384 m 1093 195 l 1095 164 q 1116 104 1095 127 q 1158 80 1137 80 l 1170 80 q 1225 116 1201 80 q 1249 189 1249 151 q 1252 214 1252 210 l 1253 245 l 1253 262 q 1235 350 1253 317 q 1187 382 1217 382 l 1176 382 q 1120 346 1144 382 q 1095 265 1095 309 l 1093 248 l 1093 235 l 1092 226 l 1092 200 l 1093 195 m 18 665 l 18 696 q 141 911 18 849 q 217 929 178 929 l 239 929 q 376 865 325 929 q 427 700 427 802 l 426 692 q 369 517 426 583 q 221 452 312 452 l 214 452 q 73 511 127 452 q 18 665 18 570 m 200 -15 l 189 -15 q 130 6 130 -15 q 157 68 130 22 q 650 835 393 461 q 756 936 720 936 q 827 915 827 936 q 795 842 827 895 q 315 97 508 373 q 200 -15 236 -15 m 524 201 l 524 240 q 583 402 524 338 q 722 466 643 466 l 751 466 q 879 405 826 466 q 931 245 931 345 l 931 222 q 930 199 930 207 q 871 51 930 114 q 727 -12 812 -12 l 720 -12 l 712 -12 q 576 50 629 -12 q 524 201 524 111 m 1195 -12 l 1164 -12 q 1036 49 1088 -12 q 984 215 984 109 l 984 222 q 1039 398 984 330 q 1179 466 1094 466 l 1201 466 q 1339 405 1286 466 q 1392 247 1392 344 l 1392 231 q 1334 55 1392 121 q 1195 -12 1277 -12 z "},"":{"ha":545,"x_min":83,"x_max":437,"o":"m 391 684 l 397 684 q 434 638 434 684 q 348 506 434 607 q 289 439 338 496 q 240 379 240 382 q 338 266 240 376 q 437 127 437 157 l 437 120 q 395 75 437 75 q 292 145 367 75 q 83 380 83 344 q 289 612 83 416 q 391 684 366 684 z "},"":{"ha":545,"x_min":113,"x_max":458,"o":"m 114 124 q 212 264 114 155 q 311 382 311 373 q 212 495 311 391 q 113 636 113 600 l 113 643 q 153 686 113 686 q 318 546 178 686 q 458 380 458 406 q 319 215 458 354 q 154 75 180 75 l 147 75 q 114 124 114 75 z "},"":{"ha":510,"x_min":-81,"x_max":587,"o":"m -12 -17 l -23 -17 q -81 5 -81 -17 l -81 15 q -44 88 -81 25 q 448 907 396 829 q 518 956 481 956 l 530 956 q 587 934 587 956 l 587 924 q 568 882 587 918 q 66 42 414 592 q -12 -17 28 -17 z "},"":{"ha":904,"x_min":58,"x_max":798,"o":"m 602 372 q 505 308 602 334 q 408 238 408 282 q 467 161 408 193 q 557 140 507 140 q 667 153 607 140 q 747 165 728 165 q 790 118 790 165 q 719 32 790 72 q 549 -7 648 -7 l 521 -7 q 298 60 386 -7 q 197 189 245 100 q 103 305 148 277 q 58 367 58 333 q 99 417 58 401 q 140 451 140 433 q 117 504 140 492 q 62 551 62 534 q 112 624 62 582 q 199 737 162 665 q 402 920 268 873 q 536 944 471 944 q 798 814 798 944 q 780 771 798 787 q 738 754 763 754 q 653 771 713 754 q 538 788 593 788 q 445 760 483 788 q 406 700 406 732 q 437 648 406 668 q 532 616 451 640 q 614 564 614 593 q 580 522 614 534 q 469 509 547 511 q 376 500 392 507 q 344 462 344 488 q 379 427 344 436 q 474 418 399 421 q 575 404 548 415 q 602 372 602 393 z "},"":{"ha":1117,"x_min":54,"x_max":1040,"o":"m 313 755 l 313 681 l 314 663 q 314 644 314 653 l 315 635 l 315 613 q 323 573 315 601 q 332 529 332 545 q 319 504 332 512 q 259 496 305 496 q 197 505 213 496 q 180 535 180 514 q 189 579 180 557 q 197 636 197 601 l 197 719 q 193 846 197 829 q 151 874 185 874 l 81 865 q 54 896 54 865 l 54 905 q 71 954 54 945 q 178 964 88 964 l 302 964 q 438 957 420 964 q 456 918 456 949 l 456 901 q 416 864 456 864 l 352 873 q 317 838 325 873 q 313 755 313 819 m 1040 555 q 984 509 1040 509 q 918 551 928 509 q 908 679 908 593 q 902 764 908 764 q 854 665 896 764 q 809 561 812 566 q 764 530 791 530 q 722 549 736 530 q 673 660 718 556 q 622 764 629 764 q 610 659 610 764 q 600 531 610 553 q 563 509 589 509 q 502 554 502 509 q 509 585 502 556 q 516 640 516 614 l 516 690 l 518 793 l 518 841 q 517 878 518 863 l 515 892 q 511 918 511 916 q 584 958 511 958 q 660 920 631 958 q 720 801 671 905 q 774 696 768 696 q 821 798 776 696 q 881 920 866 899 q 957 957 908 957 q 1026 918 1026 957 q 1023 844 1023 857 l 1024 741 l 1024 690 l 1025 639 q 1033 594 1025 618 q 1040 555 1040 569 z "},"":{"ha":720,"x_min":66,"x_max":652,"o":"m 109 351 q 66 389 66 351 l 66 416 q 98 474 66 469 q 363 476 111 476 l 490 477 l 609 477 q 652 439 652 477 l 652 412 q 619 354 652 359 q 347 351 602 351 l 248 351 l 220 351 l 109 351 z "}}}
